<svg width="364" height="204" viewBox="0 0 364 204" fill="none" xmlns="http://www.w3.org/2000/svg">
<g clip-path="url(#clip0_122_2)">
<path d="M76.6041 202.952H20.9938C20.9938 202.952 19.8666 186.419 26.5359 186.231C33.2051 186.044 32.4537 193.558 40.8142 183.225C49.1747 172.892 59.3194 173.456 60.6346 179.562C61.9497 185.668 58.0985 190.553 65.1435 189.05C72.1885 187.547 82.334 191.492 76.6041 202.952Z" fill="#E6E6E6"/>
<path d="M47.8607 202.956L47.6729 202.949C48.1107 192.064 50.3901 185.071 52.2257 181.12C54.2183 176.831 56.1386 175.094 56.158 175.077L56.283 175.218C56.264 175.235 54.3663 176.954 52.3895 181.214C50.5641 185.147 48.297 192.112 47.8607 202.956Z" fill="white"/>
<path d="M67.987 202.978L67.8066 202.926C69.2052 198.313 71.7262 194.118 75.144 190.719L75.2701 190.858C71.8777 194.234 69.3754 198.398 67.987 202.978Z" fill="white"/>
<path d="M29.753 202.965L29.5667 202.939C30.1731 198.858 29.5316 194.689 27.7264 190.98C26.9864 189.424 26.0067 187.993 24.8232 186.741L24.9534 186.605C26.1529 187.873 27.146 189.321 27.8964 190.896C29.7179 194.64 30.3651 198.847 29.753 202.965Z" fill="white"/>
<path d="M84.151 203.203H14.996L14.9802 202.969C14.9407 202.387 14.0582 188.64 18.5122 183.735C18.9541 183.217 19.4996 182.797 20.1135 182.503C20.7275 182.208 21.3964 182.045 22.077 182.025C24.9802 181.942 26.8047 183.03 28.2765 183.902C31.0502 185.548 32.8823 186.635 39.5449 178.401C46.7619 169.48 54.5494 167.561 59.0259 168.628C61.9183 169.318 63.9118 171.267 64.4951 173.975C65.0489 176.54 64.8717 178.95 64.7301 180.887C64.5786 182.959 64.4592 184.596 65.3103 185.338C66.0223 185.957 67.4386 186.013 69.7722 185.515C74.5184 184.502 81.1426 185.368 84.467 189.664C86.2555 191.975 87.6648 196.176 84.2206 203.064L84.151 203.203ZM15.4679 202.701H83.8397C86.4062 197.494 86.4865 193.095 84.0695 189.972C81.0196 186.031 74.6213 184.994 69.877 186.006C67.3413 186.547 65.8308 186.458 64.98 185.717C63.9394 184.81 64.0672 183.063 64.2286 180.852C64.3678 178.948 64.5406 176.577 64.0035 174.083C63.4624 171.571 61.6055 169.761 58.9088 169.118C54.5751 168.085 47.0036 169.979 39.9352 178.718C33.0002 187.289 30.9106 186.051 28.0198 184.334C26.5298 183.451 24.8386 182.449 22.0909 182.527C21.4781 182.546 20.8761 182.694 20.3238 182.96C19.7715 183.227 19.2811 183.605 18.884 184.073C14.8821 188.481 15.3702 200.842 15.4683 202.701H15.4679Z" fill="#2F2E41"/>
<path d="M310.113 203.482H241.998L241.985 203.101L238.732 110.082H313.378L310.113 203.482ZM242.762 202.691H309.349L312.559 110.873H239.551L242.762 202.691Z" fill="#3F3D56"/>
<path d="M258.245 127.317H253.064V191.43H258.245V127.317Z" fill="#3F3D56"/>
<path d="M278.645 127.317H273.464V191.43H278.645V127.317Z" fill="#3F3D56"/>
<path d="M299.044 127.317H293.863V191.43H299.044V127.317Z" fill="#3F3D56"/>
<path d="M356.662 137.397L356.327 137.186L271.72 83.718L279.059 72.1047L279.393 72.316L364.001 125.784L356.662 137.397ZM272.811 83.4719L356.415 136.306L362.909 126.03L279.305 73.1959L272.811 83.4719Z" fill="#3F3D56"/>
<path d="M336.234 79.4086C333.774 77.8522 330.92 77.034 328.01 77.051C325.099 77.0681 322.255 77.9198 319.814 79.505C317.373 81.0902 315.438 83.3423 314.239 85.9942C313.04 88.6461 312.627 91.5864 313.048 94.4661L317.083 97.0156C316.069 94.6615 315.835 92.0446 316.416 89.5481C316.997 87.0517 318.362 84.8068 320.311 83.1421C322.26 81.4775 324.691 80.4806 327.247 80.2973C329.804 80.1141 332.352 80.7542 334.519 82.1238C336.685 83.4935 338.356 85.5208 339.287 87.9089C340.218 90.297 340.36 92.9205 339.693 95.3951C339.025 97.8698 337.582 100.066 335.576 101.661C333.57 103.257 331.106 104.168 328.545 104.262L332.579 106.812C335.361 105.957 337.84 104.323 339.722 102.102C341.603 99.8815 342.807 97.1676 343.193 94.2827C343.578 91.3979 343.127 88.4631 341.894 85.8266C340.661 83.1901 338.698 80.9627 336.237 79.4086H336.234Z" fill="#3F3D56"/>
<path d="M359.529 202.937H0V203.728H359.529V202.937Z" fill="#3F3D56"/>
<path d="M157.036 197.539H151.276L148.534 175.321H157.038L157.036 197.539Z" fill="#FEB8B8"/>
<path d="M140.167 202.887H158.27V195.893H147.065C145.235 195.893 143.481 196.62 142.187 197.913C140.894 199.207 140.167 200.961 140.167 202.79V202.887Z" fill="#2F2E41"/>
<path d="M155.012 163.111L158.985 167.282L176.962 153.942L171.098 147.786L155.012 163.111Z" fill="#FEB8B8"/>
<path d="M163.078 169.192L155.346 161.079L150.282 165.905L162.774 179.012L162.844 178.946C163.5 178.321 164.026 177.572 164.392 176.744C164.759 175.916 164.959 175.023 164.981 174.118C165.003 173.212 164.846 172.311 164.519 171.466C164.193 170.621 163.703 169.848 163.078 169.192Z" fill="#2F2E41"/>
<path d="M114.918 102.241C114.553 101.654 114.322 100.995 114.24 100.309C114.157 99.6238 114.226 98.9284 114.442 98.2723C114.657 97.6162 115.014 97.0153 115.487 96.512C115.96 96.0086 116.537 95.615 117.178 95.3588L139.794 37.7207L148.609 42.9989L123.487 98.2928C123.846 99.3991 123.786 100.599 123.32 101.664C122.854 102.729 122.013 103.587 120.956 104.073C119.9 104.56 118.702 104.642 117.589 104.305C116.476 103.967 115.526 103.233 114.918 102.241Z" fill="#FEB8B8"/>
<path d="M200.759 106.372C200.07 106.323 199.4 106.123 198.796 105.787C198.193 105.451 197.671 104.986 197.266 104.426C196.861 103.866 196.585 103.224 196.455 102.546C196.326 101.867 196.346 101.168 196.516 100.499L163.152 48.3417L172.602 44.3074L202.597 97.1186C203.704 97.4766 204.642 98.229 205.231 99.2327C205.821 100.236 206.021 101.422 205.795 102.564C205.568 103.705 204.93 104.724 204.002 105.427C203.073 106.129 201.919 106.466 200.759 106.374V106.372Z" fill="#FEB8B8"/>
<path d="M140.017 96.4696L145.922 184.241L160.035 182.996L162.941 118.24L170.827 146.051L187.846 147.296L181.11 92.3186L140.017 96.4696Z" fill="#2F2E41"/>
<path d="M173.318 141.9L170.826 146.051L153.395 158.089L165.847 164.73C165.847 164.73 189.922 151.447 187.847 147.296L173.318 141.9Z" fill="#2F2E41"/>
<path d="M127.658 60.958L132.571 47.1148C133.664 44.0346 135.357 41.2018 137.552 38.7802C139.747 36.3587 142.401 34.3965 145.359 33.0073C152.008 30.5576 159.24 30.1617 166.118 31.871L167.905 32.3147C172.673 33.4702 177.139 35.6275 181.008 38.6431C184.035 41.0297 186.759 44.0514 187.001 47.3018C187.003 47.3088 187.005 47.3155 187.007 47.322C187.846 50.9972 188.261 70.091 188.261 70.091H180.865L182.034 95.8264L181.94 95.6401C181.94 95.6401 139.281 103.713 139.281 99.5621V72.9957L138.406 63.3766L127.658 60.958Z" fill="#CCCCCC"/>
<path d="M167.476 28.2726C174.005 28.2726 179.298 22.9799 179.298 16.4509C179.298 9.92192 174.005 4.62915 167.476 4.62915C160.947 4.62915 155.654 9.92192 155.654 16.4509C155.654 22.9799 160.947 28.2726 167.476 28.2726Z" fill="#FEB8B8"/>
<path d="M169.247 11.1492L178.426 11.517C179.581 11.5135 180.842 11.4727 181.722 10.726C183.047 9.59913 182.825 7.47281 182.115 5.8844C180.138 1.46168 175.726 -0.12278 170.882 0.00734658C166.038 0.137473 160.963 1.77928 158.354 5.86106C155.746 9.94284 155.041 15.0973 156.023 19.8404C157.159 17.4286 158.908 15.3569 161.095 13.8321C163.281 12.3073 165.83 11.3828 168.486 11.1508L169.247 11.1492Z" fill="#2F2E41"/>
<path d="M223.756 126.782L190.531 103.497C190.223 103.28 190.013 102.949 189.947 102.577C189.882 102.205 189.967 101.823 190.183 101.513L216.26 64.3056C216.477 63.9969 216.808 63.7869 217.18 63.7215C217.551 63.6561 217.934 63.7407 218.243 63.9568L251.468 87.2423C251.776 87.4595 251.986 87.7902 252.052 88.1619C252.117 88.5337 252.033 88.9162 251.817 89.2257L225.74 126.433C225.523 126.742 225.192 126.952 224.82 127.018C224.448 127.083 224.066 126.999 223.756 126.782Z" fill="#F3525A"/>
<path d="M231.228 101.516L211.732 87.8524C211.507 87.6944 211.315 87.4935 211.167 87.2613C211.019 87.029 210.918 86.7699 210.871 86.4987C210.823 86.2276 210.829 85.9497 210.889 85.6809C210.948 85.4121 211.061 85.1578 211.219 84.9323C211.377 84.7069 211.577 84.5147 211.81 84.3669C212.042 84.2191 212.301 84.1184 212.572 84.0708C212.843 84.0231 213.121 84.0292 213.39 84.089C213.659 84.1487 213.913 84.2607 214.139 84.4187L233.634 98.0823C234.089 98.4014 234.399 98.8883 234.496 99.4359C234.592 99.9836 234.467 100.547 234.148 101.002C233.829 101.458 233.342 101.768 232.794 101.864C232.246 101.96 231.683 101.835 231.228 101.516Z" fill="white"/>
<path d="M226.754 107.9L207.258 94.2365C207.032 94.0786 206.84 93.8778 206.692 93.6455C206.544 93.4132 206.443 93.154 206.395 92.8827C206.347 92.6114 206.353 92.3333 206.413 92.0644C206.473 91.7955 206.585 91.541 206.743 91.3154C206.901 91.0898 207.102 90.8976 207.334 90.7497C207.567 90.6019 207.826 90.5013 208.098 90.4537C208.369 90.4061 208.647 90.4124 208.916 90.4723C209.185 90.5322 209.439 90.6445 209.665 90.8028L229.16 104.466C229.615 104.786 229.924 105.273 230.02 105.82C230.116 106.367 229.991 106.93 229.672 107.385C229.353 107.84 228.867 108.15 228.319 108.247C227.772 108.343 227.209 108.219 226.754 107.9Z" fill="white"/>
<path d="M222.231 114.353L202.735 100.689C202.51 100.531 202.317 100.33 202.17 100.098C202.022 99.8659 201.921 99.6068 201.873 99.3357C201.826 99.0645 201.832 98.7866 201.892 98.5178C201.951 98.2491 202.063 97.9947 202.221 97.7692C202.379 97.5438 202.58 97.3517 202.813 97.2038C203.045 97.056 203.304 96.9554 203.575 96.9077C203.846 96.86 204.124 96.8662 204.393 96.9259C204.662 96.9856 204.916 97.0976 205.142 97.2557L224.637 110.919C225.092 111.238 225.402 111.725 225.499 112.273C225.595 112.82 225.47 113.384 225.151 113.839C224.832 114.295 224.345 114.605 223.797 114.701C223.249 114.797 222.686 114.672 222.231 114.353Z" fill="white"/>
<path d="M231.172 88.887L223.621 83.5947C223.396 83.4368 223.203 83.2359 223.055 83.0036C222.907 82.7713 222.806 82.5121 222.758 82.2408C222.711 81.9696 222.717 81.6915 222.776 81.4226C222.836 81.1536 222.948 80.8991 223.106 80.6735C223.264 80.4479 223.465 80.2557 223.698 80.1079C223.93 79.96 224.189 79.8594 224.461 79.8118C224.732 79.7642 225.01 79.7706 225.279 79.8305C225.548 79.8904 225.802 80.0027 226.028 80.161L233.579 85.4533C234.034 85.7724 234.344 86.2593 234.441 86.807C234.537 87.3546 234.412 87.918 234.093 88.3734C233.773 88.8287 233.287 89.1386 232.739 89.2349C232.191 89.3312 231.628 89.2061 231.172 88.887Z" fill="white"/>
</g>
<defs>
<clipPath id="clip0_122_2">
<rect width="364" height="203.728" fill="white"/>
</clipPath>
</defs>
</svg>
