<svg width="46" height="46" viewBox="0 0 46 46" fill="none" xmlns="http://www.w3.org/2000/svg">
<rect width="46" height="46" rx="7.07692" fill="white"/>
<path fill-rule="evenodd" clip-rule="evenodd" d="M24.5005 14H21.5005C21.3015 14 21.1108 14.079 20.9701 14.2197C20.8295 14.3603 20.7505 14.5511 20.7505 14.75V15.5H25.2505V14.75C25.2505 14.5511 25.1714 14.3603 25.0308 14.2197C24.8901 14.079 24.6994 14 24.5005 14ZM27.5005 15.5V14.75C27.5005 13.9544 27.1844 13.1913 26.6218 12.6287C26.0592 12.0661 25.2961 11.75 24.5005 11.75H21.5005C20.7048 11.75 19.9417 12.0661 19.3791 12.6287C18.8165 13.1913 18.5005 13.9544 18.5005 14.75V15.5H14.377C14.0786 15.5 13.7924 15.6185 13.5815 15.8295C13.3705 16.0405 13.252 16.3266 13.252 16.625C13.252 16.9234 13.3705 17.2095 13.5815 17.4205C13.7924 17.6315 14.0786 17.75 14.377 17.75H14.845L15.3205 29.1875C15.3688 30.3477 15.8638 31.4442 16.7019 32.2479C17.54 33.0516 18.6563 33.5002 19.8175 33.5H26.185C27.3459 33.4998 28.4618 33.051 29.2996 32.2474C30.1373 31.4437 30.6321 30.3474 30.6805 29.1875L31.1575 17.75H31.6255C31.9238 17.75 32.21 17.6315 32.4209 17.4205C32.6319 17.2095 32.7505 16.9234 32.7505 16.625C32.7505 16.3266 32.6319 16.0405 32.4209 15.8295C32.21 15.6185 31.9238 15.5 31.6255 15.5H27.5005ZM28.9045 17.75H17.0965L17.569 29.093C17.593 29.6732 17.8404 30.2217 18.2594 30.6237C18.6785 31.0257 19.2367 31.2501 19.8175 31.25H26.185C26.7654 31.2497 27.3233 31.0251 27.742 30.6232C28.1608 30.2212 28.408 29.673 28.432 29.093L28.9045 17.75ZM19.6255 20.75V28.25C19.6255 28.5484 19.744 28.8345 19.955 29.0455C20.1659 29.2565 20.4521 29.375 20.7505 29.375C21.0488 29.375 21.335 29.2565 21.5459 29.0455C21.7569 28.8345 21.8755 28.5484 21.8755 28.25V20.75C21.8755 20.4516 21.7569 20.1655 21.5459 19.9545C21.335 19.7435 21.0488 19.625 20.7505 19.625C20.4521 19.625 20.1659 19.7435 19.955 19.9545C19.744 20.1655 19.6255 20.4516 19.6255 20.75ZM25.2505 19.625C25.5488 19.625 25.835 19.7435 26.0459 19.9545C26.2569 20.1655 26.3755 20.4516 26.3755 20.75V28.25C26.3755 28.5484 26.2569 28.8345 26.0459 29.0455C25.835 29.2565 25.5488 29.375 25.2505 29.375C24.9521 29.375 24.6659 29.2565 24.455 29.0455C24.244 28.8345 24.1255 28.5484 24.1255 28.25V20.75C24.1255 20.4516 24.244 20.1655 24.455 19.9545C24.6659 19.7435 24.9521 19.625 25.2505 19.625Z" fill="#E94235"/>
</svg>
