<svg width="50" height="50" viewBox="0 0 50 50" fill="none" xmlns="http://www.w3.org/2000/svg">
<path d="M49.7468 30.2129V15.083V-3.43323e-05L35.6006 0.0468063C27.778 0.0468063 21.1264 0.187328 20.7517 0.32785C20.3301 0.515221 21.6885 2.15469 24.7333 5.1994L29.3706 9.83674H34.6169H39.91V15.1299V20.3761L44.8284 25.2945L49.7468 30.2129Z" fill="white"/>
<path d="M22.2038 10.2115L18.3159 6.27676C16.1612 4.12204 14.2407 2.34205 14.1002 2.34205C13.9128 2.34205 12.5076 3.18521 10.9149 4.26257C4.07603 8.80622 0.0476389 16.3946 0.00079707 24.873C-0.0460447 31.8992 1.96815 36.9113 6.98022 42.1576C16.6296 52.4159 32.5558 52.6501 42.58 42.626C44.1258 41.0802 45.9058 38.8318 46.5147 37.7076L47.6389 35.5997L40.1442 28.105L32.6495 20.6103H25.7638C21.9228 20.6103 18.8312 20.7509 18.8312 20.9382C18.8312 21.1256 22.2506 24.7324 26.4664 28.9482L34.0548 36.5834L32.9774 37.4734C31.4316 38.7381 27.5906 39.8155 24.5927 39.8155C13.9597 39.8155 6.88654 28.1519 11.6176 18.4088C13.1165 15.2704 16.7702 11.9915 19.8149 11.0078L22.2038 10.2115Z" fill="white"/>
</svg>
