<svg width="52" height="52" viewBox="0 0 52 52" fill="none" xmlns="http://www.w3.org/2000/svg">
<rect width="52" height="52" rx="8" fill="white"/>
<path d="M20 16L17 20V34C17 34.5304 17.2107 35.0391 17.5858 35.4142C17.9609 35.7893 18.4696 36 19 36H33C33.5304 36 34.0391 35.7893 34.4142 35.4142C34.7893 35.0391 35 34.5304 35 34V20L32 16H20Z" stroke="#F3525A" stroke-width="2" stroke-linecap="round" stroke-linejoin="round"/>
<path d="M17 20H35" stroke="#F3525A" stroke-width="2" stroke-linecap="round" stroke-linejoin="round"/>
<path d="M30 24C30 25.0609 29.5786 26.0783 28.8284 26.8284C28.0783 27.5786 27.0609 28 26 28C24.9391 28 23.9217 27.5786 23.1716 26.8284C22.4214 26.0783 22 25.0609 22 24" stroke="#F3525A" stroke-width="2" stroke-linecap="round" stroke-linejoin="round"/>
</svg>
