<svg width="94" height="94" viewBox="0 0 94 94" fill="none" xmlns="http://www.w3.org/2000/svg">
<path fill-rule="evenodd" clip-rule="evenodd" d="M47.0014 61.6879C47.7805 61.6879 48.5277 61.3784 49.0785 60.8275C49.6294 60.2766 49.9389 59.5295 49.9389 58.7504V15.7728L56.5189 23.4534C57.0258 24.0455 57.7472 24.412 58.5243 24.4722C59.3014 24.5324 60.0707 24.2815 60.6628 23.7746C61.2548 23.2676 61.6213 22.5463 61.6816 21.7692C61.7418 20.992 61.4908 20.2228 60.9839 19.6307L49.2339 5.92239C48.9581 5.59992 48.6158 5.34101 48.2304 5.16349C47.845 4.98597 47.4257 4.89404 47.0014 4.89404C46.5771 4.89404 46.1578 4.98597 45.7724 5.16349C45.3871 5.34101 45.0447 5.59992 44.7689 5.92239L33.0189 19.6307C32.7679 19.9239 32.5771 20.2636 32.4574 20.6306C32.3377 20.9975 32.2915 21.3844 32.3213 21.7692C32.3511 22.1539 32.4564 22.5291 32.6312 22.8732C32.806 23.2173 33.0469 23.5236 33.3401 23.7746C33.6333 24.0256 33.973 24.2164 34.3399 24.3361C34.7068 24.4558 35.0937 24.502 35.4785 24.4722C35.8633 24.4424 36.2385 24.337 36.5825 24.1622C36.9266 23.9874 37.2329 23.7466 37.4839 23.4534L44.0639 15.7767V58.7504C44.0639 60.3719 45.3799 61.6879 47.0014 61.6879Z" fill="#F3525A"/>
<path d="M62.6673 35.25C59.9178 35.25 58.5431 35.25 57.5522 35.9119C57.1261 36.197 56.7601 36.5629 56.4751 36.989C55.8131 37.9799 55.8131 39.3547 55.8131 42.1042V58.75C55.8131 61.0872 54.8847 63.3287 53.232 64.9814C51.5794 66.634 49.3379 67.5625 47.0006 67.5625C44.6634 67.5625 42.4219 66.634 40.7693 64.9814C39.1166 63.3287 38.1882 61.0872 38.1882 58.75V42.1042C38.1882 39.3547 38.1882 37.9799 37.5262 36.989C37.2412 36.5629 36.8752 36.197 36.4491 35.9119C35.4582 35.25 34.0835 35.25 31.334 35.25C20.2577 35.25 14.7156 35.25 11.2767 38.6927C7.83398 42.1316 7.83398 47.6658 7.83398 58.7461V62.6627C7.83398 73.7469 7.83398 79.2812 11.2767 82.7239C14.7156 86.1667 20.2577 86.1667 31.334 86.1667H62.6673C73.7437 86.1667 79.2857 86.1667 82.7246 82.7239C86.1634 79.2812 86.1673 73.743 86.1673 62.6667V58.75C86.1673 47.6697 86.1673 42.1316 82.7246 38.6927C79.2857 35.25 73.7437 35.25 62.6673 35.25Z" fill="#F3525A"/>
</svg>
