<svg width="486" height="467" viewBox="0 0 386 467" fill="none" xmlns="http://www.w3.org/2000/svg">
<g clip-path="url(#clip0_285_168)">
<path d="M358.269 39.4961H53.7911C42.6218 39.4961 33.5394 48.5785 33.5394 59.7478V268.398C33.5394 279.567 42.6218 288.649 53.7911 288.649H358.269C369.438 288.649 378.521 279.567 378.521 268.398V59.7477C378.521 48.5784 369.438 39.4961 358.269 39.4961Z" fill="#F2F2F2"/>
<path d="M325.236 55.5676H20.7578C9.58855 55.5676 0.506134 64.65 0.506134 75.8193V284.469C0.506134 295.639 9.58855 304.721 20.7578 304.721H325.236C336.405 304.721 345.488 295.639 345.488 284.469V75.8193C345.488 64.65 336.405 55.5676 325.236 55.5676ZM343.358 223.058C343.358 266.983 307.75 302.591 263.825 302.591H20.7578C10.7492 302.591 2.63565 294.478 2.63565 284.469V75.8193C2.63565 65.8107 10.7492 57.6971 20.7578 57.6971H325.236C335.245 57.6971 343.358 65.8107 343.358 75.8193V223.058Z" fill="#3F3D56"/>
<path d="M43.9974 259.504L42.1955 258.369C43.3668 256.507 44.5756 254.703 45.7869 253.005L47.5203 254.243C46.3323 255.906 45.1475 257.676 43.9974 259.504Z" fill="#CCCCCC"/>
<path d="M55.7394 244.327L54.2151 242.841C57.4644 239.511 60.8843 236.652 64.3791 234.344L65.5531 236.121C62.1846 238.345 58.8827 241.106 55.7394 244.327ZM108.866 230.886C106.323 230.886 104.007 230.56 102.272 230.277L102.616 228.175C104.374 228.463 106.49 228.756 108.866 228.756C110.964 228.756 113.027 228.526 115.171 228.051L115.63 230.131C113.334 230.639 111.121 230.886 108.866 230.886ZM77.0018 230.604L76.3613 228.573C78.6489 227.852 81.0186 227.311 83.4044 226.965C85.4533 226.669 87.4123 226.525 89.3926 226.525H89.5236V228.655H89.3926C87.5153 228.655 85.6566 228.791 83.7096 229.073C81.4371 229.402 79.1797 229.917 77.0018 230.604ZM127.76 224.45L126.399 222.812C129.338 220.371 131.444 217.42 133.674 214.295L134.564 213.052L136.292 214.296L135.408 215.532C133.095 218.772 130.91 221.833 127.76 224.45ZM144.838 204.925L143.528 203.245C146.398 201.006 149.641 199.191 153.442 197.697C154.089 197.442 154.708 197.215 155.302 197.013L155.989 199.028C155.424 199.221 154.837 199.437 154.221 199.679C150.614 201.097 147.545 202.812 144.838 204.925ZM170.547 197.528C169.83 197.528 169.151 197.521 168.498 197.514L168.523 195.384C169.19 195.392 169.887 195.394 170.624 195.399C173.13 195.399 176.62 195.327 181.407 194.773L181.653 196.888C176.707 197.461 173.162 197.521 170.547 197.528ZM194.607 194.739L194.184 192.652C198.009 191.879 202.459 190.958 206.864 189.822L207.396 191.883C202.941 193.033 198.459 193.96 194.607 194.739ZM219.94 187.846L219.144 185.871C223.414 184.15 227.121 182.209 230.479 179.936L231.672 181.699C228.189 184.057 224.351 186.068 219.94 187.846ZM241.456 172.63L239.728 171.385C240.323 170.561 240.836 169.756 241.333 168.979C242.799 166.683 244.315 164.308 247.926 161.394L248.179 161.192L249.498 162.863L249.264 163.05C245.923 165.747 244.565 167.874 243.127 170.125C242.615 170.927 242.085 171.757 241.456 172.63ZM260.56 156.659L259.783 154.676C263.579 153.188 267.865 151.99 272.524 151.116L272.917 153.21C268.389 154.059 264.232 155.22 260.56 156.659Z" fill="#CCCCCC"/>
<path d="M285.933 151.646L285.8 149.521C287.87 149.391 290.033 149.306 292.231 149.266L292.269 151.396C290.103 151.434 287.971 151.519 285.933 151.646Z" fill="#CCCCCC"/>
<path d="M67.7436 78.6421H37.8664C36.3651 78.6421 35.1406 79.8666 35.1406 81.3679C35.1406 82.8798 36.3651 84.1043 37.8664 84.1043H67.7436C69.2449 84.1043 70.4694 82.8798 70.4694 81.3679C70.4694 79.8666 69.2449 78.6421 67.7436 78.6421Z" fill="#E6E6E6"/>
<path d="M117.787 78.6421H87.9101C86.4088 78.6421 85.1843 79.8666 85.1843 81.3679C85.1843 82.8798 86.4088 84.1043 87.9101 84.1043H117.787C119.289 84.1043 120.513 82.8798 120.513 81.3679C120.513 79.8666 119.289 78.6421 117.787 78.6421Z" fill="#E6E6E6"/>
<path d="M167.831 78.6421H137.954C136.452 78.6421 135.228 79.8666 135.228 81.3679C135.228 82.8798 136.452 84.1043 137.954 84.1043H167.831C169.332 84.1043 170.557 82.8798 170.557 81.3679C170.557 79.8666 169.332 78.6421 167.831 78.6421Z" fill="#E6E6E6"/>
<path d="M306.624 257.872H35.1107V260.001H306.624V257.872Z" fill="#E6E6E6"/>
<path d="M292.282 102.417C272.956 102.917 258.54 108.603 249.404 119.293C246.029 123.254 244.655 126.374 243.207 129.675C241.77 132.933 240.3 136.287 236.882 140.663V137.043C239.001 133.934 240.14 131.336 241.258 128.812C242.77 125.362 244.208 122.104 247.785 117.92C257.326 106.74 272.275 100.809 292.218 100.287L292.282 102.417Z" fill="#CCCCCC"/>
<path d="M243.207 129.675C241.77 132.933 240.3 136.287 236.882 140.663C236.478 141.185 236.041 141.728 235.573 142.292C223.243 156.954 206.771 161.767 193.525 165.642C192.695 165.887 191.886 166.111 191.098 166.324C179.321 169.518 172.869 169.401 168.067 169.326C163.244 169.241 160.06 169.188 154.364 172.446C143.918 178.398 139.638 187.108 135.496 195.53C131.226 204.197 127.202 212.385 116.937 216.229C109.814 218.891 104.81 217.571 99.5179 216.186C94.9713 214.983 86.7772 185.368 79.5218 181.049C64.5406 184.19 55.4369 233.148 44.0759 259.362L42.1168 258.51C53.7759 231.636 63.38 182.263 79.0745 178.962C86.07 177.493 95.2802 212.864 100.061 214.121C105.023 215.43 109.697 216.655 116.192 214.227C125.668 210.692 129.331 203.228 133.579 194.593C137.668 186.288 142.3 176.876 153.299 170.593C159.506 167.048 163.116 167.112 168.099 167.197C172.848 167.282 179.258 167.389 191.098 164.12C191.694 163.949 192.301 163.779 192.929 163.598C205.898 159.807 222.029 155.091 233.933 140.929C235.104 139.534 236.073 138.246 236.882 137.043C239.001 133.934 240.14 131.336 241.258 128.812C242.77 125.363 244.655 126.374 243.207 129.675Z" fill="#F3525A"/>
<path d="M129.662 373.27C128.819 370.335 127.375 367.832 125.657 366.046L119.414 337.585L105.805 340.919L113.603 369.431C113.09 371.843 113.193 374.723 114.036 377.658C115.961 384.363 121.02 388.816 125.335 387.604C129.65 386.393 131.587 379.975 129.662 373.27Z" fill="#FFB6B6"/>
<path d="M127.779 186.574C127.779 186.574 106.288 186.134 100.823 201.785C95.8489 216.03 89.9524 255.167 93.14 257.429L106.708 353.774L126.055 351.115L121.09 235.516L127.779 186.574Z" fill="#F3525A"/>
<path d="M227.3 365.412L223.488 466.564H172.912L170.867 421.237L161.881 466.564H107.674L114.435 388.645L121.42 372.258L126.148 361.153L227.3 365.412Z" fill="#2F2E41"/>
<path d="M186.839 167.367L151.702 165.238L139.989 180.144L114.435 189.727L126.148 303.656L120.824 371.801C120.824 371.801 195.357 431.427 227.3 365.412L218.781 285.555L220.911 192.921L196.422 182.274L186.839 167.367Z" fill="#F3525A"/>
<path d="M254.483 141.452C254.864 145.144 254.38 148.615 253.265 151.399L259.118 186.335L242.413 188.634L238.274 152.947C236.614 150.45 235.43 147.151 235.049 143.459C234.178 135.026 237.823 127.741 243.189 127.186C248.556 126.632 253.612 133.019 254.483 141.452Z" fill="#FFB6B6"/>
<path d="M225.385 196.921C219.626 187.078 205.34 186.15 198.942 195.59C197.193 198.171 197.68 201.072 197.263 204.557C195.49 219.354 223.844 263.077 243.463 268.111C246.037 268.771 247.504 271.548 250.102 272.107C257.8 273.761 264.967 267.651 264.552 259.789L259.222 158.948L236.834 166.584L238.267 218.939L225.385 196.921Z" fill="#F3525A"/>
<path d="M172.917 162.482C190.01 162.482 203.867 148.625 203.867 131.532C203.867 114.439 190.01 100.582 172.917 100.582C155.823 100.582 141.966 114.439 141.966 131.532C141.966 148.625 155.823 162.482 172.917 162.482Z" fill="#FFB6B6"/>
<path d="M201.745 108.805C201.479 108.869 205.819 104.639 206.004 104.546C210.263 102.417 205.887 123.233 202.81 122.647C195.24 121.21 191.971 118.356 189.032 125.479C188.212 127.46 187.701 129.696 186.104 131.112C183.911 133.039 180.269 132.879 178.48 135.179C177.043 137.032 177.458 139.758 178.523 141.845C179.588 143.942 181.206 145.72 182.175 147.861C183.261 150.267 178.629 157.923 176.862 162.224V162.235L176.851 162.26C176.382 163.388 175.266 160.138 174.087 159.814C172.677 159.425 170.6 162.755 168.355 162.15C168.344 162.15 168.333 162.139 168.323 162.139C166.182 161.543 163.797 160.904 161.434 160.265H161.423C154.768 158.455 153.086 161.053 152.766 160.978L148.635 156.656C147.217 155.623 147.378 152.291 146.378 151.396C145.56 150.664 143.522 152.355 142.921 151.651C139.976 148.202 139.298 144.751 137.562 137.937C135.975 131.708 132.685 113.064 139.446 112.223C145.824 111.425 141.161 102.545 147.581 102.875C147.198 101.256 147.911 99.5206 149.072 98.3281C150.222 97.1249 151.755 96.3795 153.299 95.7407C160.912 92.6316 159.645 89.9592 167.673 91.7692C168.472 90.6512 180.067 91.3965 181.515 91.7692C181.621 91.7904 177.927 92.6743 183.644 91.7692C183.431 93.0789 187.052 93.6538 186.839 94.9635C187.637 93.888 196.219 100.064 196.422 101.352C196.688 102.96 194.26 102.14 195.879 102.385C196.837 102.534 198.477 104.482 198.317 105.451C199.009 104.514 199.701 103.588 200.404 102.651C200.531 102.662 200.649 102.683 200.776 102.704C204.013 103.322 200.302 113.903 200.436 110.605C200.681 104.546 204.972 108.092 201.745 108.805Z" fill="#2F2E41"/>
<path d="M320.317 273.536C320.555 274.123 321.378 274.123 321.616 273.535C323.279 269.437 325.646 264.847 328.221 261.339C328.633 260.777 328.065 260.027 327.409 260.264L321.891 262.26V228.096H320.043V262.261L314.522 260.264C313.867 260.027 313.299 260.777 313.711 261.339C316.286 264.847 318.653 269.437 320.317 273.536Z" fill="#3F3D56"/>
<path d="M356.508 308.712C356.33 309.321 356.974 309.832 357.526 309.521C361.377 307.345 366.086 305.223 370.283 304.077C370.955 303.893 370.977 302.952 370.317 302.73L364.753 300.862L386 274.108L384.553 272.959L363.306 299.713L360.225 294.715C359.859 294.122 358.947 294.357 358.921 295.053C358.756 299.401 357.755 304.468 356.508 308.712Z" fill="#3F3D56"/>
<path d="M339.224 331.511H303.319C301.09 331.511 299.276 329.698 299.276 327.468C294.529 313.593 294.623 299.997 299.276 286.664C299.276 284.434 301.09 282.621 303.319 282.621H339.224C341.453 282.621 343.267 284.434 343.267 286.664V327.468C343.267 329.698 341.453 331.511 339.224 331.511Z" fill="#E6E6E6"/>
<path d="M311.012 283.825C305.196 283.825 300.481 288.54 300.481 294.357V326.603C300.481 328.648 302.139 330.307 304.185 330.307H324.04C333.994 330.307 342.062 322.238 342.062 312.285V287.529C342.062 285.484 340.404 283.825 338.358 283.825H311.012Z" fill="white"/>
<path d="M329.633 295.684H312.823C312.399 295.684 312.054 295.339 312.054 294.915C312.054 294.491 312.399 294.146 312.823 294.146H329.633C330.057 294.146 330.402 294.491 330.402 294.915C330.402 295.339 330.057 295.684 329.633 295.684Z" fill="#E6E6E6"/>
<path d="M329.633 312.073H312.823C312.399 312.073 312.054 311.728 312.054 311.304C312.054 310.88 312.399 310.536 312.823 310.536H329.633C330.057 310.536 330.402 310.88 330.402 311.304C330.402 311.728 330.057 312.073 329.633 312.073Z" fill="#E6E6E6"/>
<path d="M338.654 303.884H303.802C303.379 303.884 303.034 303.539 303.034 303.115C303.034 302.691 303.379 302.346 303.802 302.346H338.654C339.078 302.346 339.422 302.691 339.422 303.115C339.422 303.539 339.078 303.884 338.654 303.884Z" fill="#E6E6E6"/>
<path d="M339.065 318.737H324.523C324.099 318.737 323.754 318.392 323.754 317.968C323.754 317.544 324.099 317.2 324.523 317.2H339.065C339.489 317.2 339.834 317.544 339.834 317.968C339.834 318.392 339.489 318.737 339.065 318.737Z" fill="#E6E6E6"/>
<path d="M13.2704 26.3234C20.5994 26.3234 26.5407 20.5072 26.5407 13.3326C26.5407 6.15797 20.5994 0.341797 13.2704 0.341797C5.94135 0.341797 0 6.15797 0 13.3326C0 20.5072 5.94135 26.3234 13.2704 26.3234Z" fill="#F3525A"/>
<path d="M119.653 8.88843H48.2242C45.7737 8.88843 43.78 6.89468 43.78 4.44421C43.78 1.99375 45.7737 0 48.2242 0H119.653C122.104 0 124.098 1.99375 124.098 4.44421C124.098 6.89468 122.104 8.88843 119.653 8.88843Z" fill="#F2F2F2"/>
<path d="M175.397 23.9304H48.2242C45.7737 23.9304 43.78 21.9367 43.78 19.4862C43.78 17.0357 45.7737 15.042 48.2242 15.042H175.397C177.847 15.042 179.841 17.0357 179.841 19.4862C179.841 21.9367 177.847 23.9304 175.397 23.9304Z" fill="#F2F2F2"/>
</g>
<defs>
<clipPath id="clip0_285_168">
<rect width="386" height="466.564" fill="white"/>
</clipPath>
</defs>
</svg>
