<svg width="556" height="422" viewBox="0 0 556 422" fill="none" xmlns="http://www.w3.org/2000/svg">
<g clip-path="url(#clip0_285_47)">
<path d="M513.742 383.603C495.558 397.451 473.406 411.478 451.626 418.092C445.347 420.055 438.868 421.308 432.31 421.828C426.179 422.321 420.009 421.842 414.027 420.41C398.308 416.5 383.728 409.653 369.621 401.654C365.012 399.036 360.456 396.298 355.927 393.501C348.534 388.932 341.214 384.203 333.874 379.587C332.775 378.888 331.683 378.202 330.584 377.522H330.577C328.805 376.41 327.029 375.313 325.249 374.232C324.936 374.039 324.623 373.853 324.303 373.659C320.939 371.621 317.518 369.63 314.039 367.685C313.613 367.452 313.186 367.212 312.76 366.979C306.029 363.245 299.111 359.859 292.033 356.835C287.384 354.877 282.675 353.112 277.919 351.606H277.912C276.094 351.034 274.269 350.494 272.437 350.001C266.945 348.494 261.348 347.399 255.693 346.724C247.9 345.781 240.018 345.843 232.241 346.911C231.715 346.984 231.195 347.057 230.669 347.144C209.622 350.514 190.413 361.877 169.272 364.554C168.586 364.641 167.907 364.721 167.221 364.781C166.928 364.807 166.635 364.841 166.342 364.861C160.198 365.387 154.016 365.235 147.905 364.408C130.835 362.157 114.21 355.17 99.2436 346.365C64.2559 325.777 35.882 294.133 18.6312 257.486C15.6689 251.206 13.0388 244.774 10.7519 238.217C4.35769 220.036 0.836407 200.969 0.314778 181.703C-1.30373 114.858 36.6813 47.7929 96.3196 17.5608C155.965 -12.6714 234.426 -2.67393 282.528 43.77C311.708 71.944 328.592 110.122 350.552 144.231C372.512 178.333 403.723 210.909 443.979 215.878C464.487 218.409 485.947 213.514 505.603 219.881C516.486 223.411 525.771 230.165 533.25 238.77C538.279 244.61 542.487 251.108 545.759 258.086C548.156 263.13 550.102 268.377 551.574 273.765C551.847 274.757 552.1 275.75 552.346 276.742C562.137 316.732 546.491 358.653 513.742 383.603Z" fill="#F2F2F2"/>
<path d="M186.203 311.21H123.594C114.214 311.21 106.61 318.814 106.61 328.195V328.195C106.61 337.575 114.214 345.179 123.594 345.179H186.203C195.584 345.179 203.188 337.575 203.188 328.195C203.188 318.814 195.584 311.21 186.203 311.21Z" fill="#3F3D56"/>
<path d="M167.221 336.52V364.781C160.79 365.403 154.308 365.278 147.905 364.408V336.52H167.221Z" fill="#3F3D56"/>
<path d="M232.241 346.911C231.715 346.984 231.195 347.057 230.669 347.144C209.622 350.514 190.413 361.877 169.272 364.554C168.586 364.641 167.907 364.721 167.221 364.781C166.928 364.807 166.635 364.841 166.342 364.861C161.18 359.805 156.018 354.424 151.169 348.849C148.538 345.832 145.994 342.754 143.603 339.637C137.395 331.591 132.133 323.319 128.656 315.193C129.009 311.297 126.585 302.285 125.426 295.385L125.419 295.378C124.927 292.481 124.66 289.963 124.907 288.345C126.319 279.006 133.945 280.079 136.289 270.927C138.404 269.172 140.656 267.588 143.023 266.192C143.416 265.958 143.816 265.725 144.229 265.492L169.672 247.908L179.396 257.446L194.196 271.966L210.235 287.692L196.62 301.446C196.62 301.446 207.997 314.56 221.298 332.044C224.868 336.74 228.578 341.755 232.241 346.911Z" fill="#2F2E41"/>
<path d="M451.626 336.52V418.092C445.347 420.055 438.868 421.308 432.31 421.828V336.52H451.626Z" fill="#3F3D56"/>
<path d="M476.603 329.86H413.994C404.613 329.86 397.009 337.464 397.009 346.844V346.844C397.009 356.224 404.613 363.828 413.994 363.828H476.603C485.983 363.828 493.587 356.224 493.587 346.844C493.587 337.464 485.983 329.86 476.603 329.86Z" fill="#3F3D56"/>
<path d="M324.303 373.659C320.939 371.621 317.518 369.63 314.039 367.685C313.613 367.452 313.187 367.212 312.76 366.979L315.051 366L321.232 363.342L321.292 363.315L321.359 363.542L324.303 373.659Z" fill="#FFB6B6"/>
<path d="M333.874 379.587C332.775 378.888 331.683 378.202 330.584 377.522H330.577C328.805 376.41 327.029 375.313 325.249 374.232C324.936 374.039 324.623 373.852 324.303 373.659C320.939 371.621 317.518 369.63 314.039 367.685C313.613 367.452 313.187 367.212 312.76 366.979C306.029 363.245 299.111 359.859 292.033 356.835C287.384 354.877 282.675 353.112 277.919 351.606H277.912L274.176 345.352L257.358 317.185L253.661 310.997C253.661 310.997 241.053 314.727 223.209 318.304C216.715 319.609 209.535 320.888 202.002 321.967C193.95 323.113 185.504 324.025 177.112 324.465C173.109 324.678 169.119 324.784 165.19 324.751C155.032 324.684 145.275 323.732 136.729 321.467C133.878 318.79 125.286 315.147 119.132 311.81H119.125C116.541 310.411 114.396 309.072 113.271 307.88C106.783 301.02 112.325 295.671 106.557 288.185C106.479 285.438 106.62 282.69 106.977 279.966C107.036 279.513 107.096 279.053 107.17 278.587L108.988 247.709L122.496 245.924L143.05 243.206L165.316 240.262L167.767 259.458C167.767 259.458 185.105 258.579 207.071 258.872C242.352 259.351 289.562 262.868 295.956 277.961C296.555 279.38 297.155 280.812 297.754 282.244C299.179 285.667 300.591 289.108 301.99 292.567C307.059 305.089 311.894 317.731 316.31 329.68C319.054 337.113 321.639 344.28 324.017 350.987C325.928 356.382 327.7 361.484 329.318 366.18C330.797 370.469 332.136 374.419 333.328 377.962C333.514 378.515 333.694 379.061 333.874 379.587Z" fill="#2F2E41"/>
<path d="M209.618 192.501L166.954 156.267L194.712 128.175L214.077 159.894L285.86 174.126C288.019 172.501 290.603 171.54 293.299 171.359C295.994 171.178 298.684 171.785 301.04 173.107C303.396 174.428 305.317 176.406 306.568 178.8C307.82 181.194 308.347 183.901 308.087 186.59C307.827 189.279 306.79 191.834 305.103 193.943C303.415 196.053 301.151 197.626 298.585 198.471C296.019 199.316 293.263 199.396 290.652 198.701C288.041 198.006 285.689 196.567 283.882 194.559L209.618 192.501Z" fill="#A0616A"/>
<path d="M129.248 108.647C124.318 124.687 171.276 162.943 171.276 162.943C171.798 159.092 198.422 192.299 200.233 189.291C205.381 180.744 211.045 159.617 216.989 156.917C220.387 155.373 200.89 133.909 200.89 133.909C200.89 133.909 190.944 120.751 177.812 104.074C174.187 99.2903 169.41 95.5016 163.927 93.0605C158.444 90.6194 152.432 89.6053 146.451 90.1127C146.451 90.1127 134.179 92.6064 129.248 108.647Z" fill="#3F3D56"/>
<path d="M150.011 73.1368C165.947 73.1368 178.867 60.2174 178.867 44.2807C178.867 28.3439 165.947 15.4246 150.011 15.4246C134.074 15.4246 121.154 28.3439 121.154 44.2807C121.154 60.2174 134.074 73.1368 150.011 73.1368Z" fill="#A0616A"/>
<path d="M164.439 92.2087C170.655 95.9046 174.374 102.695 176.509 109.605C180.461 122.398 182.84 135.625 183.593 148.994L185.848 189.016L213.773 274.236C189.571 294.714 98.6 278.89 98.6 278.89C98.6 278.89 95.8074 277.959 98.6 275.167C101.392 272.374 104.111 274.848 101.319 272.056C98.5261 269.263 100.451 272.374 101.382 269.582C102.313 266.789 101.382 268.651 100.451 267.72C99.5203 266.789 107.657 258.412 107.657 258.412L100.21 209.495L90.9021 110.826C102.072 96.8629 124.537 88.632 124.537 88.632L130.341 78.1838L159.364 80.5057L164.439 92.2087Z" fill="#3F3D56"/>
<path d="M173.798 28.9497C176.04 30.6225 177.702 32.9566 178.549 35.6233C178.874 31.2653 178.894 26.8899 178.61 22.529C178.27 19.4646 176.113 18.7754 173.615 17.9767C171.359 17.2551 168.807 16.4399 168.121 13.4651C159.05 4.64094 143.26 5.0859 132.453 8.16391C126.507 9.85768 123.086 12.0338 122.78 13.3086L122.716 13.5711L122.475 13.6918C117.891 15.9836 116.999 23.2206 117.058 28.8879C117.169 39.5657 120.856 51.6929 122.933 52.6781C123.043 52.7302 123.071 52.7098 123.118 52.6702C126.246 50.1709 130.061 52.8601 131.738 54.322C132.727 47.6856 135.911 41.572 140.782 36.9576C145.654 32.3433 151.931 29.4944 158.611 28.8659C160.792 28.655 162.956 28.2921 165.088 27.7798C166.168 27.5002 167.28 27.3544 168.396 27.3456C170.318 27.3165 172.203 27.8762 173.798 28.9497Z" fill="#2F2E41"/>
<path d="M137.438 235.976L128.611 231.455C128.138 231.118 127.802 230.623 127.664 230.058C127.527 229.494 127.597 228.899 127.861 228.382C128.126 227.866 128.568 227.461 129.106 227.243C129.644 227.025 130.243 227.008 130.793 227.195L139.62 231.715C140.093 232.052 140.429 232.548 140.566 233.112C140.704 233.677 140.634 234.271 140.369 234.788C140.105 235.305 139.663 235.71 139.125 235.928C138.586 236.146 137.988 236.163 137.438 235.976Z" fill="#F3525A"/>
<path d="M107.73 223.864L93.2092 169.806L132.013 162.461L129.926 199.566L180.91 252.063C183.609 251.953 186.282 252.63 188.603 254.013C190.924 255.395 192.792 257.423 193.981 259.849C195.169 262.275 195.625 264.995 195.295 267.676C194.964 270.357 193.861 272.884 192.119 274.948C190.377 277.013 188.072 278.527 185.485 279.304C182.898 280.081 180.14 280.089 177.549 279.326C174.957 278.564 172.644 277.063 170.89 275.009C169.136 272.954 168.018 270.433 167.673 267.754L107.73 223.864Z" fill="#A0616A"/>
<path d="M89.2385 109.196C76.0672 119.594 92.9726 177.756 92.9726 177.756C95.5899 174.883 98.6315 217.336 101.831 215.891C110.923 211.782 127.589 197.615 134.014 198.77C137.688 199.43 133.838 170.69 133.838 170.69C133.838 170.69 133.13 154.21 131.8 133.026C131.534 127.03 129.757 121.198 126.631 116.074C123.506 110.949 119.135 106.699 113.926 103.718C113.926 103.718 102.41 98.7976 89.2385 109.196Z" fill="#3F3D56"/>
<path d="M545.759 258.086L18.6311 257.486C15.6688 251.206 13.0387 244.774 10.7517 238.218L533.25 238.77C538.279 244.61 542.487 251.108 545.759 258.086Z" fill="#3F3D56"/>
<path d="M377.867 397.837C375.143 399.156 372.394 400.428 369.621 401.653C365.012 399.036 360.456 396.298 355.927 393.501L372.725 386.121L377.867 397.837Z" fill="#FFB6B6"/>
<path d="M500.341 306.055C497.61 309.718 494.792 313.308 491.889 316.825C489.211 320.069 486.462 323.25 483.643 326.37C482.477 327.662 481.298 328.947 480.093 330.219C477.875 332.597 475.608 334.935 473.292 337.233C469.123 338.545 460.677 340.856 451.626 343.014C445.038 344.579 438.131 346.065 432.31 347.01C429.051 347.595 425.755 347.947 422.446 348.063C418.516 348.096 414.526 347.99 410.523 347.776C406.008 347.537 401.485 347.164 397.016 346.684C385.393 345.465 374.137 343.567 364.426 341.615C360.869 340.909 357.526 340.19 354.448 339.491C348.62 338.179 343.745 336.953 340.215 336.021C336.239 334.982 333.974 334.309 333.974 334.309L324.016 350.987L318.848 359.639L315.051 366L314.039 367.685C313.613 367.452 313.187 367.212 312.76 366.979C306.029 363.245 299.111 359.859 292.033 356.835C287.384 354.877 282.675 353.112 277.919 351.606H277.912C276.094 351.033 274.269 350.494 272.437 350.001C273.01 348.462 273.59 346.913 274.176 345.352C275.268 342.441 276.383 339.504 277.519 336.54C279.977 330.119 282.521 323.605 285.139 317.125C287.284 311.803 289.468 306.501 291.68 301.273C292.699 298.862 294.77 296.743 297.668 294.885C299.052 294.012 300.497 293.237 301.99 292.567C310.283 288.791 322.498 286.333 335.959 284.755C337.071 284.628 338.19 284.501 339.316 284.382C350.459 283.209 362.281 282.603 373.338 282.323C378.873 282.184 384.214 282.13 389.183 282.124C390.788 282.124 392.349 282.128 393.866 282.137H393.872C397.968 282.157 401.738 282.217 405.055 282.283C405.701 282.297 406.327 282.317 406.94 282.33H406.947C407.36 282.337 407.766 282.35 408.166 282.357C415.419 282.543 419.868 282.77 419.868 282.77L421.593 269.236L421.946 266.505L422.279 263.907V263.9L422.319 263.574L422.592 263.567L427.388 263.474L467.698 262.688L489.717 262.255L486.227 277.215L480.466 301.899C481.052 305.802 500.541 302.745 500.341 306.055Z" fill="#2F2E41"/>
<path d="M382.836 395.372C381.19 396.212 379.532 397.038 377.867 397.837C375.143 399.156 372.394 400.428 369.621 401.653C365.012 399.036 360.456 396.298 355.927 393.501C348.534 388.932 341.214 384.203 333.874 379.587C332.775 378.888 331.683 378.202 330.584 377.522H330.577C327.553 373.033 324.469 368.357 321.359 363.542C321.312 363.475 321.272 363.409 321.232 363.342C320.433 362.116 319.638 360.882 318.848 359.639C313.872 351.846 308.87 343.72 304.015 335.421L316.31 329.68L339.169 319.009L343.112 317.171L354.448 339.491L364.559 359.399L366.81 363.828L382.836 395.372Z" fill="#2F2E41"/>
<path d="M386.281 288.216L444.561 232.012L460.714 186.275L436.888 175.914C424.649 187.638 411.42 224.152 411.42 224.152L371.315 275.175C371.003 275.282 370.691 275.396 370.383 275.532C368.577 276.328 367.006 277.577 365.824 279.158C364.641 280.739 363.886 282.598 363.632 284.556C363.378 286.513 363.633 288.504 364.373 290.334C365.113 292.164 366.313 293.773 367.856 295.004C369.399 296.235 371.234 297.048 373.182 297.363C375.131 297.678 377.129 297.485 378.981 296.802C380.833 296.12 382.479 294.971 383.757 293.467C385.036 291.963 385.905 290.155 386.281 288.216Z" fill="#FFB8B8"/>
<path d="M430.183 181.021L460.406 190.616L460.519 190.597C471.768 188.712 481.102 170.34 486.951 155.26C488.876 150.286 488.84 144.766 486.851 139.818C484.862 134.869 481.068 130.86 476.236 128.601C472.661 126.959 468.697 126.35 464.794 126.843C460.89 127.335 457.202 128.91 454.147 131.388L438.627 144.07L430.183 181.021Z" fill="#F3525A"/>
<path d="M500.219 306.729L500.396 306.495C509.825 293.989 496.929 263.019 494.979 258.528L503.747 255.931L502.218 239.237L501.482 231.793L508.299 225.319L508.322 225.154L513.01 191.79L519.145 169.707C521.457 161.359 521.506 152.546 519.286 144.173C517.067 135.8 512.659 128.168 506.516 122.062L493.976 109.611L478.952 86.0952L453.762 85.4448L444.704 101.536C436.281 103.255 428.727 107.875 423.359 114.591C417.992 121.306 415.15 129.692 415.329 138.288L416.182 181.125L407.144 234.201L406.89 243.842L398.019 253.204L399.659 262.668L393.023 265.311L389.776 278.76C388.536 280.312 380.347 290.662 380.272 293.548C380.261 293.981 380.57 294.408 381.244 294.89C386.545 298.683 416.171 306.9 429.504 301.96C443.707 296.702 499.369 306.577 499.93 306.677L500.219 306.729Z" fill="#F3525A"/>
<path d="M464.157 78.236C482.588 78.236 497.529 63.295 497.529 44.8643C497.529 26.4337 482.588 11.4927 464.157 11.4927C445.727 11.4927 430.786 26.4337 430.786 44.8643C430.786 63.295 445.727 78.236 464.157 78.236Z" fill="#FFB8B8"/>
<path d="M460.086 78.6823C465.254 78.7629 470.419 78.402 475.526 77.6033C480.587 76.5741 491.91 68.2765 495.067 63.2833C497.412 59.5735 498.911 53.7803 499.757 49.574C500.895 44.0077 500.852 38.2643 499.629 32.7159C498.407 27.1674 496.033 21.9375 492.661 17.3649C491.365 15.4523 489.576 13.9255 487.483 12.9461C487.298 12.8735 487.107 12.8093 486.914 12.7543C483.865 11.9521 481.126 10.2568 479.047 7.88623C478.644 7.40674 478.207 6.9569 477.739 6.54022C475.39 4.55764 472.605 3.15917 469.611 2.45913C464.78 1.16605 457.788 2.4496 448.829 6.27784C444.329 8.20122 439.407 7.50514 435.62 6.68376C435.408 6.64274 435.188 6.65804 434.984 6.72815C434.779 6.79827 434.596 6.92074 434.454 7.0834C432.843 8.59581 430.719 9.44239 428.509 9.45299C427.156 9.51242 425.736 11.3864 424.019 13.8301C423.63 14.3848 423.176 15.0323 422.848 15.426L422.804 14.6695L422.038 15.5135C420.835 16.8399 419.987 18.4493 419.573 20.1918C419.159 21.9343 419.193 23.7532 419.671 25.4792C420.149 27.2051 421.056 28.7819 422.308 30.0628C423.56 31.3438 425.116 32.2871 426.83 32.8049C428.191 33.1671 429.586 33.3894 430.993 33.4683C431.845 33.545 432.726 33.6243 433.571 33.7708C436.281 34.3259 438.802 35.5743 440.886 37.3943C442.97 39.2142 444.546 41.5435 445.462 44.1547C445.678 44.7582 446.03 45.304 446.491 45.7498C446.952 46.1957 447.509 46.5296 448.119 46.726C448.73 46.9223 449.377 46.9758 450.011 46.8822C450.646 46.7886 451.25 46.5505 451.778 46.1863C452.658 45.5012 453.69 45.0391 454.787 44.8393C455.884 44.6396 457.013 44.7081 458.078 45.0391C458.998 45.5508 459.714 46.3633 460.107 47.3403C460.583 48.4288 461.374 49.3507 462.376 49.9883C465.806 51.7567 466.043 59.5909 464.811 66.1216C463.624 72.4166 461.276 76.9705 459.103 77.1956C457.43 77.3687 457.238 77.4875 457.117 77.7834L457.009 78.0483L457.197 78.2961C458.121 78.6311 459.107 78.7628 460.086 78.6823Z" fill="#2F2E41"/>
<path d="M438.47 170.931L425.603 145.278C406.926 146.554 369.858 168.149 369.858 168.149L299.723 183.019C297.646 182.22 295.394 181.983 293.196 182.331C290.997 182.679 288.929 183.6 287.2 185.001C285.471 186.403 284.141 188.235 283.345 190.313C282.549 192.392 282.314 194.644 282.665 196.842C283.015 199.04 283.939 201.107 285.342 202.834C286.746 204.562 288.58 205.89 290.659 206.683C292.739 207.477 294.991 207.709 297.188 207.356C299.386 207.002 301.452 206.076 303.178 204.671L392.393 198.276L438.47 170.931Z" fill="#FFB8B8"/>
<path d="M433.28 175.144L466.885 150.17L472.805 128.839C473.952 124.647 473.903 120.217 472.665 116.052C471.426 111.886 469.048 108.149 465.797 105.264C461.364 101.383 455.624 99.3302 449.735 99.5202C443.847 99.7101 438.25 102.129 434.077 106.288C421.431 118.91 407.007 136.52 410.106 148.731L410.137 148.854L433.28 175.144Z" fill="#F3525A"/>
<path d="M391.681 241.941H301.764V253.93H391.681V241.941Z" fill="white"/>
<path d="M161.893 241.941H71.9753V253.93H161.893V241.941Z" fill="white"/>
<path d="M172.392 184.286V241.369C172.393 242.097 172.682 242.794 173.196 243.309C173.711 243.823 174.408 244.112 175.136 244.113H259.727C260.455 244.112 261.152 243.823 261.667 243.309C262.181 242.794 262.47 242.097 262.471 241.369V184.286C262.469 183.559 262.179 182.863 261.665 182.349C261.151 181.835 260.454 181.546 259.727 181.545H175.136C174.409 181.546 173.712 181.835 173.198 182.349C172.684 182.863 172.394 183.559 172.392 184.286Z" fill="#3F3D56"/>
<path d="M174.377 184.996V240.665C174.377 241.054 174.532 241.426 174.807 241.701C175.082 241.976 175.454 242.131 175.843 242.131H259.023C259.412 242.131 259.785 241.976 260.059 241.701C260.334 241.426 260.489 241.054 260.49 240.665V184.996C260.49 184.607 260.335 184.234 260.06 183.958C259.785 183.683 259.412 183.528 259.023 183.527H175.843C175.454 183.528 175.081 183.683 174.806 183.958C174.531 184.234 174.377 184.607 174.377 184.996Z" fill="#F3525A"/>
<path d="M170.623 252.502C170.778 252.696 170.975 252.853 171.199 252.96C171.423 253.068 171.669 253.123 171.917 253.121H262.495C262.743 253.121 262.988 253.065 263.211 252.959C263.435 252.852 263.632 252.697 263.788 252.505C263.944 252.312 264.055 252.087 264.113 251.847C264.172 251.606 264.175 251.355 264.125 251.113L262.719 244.434C262.66 244.162 262.535 243.908 262.354 243.697C262.172 243.485 261.941 243.323 261.681 243.223C261.492 243.149 261.292 243.111 261.089 243.112H173.318C173.116 243.111 172.915 243.149 172.727 243.223C172.466 243.323 172.235 243.485 172.054 243.697C171.872 243.908 171.747 244.162 171.689 244.434L170.283 251.113C170.233 251.355 170.237 251.605 170.296 251.846C170.355 252.086 170.467 252.31 170.623 252.502Z" fill="#2F2E41"/>
<path d="M257.981 245.988H260.121C260.3 245.988 260.446 245.843 260.446 245.663V244.64C260.446 244.46 260.3 244.315 260.121 244.315H257.981C257.802 244.315 257.656 244.46 257.656 244.64V245.663C257.656 245.843 257.802 245.988 257.981 245.988Z" fill="#3F3D56"/>
<path d="M252.402 245.988H254.541C254.721 245.988 254.866 245.843 254.866 245.663V244.64C254.866 244.46 254.721 244.315 254.541 244.315H252.402C252.222 244.315 252.077 244.46 252.077 244.64V245.663C252.077 245.843 252.222 245.988 252.402 245.988Z" fill="#3F3D56"/>
<path d="M246.822 245.988H248.962C249.141 245.988 249.287 245.843 249.287 245.663V244.64C249.287 244.46 249.141 244.315 248.962 244.315H246.822C246.643 244.315 246.497 244.46 246.497 244.64V245.663C246.497 245.843 246.643 245.988 246.822 245.988Z" fill="#3F3D56"/>
<path d="M241.243 245.988H243.382C243.562 245.988 243.707 245.843 243.707 245.663V244.64C243.707 244.46 243.562 244.315 243.382 244.315H241.243C241.063 244.315 240.918 244.46 240.918 244.64V245.663C240.918 245.843 241.063 245.988 241.243 245.988Z" fill="#3F3D56"/>
<path d="M235.663 245.988H237.803C237.982 245.988 238.128 245.843 238.128 245.663V244.64C238.128 244.46 237.982 244.315 237.803 244.315H235.663C235.484 244.315 235.338 244.46 235.338 244.64V245.663C235.338 245.843 235.484 245.988 235.663 245.988Z" fill="#3F3D56"/>
<path d="M230.084 245.988H232.223C232.403 245.988 232.548 245.843 232.548 245.663V244.64C232.548 244.46 232.403 244.315 232.223 244.315H230.084C229.904 244.315 229.759 244.46 229.759 244.64V245.663C229.759 245.843 229.904 245.988 230.084 245.988Z" fill="#3F3D56"/>
<path d="M224.504 245.988H226.644C226.823 245.988 226.969 245.843 226.969 245.663V244.64C226.969 244.46 226.823 244.315 226.644 244.315H224.504C224.325 244.315 224.179 244.46 224.179 244.64V245.663C224.179 245.843 224.325 245.988 224.504 245.988Z" fill="#3F3D56"/>
<path d="M218.925 245.988H221.064C221.244 245.988 221.389 245.843 221.389 245.663V244.64C221.389 244.46 221.244 244.315 221.064 244.315H218.925C218.745 244.315 218.6 244.46 218.6 244.64V245.663C218.6 245.843 218.745 245.988 218.925 245.988Z" fill="#3F3D56"/>
<path d="M213.345 245.988H215.485C215.664 245.988 215.81 245.843 215.81 245.663V244.64C215.81 244.46 215.664 244.315 215.485 244.315H213.345C213.166 244.315 213.02 244.46 213.02 244.64V245.663C213.02 245.843 213.166 245.988 213.345 245.988Z" fill="#3F3D56"/>
<path d="M207.766 245.988H209.905C210.085 245.988 210.23 245.843 210.23 245.663V244.64C210.23 244.46 210.085 244.315 209.905 244.315H207.766C207.586 244.315 207.441 244.46 207.441 244.64V245.663C207.441 245.843 207.586 245.988 207.766 245.988Z" fill="#3F3D56"/>
<path d="M202.186 245.988H204.326C204.505 245.988 204.651 245.843 204.651 245.663V244.64C204.651 244.46 204.505 244.315 204.326 244.315H202.186C202.007 244.315 201.861 244.46 201.861 244.64V245.663C201.861 245.843 202.007 245.988 202.186 245.988Z" fill="#3F3D56"/>
<path d="M196.607 245.988H198.746C198.926 245.988 199.071 245.843 199.071 245.663V244.64C199.071 244.46 198.926 244.315 198.746 244.315H196.607C196.427 244.315 196.282 244.46 196.282 244.64V245.663C196.282 245.843 196.427 245.988 196.607 245.988Z" fill="#3F3D56"/>
<path d="M191.027 245.988H193.167C193.346 245.988 193.492 245.843 193.492 245.663V244.64C193.492 244.46 193.346 244.315 193.167 244.315H191.027C190.848 244.315 190.702 244.46 190.702 244.64V245.663C190.702 245.843 190.848 245.988 191.027 245.988Z" fill="#3F3D56"/>
<path d="M185.448 245.988H187.587C187.767 245.988 187.912 245.843 187.912 245.663V244.64C187.912 244.46 187.767 244.315 187.587 244.315H185.448C185.268 244.315 185.122 244.46 185.122 244.64V245.663C185.122 245.843 185.268 245.988 185.448 245.988Z" fill="#3F3D56"/>
<path d="M179.868 245.988H182.008C182.187 245.988 182.333 245.843 182.333 245.663V244.64C182.333 244.46 182.187 244.315 182.008 244.315H179.868C179.689 244.315 179.543 244.46 179.543 244.64V245.663C179.543 245.843 179.689 245.988 179.868 245.988Z" fill="#3F3D56"/>
<path d="M174.289 245.988H176.428C176.608 245.988 176.753 245.843 176.753 245.663V244.64C176.753 244.46 176.608 244.315 176.428 244.315H174.289C174.109 244.315 173.963 244.46 173.963 244.64V245.663C173.963 245.843 174.109 245.988 174.289 245.988Z" fill="#3F3D56"/>
<path d="M258.047 248.778H260.187C260.366 248.778 260.512 248.632 260.512 248.453V247.429C260.512 247.25 260.366 247.104 260.187 247.104H258.047C257.868 247.104 257.722 247.25 257.722 247.429V248.453C257.722 248.632 257.868 248.778 258.047 248.778Z" fill="#3F3D56"/>
<path d="M252.468 248.778H254.607C254.787 248.778 254.932 248.632 254.932 248.453V247.429C254.932 247.25 254.787 247.104 254.607 247.104H252.468C252.288 247.104 252.143 247.25 252.143 247.429V248.453C252.143 248.632 252.288 248.778 252.468 248.778Z" fill="#3F3D56"/>
<path d="M246.888 248.778H249.028C249.207 248.778 249.353 248.632 249.353 248.453V247.429C249.353 247.25 249.207 247.104 249.028 247.104H246.888C246.709 247.104 246.563 247.25 246.563 247.429V248.453C246.563 248.632 246.709 248.778 246.888 248.778Z" fill="#3F3D56"/>
<path d="M241.309 248.778H243.448C243.628 248.778 243.773 248.632 243.773 248.453V247.429C243.773 247.25 243.628 247.104 243.448 247.104H241.309C241.129 247.104 240.984 247.25 240.984 247.429V248.453C240.984 248.632 241.129 248.778 241.309 248.778Z" fill="#3F3D56"/>
<path d="M235.729 248.778H237.869C238.048 248.778 238.194 248.632 238.194 248.453V247.429C238.194 247.25 238.048 247.104 237.869 247.104H235.729C235.55 247.104 235.404 247.25 235.404 247.429V248.453C235.404 248.632 235.55 248.778 235.729 248.778Z" fill="#3F3D56"/>
<path d="M230.15 248.778H232.289C232.469 248.778 232.614 248.632 232.614 248.453V247.429C232.614 247.25 232.469 247.104 232.289 247.104H230.15C229.97 247.104 229.825 247.25 229.825 247.429V248.453C229.825 248.632 229.97 248.778 230.15 248.778Z" fill="#3F3D56"/>
<path d="M224.57 248.778H226.71C226.889 248.778 227.035 248.632 227.035 248.453V247.429C227.035 247.25 226.889 247.104 226.71 247.104H224.57C224.391 247.104 224.245 247.25 224.245 247.429V248.453C224.245 248.632 224.391 248.778 224.57 248.778Z" fill="#3F3D56"/>
<path d="M218.991 248.778H221.13C221.31 248.778 221.455 248.632 221.455 248.453V247.429C221.455 247.25 221.31 247.104 221.13 247.104H218.991C218.811 247.104 218.666 247.25 218.666 247.429V248.453C218.666 248.632 218.811 248.778 218.991 248.778Z" fill="#3F3D56"/>
<path d="M213.411 248.778H215.551C215.73 248.778 215.876 248.632 215.876 248.453V247.429C215.876 247.25 215.73 247.104 215.551 247.104H213.411C213.232 247.104 213.086 247.25 213.086 247.429V248.453C213.086 248.632 213.232 248.778 213.411 248.778Z" fill="#3F3D56"/>
<path d="M207.832 248.778H209.971C210.151 248.778 210.296 248.632 210.296 248.453V247.429C210.296 247.25 210.151 247.104 209.971 247.104H207.832C207.652 247.104 207.507 247.25 207.507 247.429V248.453C207.507 248.632 207.652 248.778 207.832 248.778Z" fill="#3F3D56"/>
<path d="M202.252 248.778H204.392C204.571 248.778 204.717 248.632 204.717 248.453V247.429C204.717 247.25 204.571 247.104 204.392 247.104H202.252C202.073 247.104 201.927 247.25 201.927 247.429V248.453C201.927 248.632 202.073 248.778 202.252 248.778Z" fill="#3F3D56"/>
<path d="M196.673 248.778H198.812C198.992 248.778 199.137 248.632 199.137 248.453V247.429C199.137 247.25 198.992 247.104 198.812 247.104H196.673C196.493 247.104 196.347 247.25 196.347 247.429V248.453C196.347 248.632 196.493 248.778 196.673 248.778Z" fill="#3F3D56"/>
<path d="M191.093 248.778H193.233C193.412 248.778 193.558 248.632 193.558 248.453V247.429C193.558 247.25 193.412 247.104 193.233 247.104H191.093C190.914 247.104 190.768 247.25 190.768 247.429V248.453C190.768 248.632 190.914 248.778 191.093 248.778Z" fill="#3F3D56"/>
<path d="M185.514 248.778H187.653C187.833 248.778 187.978 248.632 187.978 248.453V247.429C187.978 247.25 187.833 247.104 187.653 247.104H185.514C185.334 247.104 185.188 247.25 185.188 247.429V248.453C185.188 248.632 185.334 248.778 185.514 248.778Z" fill="#3F3D56"/>
<path d="M179.934 248.778H182.073C182.253 248.778 182.399 248.632 182.399 248.453V247.429C182.399 247.25 182.253 247.104 182.073 247.104H179.934C179.754 247.104 179.609 247.25 179.609 247.429V248.453C179.609 248.632 179.754 248.778 179.934 248.778Z" fill="#3F3D56"/>
<path d="M174.355 248.778H176.494C176.674 248.778 176.819 248.632 176.819 248.453V247.429C176.819 247.25 176.674 247.104 176.494 247.104H174.355C174.175 247.104 174.029 247.25 174.029 247.429V248.453C174.029 248.632 174.175 248.778 174.355 248.778Z" fill="#3F3D56"/>
<path d="M211.737 252.126H233.405C233.585 252.126 233.73 251.98 233.73 251.801V250.777C233.73 250.598 233.585 250.452 233.405 250.452H211.737C211.558 250.452 211.412 250.598 211.412 250.777V251.801C211.412 251.98 211.558 252.126 211.737 252.126Z" fill="#3F3D56"/>
</g>
<defs>
<clipPath id="clip0_285_47">
<rect width="554.97" height="421.685" fill="white" transform="translate(0.264893 0.315186)"/>
</clipPath>
</defs>
</svg>
