<svg width="60" height="61" viewBox="0 0 60 61" fill="none" xmlns="http://www.w3.org/2000/svg">
<path d="M0 30.137C0 13.5685 13.4315 0.137024 30 0.137024C46.5685 0.137024 60 13.5685 60 30.137C60 46.7056 46.5685 60.137 30 60.137C13.4315 60.137 0 46.7056 0 30.137Z" fill="#F3525A"/>
<path d="M25.4067 35.0137L25.5467 35.1537C26.2333 35.8092 27.0456 36.137 27.9833 36.137C28.5456 36.137 29.0933 35.9804 29.6267 35.667L27.1867 41.667C27.0933 41.9181 26.9144 42.067 26.65 42.1137C26.3833 42.1604 26.1567 42.0904 25.97 41.9037L24.2333 40.1204L21.7967 40.2137C21.5167 40.2137 21.2978 40.1048 21.14 39.887C20.9844 39.6692 20.9533 39.4348 21.0467 39.1837L23.2033 33.9337C23.5789 34.247 23.97 34.4659 24.3767 34.5904C24.47 34.6215 24.61 34.6526 24.7967 34.6837C25.0789 34.7459 25.2822 34.8559 25.4067 35.0137ZM36.7967 33.9337L38.9533 39.1837C39.0467 39.4348 39.0156 39.6692 38.86 39.887C38.7045 40.1048 38.4856 40.2137 38.2033 40.2137L35.7667 40.1204L34.03 41.9037C33.8433 42.0904 33.6167 42.1604 33.35 42.1137C33.0856 42.067 32.9067 41.9181 32.8133 41.667L30.3767 35.667C30.9078 35.9804 31.4544 36.137 32.0167 36.137C32.9544 36.137 33.7667 35.8092 34.4533 35.1537C34.4845 35.1226 34.5311 35.0759 34.5933 35.0137C34.7178 34.8559 34.9211 34.7459 35.2033 34.6837C35.2656 34.6837 35.3122 34.6759 35.3433 34.6604C35.3744 34.6448 35.4133 34.6292 35.46 34.6137C35.5067 34.5981 35.5622 34.5904 35.6267 34.5904C36.0311 34.4659 36.4211 34.247 36.7967 33.9337ZM33.3267 34.0737C33.0156 34.387 32.6411 34.567 32.2033 34.6137C31.7656 34.6604 31.3589 34.5748 30.9833 34.357C30.7033 34.1681 30.3756 34.0737 30 34.0737C29.6244 34.0737 29.2967 34.1681 29.0167 34.357C28.6411 34.5748 28.2344 34.6604 27.7967 34.6137C27.3589 34.567 26.9844 34.387 26.6733 34.0737C26.5778 33.9804 26.4989 33.9026 26.4367 33.8404C26.3744 33.7781 26.3122 33.7237 26.25 33.677C26.1878 33.6304 26.1256 33.5837 26.0633 33.537C26.0011 33.4881 25.9544 33.4559 25.9233 33.4404C25.8922 33.4248 25.8211 33.4015 25.71 33.3704C25.6011 33.3392 25.5233 33.3159 25.4767 33.3004C25.43 33.2848 25.3367 33.2615 25.1967 33.2304C25.0544 33.1992 24.9367 33.1681 24.8433 33.137C24.1567 32.9504 23.7189 32.497 23.53 31.777C23.3433 31.1215 23.2111 30.7237 23.1333 30.5837C23.0556 30.4415 22.7822 30.1204 22.3133 29.6204C21.7822 29.0892 21.61 28.4804 21.7967 27.7937C21.9833 27.107 22.0767 26.6848 22.0767 26.527C22.0767 26.3715 21.9833 25.9659 21.7967 25.3104C21.61 24.5904 21.7822 23.9648 22.3133 23.4337C22.7822 22.9648 23.0556 22.6604 23.1333 22.5204C23.2111 22.3804 23.3433 21.9659 23.53 21.277C23.7189 20.5904 24.1567 20.137 24.8433 19.917C25.6256 19.7304 26.1411 19.5126 26.39 19.2637C26.4522 19.2304 26.64 19.0426 26.9533 18.7004C27.4844 18.1692 28.0933 17.997 28.78 18.1837C29.4378 18.3704 29.8444 18.4637 30 18.4637C30.1556 18.4637 30.5622 18.3704 31.22 18.1837C31.9067 17.997 32.5156 18.1692 33.0467 18.7004C33.5156 19.2004 33.82 19.4892 33.96 19.567C34.1022 19.6448 34.5011 19.7615 35.1567 19.917C35.8433 20.137 36.2811 20.5904 36.47 21.277C36.5944 21.7459 36.6645 22.0115 36.68 22.0737C36.6956 22.1359 36.7656 22.277 36.89 22.497C37.0145 22.7148 37.1011 22.847 37.15 22.8937C37.1967 22.9404 37.3756 23.1204 37.6867 23.4337C38.2178 23.9648 38.39 24.5904 38.2033 25.3104C38.0167 25.9659 37.9233 26.3715 37.9233 26.527C37.9233 26.6848 38.0167 27.107 38.2033 27.7937C38.39 28.4804 38.2178 29.0892 37.6867 29.6204C37.2178 30.1204 36.9444 30.4415 36.8667 30.5837C36.7889 30.7237 36.6567 31.1215 36.47 31.777C36.2811 32.497 35.8433 32.9504 35.1567 33.137C35.0633 33.1681 34.9378 33.1992 34.78 33.2304C34.6244 33.2615 34.5233 33.2848 34.4767 33.3004C34.43 33.3159 34.3522 33.347 34.2433 33.3937C34.1322 33.4404 34.0533 33.4715 34.0067 33.487C33.96 33.5048 33.8978 33.5448 33.82 33.607C33.7422 33.6692 33.6644 33.7392 33.5867 33.817C33.5089 33.8948 33.4222 33.9804 33.3267 34.0737ZM26.8833 23.2004C26.0233 24.0759 25.5933 25.1381 25.5933 26.387C25.5933 27.6381 26.0233 28.7004 26.8833 29.5737C27.7433 30.4492 28.7822 30.887 30 30.887C31.2178 30.887 32.2567 30.4492 33.1167 29.5737C33.9767 28.7004 34.4067 27.6381 34.4067 26.387C34.4067 25.5737 34.2111 24.8237 33.82 24.137C33.4289 23.4504 32.8978 22.9037 32.2267 22.497C31.5556 22.0904 30.8133 21.887 30 21.887C28.7822 21.887 27.7433 22.3248 26.8833 23.2004Z" fill="white"/>
</svg>
