<svg width="61" height="61" viewBox="0 0 61 61" fill="none" xmlns="http://www.w3.org/2000/svg">
<path d="M0.5 30.7656C0.5 14.1971 13.9315 0.765625 30.5 0.765625C47.0685 0.765625 60.5 14.1971 60.5 30.7656C60.5 47.3342 47.0685 60.7656 30.5 60.7656C13.9315 60.7656 0.5 47.3342 0.5 30.7656Z" fill="white"/>
<path d="M34.7433 29.009C33.57 30.1801 32.1556 30.7656 30.5 30.7656C28.8444 30.7656 27.43 30.1801 26.2567 29.009C25.0856 27.8356 24.5 26.4212 24.5 24.7656C24.5 23.1101 25.0856 21.6956 26.2567 20.5223C27.43 19.3512 28.8444 18.7656 30.5 18.7656C32.1556 18.7656 33.57 19.3512 34.7433 20.5223C35.9144 21.6956 36.5 23.1101 36.5 24.7656C36.5 26.4212 35.9144 27.8356 34.7433 29.009ZM32.75 41.2656L35 32.3123C36.6556 32.3745 38.07 33.0156 39.2433 34.2356C40.4144 35.4534 41 36.8901 41 38.5456V40.5156C41 41.1401 40.7811 41.6712 40.3433 42.109C39.9056 42.5467 39.3744 42.7656 38.75 42.7656H22.25C21.6256 42.7656 21.0944 42.5467 20.6567 42.109C20.2189 41.6712 20 41.1401 20 40.5156V38.5456C20 36.8901 20.5856 35.4534 21.7567 34.2356C22.93 33.0156 24.3444 32.3745 26 32.3123L28.25 41.2656L29.75 34.8923L28.25 32.2656H32.75L31.25 34.8923L32.75 41.2656Z" fill="#F3525A"/>
</svg>
