<svg width="91" height="91" viewBox="0 0 91 91" fill="none" xmlns="http://www.w3.org/2000/svg">
<path d="M0.484375 45.5469C0.484375 20.6941 20.6316 0.546875 45.4844 0.546875C70.3372 0.546875 90.4844 20.6941 90.4844 45.5469C90.4844 70.3997 70.3372 90.5469 45.4844 90.5469C20.6316 90.5469 0.484375 70.3997 0.484375 45.5469Z" fill="#F3525A"/>
<path d="M51.1422 43.2047C49.5777 44.7661 47.6918 45.5469 45.4844 45.5469C43.277 45.5469 41.391 44.7661 39.8266 43.2047C38.2651 41.6402 37.4844 39.7543 37.4844 37.5469C37.4844 35.3395 38.2651 33.4535 39.8266 31.8891C41.391 30.3276 43.277 29.5469 45.4844 29.5469C47.6918 29.5469 49.5777 30.3276 51.1422 31.8891C52.7036 33.4535 53.4844 35.3395 53.4844 37.5469C53.4844 39.7543 52.7036 41.6402 51.1422 43.2047ZM48.4844 59.5469L51.4844 47.6091C53.6918 47.6921 55.5777 48.5469 57.1422 50.1735C58.7036 51.7972 59.4844 53.7128 59.4844 55.9202V58.5469C59.4844 59.3795 59.1925 60.0876 58.6088 60.6713C58.0251 61.255 57.317 61.5469 56.4844 61.5469H34.4844C33.6518 61.5469 32.9436 61.255 32.3599 60.6713C31.7762 60.0876 31.4844 59.3795 31.4844 58.5469V55.9202C31.4844 53.7128 32.2651 51.7972 33.8266 50.1735C35.391 48.5469 37.277 47.6921 39.4844 47.6091L42.4844 59.5469L44.4844 51.0491L42.4844 47.5469H48.4844L46.4844 51.0491L48.4844 59.5469Z" fill="white"/>
</svg>
