<svg width="60" height="61" viewBox="0 0 60 61" fill="none" xmlns="http://www.w3.org/2000/svg">
<path d="M0 30.5373C0 13.9687 13.4315 0.537262 30 0.537262C46.5685 0.537262 60 13.9687 60 30.5373C60 47.1058 46.5685 60.5373 30 60.5373C13.4315 60.5373 0 47.1058 0 30.5373Z" fill="#F3525A"/>
<path d="M28.4533 27.4906C27.4222 28.5217 26.1878 29.0373 24.75 29.0373C23.3122 29.0373 22.0778 28.5217 21.0467 27.4906C20.0155 26.4595 19.5 25.225 19.5 23.7873C19.5 22.3495 20.0155 21.115 21.0467 20.0839C22.0778 19.0528 23.3122 18.5373 24.75 18.5373C26.1878 18.5373 27.4222 19.0528 28.4533 20.0839C29.4844 21.115 30 22.3495 30 23.7873C30 25.225 29.4844 26.4595 28.4533 27.4906ZM26.3433 22.1939C25.9055 21.7562 25.3744 21.5373 24.75 21.5373C24.1255 21.5373 23.5944 21.7562 23.1567 22.1939C22.7189 22.6317 22.5 23.1628 22.5 23.7873C22.5 24.4117 22.7189 24.9428 23.1567 25.3806C23.5944 25.8184 24.1255 26.0373 24.75 26.0373C25.3744 26.0373 25.9055 25.8184 26.3433 25.3806C26.7811 24.9428 27 24.4117 27 23.7873C27 23.1628 26.7811 22.6317 26.3433 22.1939ZM31.5467 33.5839C32.5778 32.5528 33.8122 32.0373 35.25 32.0373C36.6878 32.0373 37.9222 32.5528 38.9533 33.5839C39.9844 34.615 40.5 35.8495 40.5 37.2873C40.5 38.725 39.9844 39.9595 38.9533 40.9906C37.9222 42.0217 36.6878 42.5373 35.25 42.5373C33.8122 42.5373 32.5778 42.0217 31.5467 40.9906C30.5155 39.9595 30 38.725 30 37.2873C30 35.8495 30.5155 34.615 31.5467 33.5839ZM33.6567 38.8806C34.0944 39.3184 34.6255 39.5373 35.25 39.5373C35.8744 39.5373 36.4055 39.3184 36.8433 38.8806C37.2811 38.4428 37.5 37.9117 37.5 37.2873C37.5 36.6628 37.2811 36.1317 36.8433 35.6939C36.4055 35.2562 35.8744 35.0373 35.25 35.0373C34.6255 35.0373 34.0944 35.2562 33.6567 35.6939C33.2189 36.1317 33 36.6628 33 37.2873C33 37.9117 33.2189 38.4428 33.6567 38.8806ZM37.8767 18.5373H39.3767C39.8122 18.5373 40.14 18.7406 40.36 19.1473C40.5778 19.5539 40.5622 19.9439 40.3133 20.3173L23.11 42.0673C22.89 42.3806 22.5933 42.5373 22.22 42.5373H20.6267C20.1889 42.5373 19.86 42.3339 19.64 41.9273C19.4222 41.5206 19.4533 41.1306 19.7333 40.7573L36.9833 19.0073C37.2033 18.6939 37.5011 18.5373 37.8767 18.5373Z" fill="white"/>
</svg>
