<svg width="13" height="13" viewBox="0 0 13 13" fill="none" xmlns="http://www.w3.org/2000/svg">
<path d="M6.8125 12.1875C5.96354 12.1875 5.17969 12.0417 4.46094 11.75C3.7474 11.4583 3.125 11.0495 2.59375 10.5234C2.06771 9.9974 1.65885 9.3776 1.36719 8.66406C1.08073 7.94531 0.9375 7.16406 0.9375 6.32031C0.9375 5.47135 1.08333 4.6901 1.375 3.97656C1.66667 3.25781 2.07552 2.63542 2.60156 2.10938C3.13281 1.58333 3.75521 1.17448 4.46875 0.882812C5.1875 0.591146 5.96875 0.445312 6.8125 0.445312C7.63021 0.445312 8.39323 0.59375 9.10156 0.890625C9.8151 1.18229 10.4401 1.59375 10.9766 2.125C11.513 2.65104 11.9323 3.27083 12.2344 3.98438C12.5365 4.69792 12.6875 5.47656 12.6875 6.32031C12.6875 7.16406 12.5417 7.94531 12.25 8.66406C11.9583 9.3776 11.5469 9.9974 11.0156 10.5234C10.4896 11.0495 9.86719 11.4583 9.14844 11.75C8.4349 12.0417 7.65625 12.1875 6.8125 12.1875ZM7.0625 9.89062C6.01042 9.89062 5.21875 9.56771 4.6875 8.92188C4.15625 8.27083 3.89062 7.40365 3.89062 6.32031C3.89062 5.6276 4.01562 5.01562 4.26562 4.48438C4.52083 3.94792 4.88802 3.52865 5.36719 3.22656C5.85156 2.91927 6.4375 2.76562 7.125 2.76562C7.46875 2.76562 7.8099 2.80729 8.14844 2.89062C8.48698 2.97396 8.80469 3.09115 9.10156 3.24219L8.66406 4.14844C8.40365 4.01302 8.14583 3.91146 7.89062 3.84375C7.63542 3.77083 7.38542 3.73438 7.14062 3.73438C6.47917 3.73438 5.96615 3.96615 5.60156 4.42969C5.23698 4.88802 5.05469 5.51823 5.05469 6.32031C5.05469 7.15365 5.21875 7.79427 5.54688 8.24219C5.88021 8.6901 6.40365 8.91406 7.11719 8.91406C7.3776 8.91406 7.65625 8.88021 7.95312 8.8125C8.25521 8.74479 8.54167 8.65625 8.8125 8.54688V9.5C8.55729 9.61458 8.29427 9.70833 8.02344 9.78125C7.7526 9.85417 7.43229 9.89062 7.0625 9.89062ZM6.8125 11.3906C7.50521 11.3906 8.15365 11.2656 8.75781 11.0156C9.36719 10.7656 9.90104 10.4141 10.3594 9.96094C10.8177 9.5026 11.1771 8.96615 11.4375 8.35156C11.6979 7.73177 11.8281 7.05469 11.8281 6.32031C11.8281 5.6224 11.7031 4.96875 11.4531 4.35938C11.2083 3.75 10.862 3.21094 10.4141 2.74219C9.96615 2.27344 9.4349 1.90885 8.82031 1.64844C8.21094 1.38281 7.54167 1.25 6.8125 1.25C6.08333 1.25 5.41146 1.375 4.79688 1.625C4.1875 1.875 3.65625 2.22917 3.20312 2.6875C2.75521 3.14062 2.40625 3.67708 2.15625 4.29688C1.91146 4.91146 1.78906 5.58594 1.78906 6.32031C1.78906 7.01823 1.91146 7.67448 2.15625 8.28906C2.40104 8.89844 2.7474 9.4375 3.19531 9.90625C3.64844 10.3698 4.17969 10.7344 4.78906 11C5.40365 11.2604 6.07812 11.3906 6.8125 11.3906Z" fill="#F6F6F6"/>
</svg>
