<svg width="61" height="61" viewBox="0 0 61 61" fill="none" xmlns="http://www.w3.org/2000/svg">
<path d="M0.96875 30.137C0.96875 13.5685 14.4002 0.137024 30.9688 0.137024C47.5373 0.137024 60.9688 13.5685 60.9688 30.137C60.9688 46.7056 47.5373 60.137 30.9688 60.137C14.4002 60.137 0.96875 46.7056 0.96875 30.137Z" fill="#F3525A"/>
<path d="M27.9688 27.887V33.137C27.9688 33.5437 27.8199 33.8948 27.5221 34.1904C27.2265 34.4881 26.8754 34.637 26.4688 34.637H25.7188C24.8743 34.637 24.1632 34.3481 23.5854 33.7704C23.0076 33.1926 22.7188 32.4815 22.7188 31.637V29.387C22.7188 28.5426 23.0076 27.8315 23.5854 27.2537C24.1632 26.6759 24.8743 26.387 25.7188 26.387H26.4688C26.8754 26.387 27.2265 26.5359 27.5221 26.8337C27.8199 27.1292 27.9688 27.4804 27.9688 27.887ZM36.2188 34.637H35.4688C35.0621 34.637 34.711 34.4881 34.4154 34.1904C34.1176 33.8948 33.9688 33.5437 33.9688 33.137V27.887C33.9688 27.4804 34.1176 27.1292 34.4154 26.8337C34.711 26.5359 35.0621 26.387 35.4688 26.387H36.2188C37.0632 26.387 37.7743 26.6759 38.3521 27.2537C38.9299 27.8315 39.2188 28.5426 39.2188 29.387V31.637C39.2188 32.4815 38.9299 33.1926 38.3521 33.7704C37.7743 34.3481 37.0632 34.637 36.2188 34.637ZM22.5788 21.677C24.8899 19.317 27.6865 18.137 30.9688 18.137C34.251 18.137 37.0476 19.317 39.3587 21.677C41.6721 24.0348 42.8754 26.8548 42.9688 30.137V37.917C42.9688 39.0748 42.5543 40.067 41.7254 40.8937C40.8988 41.7226 39.9065 42.137 38.7488 42.137H30.2188C29.5943 42.137 29.0632 41.9181 28.6254 41.4804C28.1876 41.0426 27.9688 40.5115 27.9688 39.887C27.9688 39.2626 28.1876 38.7315 28.6254 38.2937C29.0632 37.8559 29.5943 37.637 30.2188 37.637H31.7188C32.3432 37.637 32.8743 37.8559 33.3121 38.2937C33.7499 38.7315 33.9688 39.2626 33.9688 39.887H38.7488C39.2799 39.887 39.741 39.6915 40.1321 39.3004C40.5232 38.9092 40.7188 38.4481 40.7188 37.917C40.7188 32.7926 40.7188 30.1992 40.7188 30.137C40.7188 27.4504 39.7654 25.1537 37.8587 23.247C35.9521 21.3404 33.6554 20.387 30.9688 20.387C28.2821 20.387 25.9854 21.3404 24.0788 23.247C22.1721 25.1537 21.2188 27.4504 21.2188 30.137V30.887C21.2188 31.1048 21.1488 31.2848 21.0087 31.427C20.8665 31.567 20.6865 31.637 20.4688 31.637H19.7188C19.501 31.637 19.321 31.567 19.1788 31.427C19.0388 31.2848 18.9688 31.1048 18.9688 30.887V30.137C19.0621 26.8548 20.2654 24.0348 22.5788 21.677Z" fill="white"/>
</svg>
