<svg width="91" height="91" viewBox="0 0 91 91" fill="none" xmlns="http://www.w3.org/2000/svg">
<path d="M0.453125 45.5469C0.453125 20.6941 20.6003 0.546875 45.4531 0.546875C70.3059 0.546875 90.4531 20.6941 90.4531 45.5469C90.4531 70.3997 70.3059 90.5469 45.4531 90.5469C20.6003 90.5469 0.453125 70.3997 0.453125 45.5469Z" fill="#F3525A"/>
<path d="M31.7643 48.7958L45.4531 36.7335L59.142 48.7958C59.1835 48.8372 59.2354 48.8787 59.2976 48.9202C59.3598 48.9617 59.4117 48.9824 59.4531 48.9824V60.5469C59.4531 60.8372 59.3598 61.0772 59.1731 61.2669C58.9835 61.4535 58.7435 61.5469 58.4531 61.5469H47.4531L44.9554 58.1113L51.4531 54.1113L42.2043 45.5469L45.9554 52.9824L39.4531 56.9824L41.7643 61.5469H32.4531C32.1628 61.5469 31.9228 61.4535 31.7331 61.2669C31.5465 61.0772 31.4531 60.8372 31.4531 60.5469V48.9824C31.4946 48.9824 31.5569 48.9617 31.6398 48.9202C31.7228 48.8787 31.7643 48.8372 31.7643 48.7958ZM59.4531 41.0491L63.142 44.298C63.6398 44.7543 63.6606 45.2328 63.2043 45.7335L61.8887 47.2358C61.4324 47.7335 60.9539 47.7543 60.4531 47.298L46.142 34.6713C45.6828 34.2565 45.2235 34.2565 44.7643 34.6713L30.4531 47.298C29.9524 47.7543 29.4946 47.7335 29.0798 47.2358L27.702 45.7335C27.2457 45.2328 27.2665 44.7543 27.7643 44.298L43.7643 30.1735C44.265 29.7558 44.828 29.5469 45.4531 29.5469C46.0783 29.5469 46.6413 29.7558 47.142 30.1735L53.4531 35.7958V32.5469C53.4531 32.2565 53.5465 32.0165 53.7331 31.8269C53.9228 31.6402 54.1628 31.5469 54.4531 31.5469H58.4531C58.7435 31.5469 58.9835 31.6402 59.1731 31.8269C59.3598 32.0165 59.4531 32.2565 59.4531 32.5469V41.0491Z" fill="white"/>
</svg>
