<svg width="61" height="61" viewBox="0 0 61 61" fill="none" xmlns="http://www.w3.org/2000/svg">
<path d="M0.5 30.9656C0.5 14.397 13.9315 0.965576 30.5 0.965576C47.0685 0.965576 60.5 14.397 60.5 30.9656C60.5 47.5341 47.0685 60.9656 30.5 60.9656C13.9315 60.9656 0.5 47.5341 0.5 30.9656Z" fill="white"/>
<path d="M27.5 34.7156C27.5 35.7467 26.9144 36.63 25.7433 37.3656C24.57 38.0989 23.1556 38.4656 21.5 38.4656C19.8444 38.4656 18.43 38.0989 17.2567 37.3656C16.0856 36.63 15.5 35.7467 15.5 34.7156C15.5 34.7156 15.5 34.7 15.5 34.6689C15.5 34.4178 15.5778 34.1134 15.7333 33.7556C15.8911 33.3956 16.4389 32.2778 17.3767 30.4022C18.1878 28.7778 18.89 27.3722 19.4833 26.1856C19.89 25.3722 20.5622 24.9656 21.5 24.9656C22.4378 24.9656 23.11 25.3722 23.5167 26.1856C24.1411 27.4345 24.86 28.8867 25.6733 30.5422C26.5778 32.3245 27.1089 33.3878 27.2667 33.7322C27.4222 34.0745 27.5 34.3867 27.5 34.6689C27.5 34.7 27.5 34.7156 27.5 34.7156ZM24.8767 33.9656L21.5 27.2156L18.1267 33.9656H24.8767ZM45.5 34.7156C45.5 35.4022 45.2344 36.0356 44.7033 36.6156C44.1722 37.1934 43.4456 37.6456 42.5233 37.9722C41.6011 38.3011 40.5933 38.4656 39.5 38.4656C37.8444 38.4656 36.43 38.0989 35.2567 37.3656C34.0856 36.63 33.5 35.7467 33.5 34.7156C33.5 34.7156 33.5 34.7 33.5 34.6689C33.5 34.4178 33.5778 34.1134 33.7333 33.7556C33.8911 33.3956 34.4389 32.2778 35.3767 30.4022C35.5322 30.0911 35.6489 29.8567 35.7267 29.6989C35.8044 29.5434 35.9289 29.3011 36.1 28.9722C36.2733 28.6456 36.4222 28.3567 36.5467 28.1056C36.6711 27.8567 36.82 27.56 36.9933 27.2156C37.1644 26.8711 37.3278 26.5278 37.4833 26.1856C37.89 25.3722 38.5622 24.9656 39.5 24.9656C40.4378 24.9656 41.11 25.3722 41.5167 26.1856C42.1411 27.4345 42.86 28.8867 43.6733 30.5422C44.5778 32.3245 45.1089 33.3878 45.2667 33.7322C45.4222 34.0745 45.5 34.3867 45.5 34.6689C45.5 34.7 45.5 34.7156 45.5 34.7156ZM39.5 27.2156L36.1267 33.9656H42.8767L39.5 27.2156ZM32 39.9656H40.25C40.4678 39.9656 40.6478 40.0356 40.79 40.1756C40.93 40.3178 41 40.4978 41 40.7156V42.2156C41 42.4334 40.93 42.6134 40.79 42.7556C40.6478 42.8956 40.4678 42.9656 40.25 42.9656H20.75C20.5322 42.9656 20.3522 42.8956 20.21 42.7556C20.07 42.6134 20 42.4334 20 42.2156V40.7156C20 40.4978 20.07 40.3178 20.21 40.1756C20.3522 40.0356 20.5322 39.9656 20.75 39.9656H29V26.1389C27.8133 25.6389 27.0944 24.7478 26.8433 23.4656H20.75C20.5322 23.4656 20.3522 23.3956 20.21 23.2556C20.07 23.1134 20 22.9334 20 22.7156V21.2156C20 20.9978 20.07 20.8178 20.21 20.6756C20.3522 20.5356 20.5322 20.4656 20.75 20.4656H27.5C28.2822 19.4656 29.2822 18.9656 30.5 18.9656C31.7178 18.9656 32.7178 19.4656 33.5 20.4656H40.25C40.4678 20.4656 40.6478 20.5356 40.79 20.6756C40.93 20.8178 41 20.9978 41 21.2156V22.7156C41 22.9334 40.93 23.1134 40.79 23.2556C40.6478 23.3956 40.4678 23.4656 40.25 23.4656H34.1567C33.9056 24.7478 33.1867 25.6389 32 26.1389V39.9656Z" fill="#F3525A"/>
</svg>
