<svg width="59" height="60" viewBox="0 0 60 61" fill="none" xmlns="http://www.w3.org/2000/svg">
<path d="M0 30.9375C0 14.369 13.4315 0.9375 30 0.9375C46.5685 0.9375 60 14.369 60 30.9375C60 47.506 46.5685 60.9375 30 60.9375C13.4315 60.9375 0 47.506 0 30.9375Z" fill="#F3525A"/>
<path d="M36.3767 28.9675L40.9233 30.6575C41.6411 30.9375 42 31.4686 42 32.2509V37.4075C42 38.0942 41.6878 38.5942 41.0633 38.9075L36.3767 41.2509C35.8767 41.4997 35.3767 41.4997 34.8767 41.2509L30 38.8142L25.1267 41.2509C24.6267 41.4997 24.1267 41.4997 23.6267 41.2509L18.9367 38.9075C18.3122 38.5942 18 38.0942 18 37.4075V32.2509C18 31.4686 18.3589 30.9375 19.0767 30.6575L23.6267 28.9675V23.9075C23.6267 23.1253 23.9856 22.5942 24.7033 22.3142L29.39 20.5309C29.7967 20.3753 30.2033 20.3753 30.61 20.5309L35.2967 22.3142C36.0167 22.5942 36.3767 23.1253 36.3767 23.9075V28.9675ZM30.7967 30.5142L34.78 29.0142V25.5942L30.7967 27.2809V30.5142ZM30 22.0309L25.22 23.8142V23.8609L30 25.7809L34.78 23.8609V23.8142L30 22.0309ZM25.1733 39.4675L29.1567 37.4542V33.9375L25.1733 35.7642V39.4675ZM24.3767 34.1709L29.1567 32.2042L24.3767 30.3742L19.5933 32.2042L24.3767 34.1709ZM36.4233 39.4675L40.4067 37.4542V33.9375L36.4233 35.7642V39.4675ZM35.6267 34.1709L40.4067 32.2042L35.6267 30.3742L30.8433 32.2042L35.6267 34.1709Z" fill="white"/>
</svg>
