<svg width="43" height="43" viewBox="0 0 47 47" fill="none" xmlns="http://www.w3.org/2000/svg">
<path d="M1.25 23.2312C1.25 10.8048 11.3236 0.731201 23.75 0.731201C36.1764 0.731201 46.25 10.8048 46.25 23.2312C46.25 35.6576 36.1764 45.7312 23.75 45.7312C11.3236 45.7312 1.25 35.6576 1.25 23.2312Z" fill="#F3525A"/>
<path d="M1.25 23.2312C1.25 10.8048 11.3236 0.731201 23.75 0.731201C36.1764 0.731201 46.25 10.8048 46.25 23.2312C46.25 35.6576 36.1764 45.7312 23.75 45.7312C11.3236 45.7312 1.25 35.6576 1.25 23.2312Z" stroke="#F3525A"/>
<path d="M28.9444 22.2287L28.3972 26.0437H25.4694V35.2312H21.5639V26.0437H18.3972V22.2287H21.5639V19.3587C21.5639 18.264 21.7583 17.3345 22.1472 16.5704C22.538 15.8043 23.0917 15.2229 23.8083 14.8262C24.525 14.4295 25.3518 14.2312 26.2889 14.2312C26.7056 14.2312 27.1481 14.2516 27.6167 14.2925C28.0852 14.3333 28.45 14.3809 28.7111 14.4354L29.1028 14.4762V17.7166H27.5389C26.8093 17.7166 26.2824 17.915 25.9583 18.3116C25.6324 18.7083 25.4694 19.1934 25.4694 19.767V22.2287H28.9444Z" fill="white"/>
</svg>
