<svg width="61" height="61" viewBox="0 0 61 61" fill="none" xmlns="http://www.w3.org/2000/svg">
<path d="M0.5 30.3655C0.5 13.7969 13.9315 0.365479 30.5 0.365479C47.0685 0.365479 60.5 13.7969 60.5 30.3655C60.5 46.934 47.0685 60.3655 30.5 60.3655C13.9315 60.3655 0.5 46.934 0.5 30.3655Z" fill="white"/>
<path d="M21.5 36.3655H41.75C41.9678 36.3655 42.1478 36.4355 42.29 36.5755C42.43 36.7177 42.5 36.8977 42.5 37.1155V38.6155C42.5 38.8333 42.43 39.0133 42.29 39.1555C42.1478 39.2955 41.9678 39.3655 41.75 39.3655H20C19.5933 39.3655 19.2422 39.2166 18.9467 38.9188C18.6489 38.6233 18.5 38.2721 18.5 37.8655V22.1155C18.5 21.8977 18.57 21.7177 18.71 21.5755C18.8522 21.4355 19.0322 21.3655 19.25 21.3655H20.75C20.9678 21.3655 21.1478 21.4355 21.29 21.5755C21.43 21.7177 21.5 21.8977 21.5 22.1155V36.3655ZM34.72 22.8655H40.25C40.4678 22.8655 40.6478 22.9355 40.79 23.0755C40.93 23.2177 41 23.3977 41 23.6155V29.1455C41 29.6455 40.7656 29.9899 40.2967 30.1788C39.8278 30.3655 39.4211 30.2866 39.0767 29.9421L37.5767 28.4421L33.0767 32.9421C32.7656 33.2244 32.4067 33.3655 32 33.3655C31.5933 33.3655 31.2344 33.2244 30.9233 32.9421L27.5 29.4755L25.3433 31.6321C24.9989 32.0055 24.64 32.0055 24.2667 31.6321L23.2333 30.5988C22.86 30.2255 22.86 29.8666 23.2333 29.5221L26.4233 26.2888C26.7344 26.0066 27.0933 25.8655 27.5 25.8655C27.9067 25.8655 28.2656 26.0066 28.5767 26.2888L32 29.7555L35.4233 26.2888L33.9233 24.7888C33.5789 24.4444 33.5 24.0377 33.6867 23.5688C33.8756 23.0999 34.22 22.8655 34.72 22.8655Z" fill="#F3525A"/>
</svg>
