<svg width="60" height="60" viewBox="0 0 410 413" fill="none" xmlns="http://www.w3.org/2000/svg">
<path d="M409.941 248.972V124.293V-3.05176e-05L293.369 0.385986C228.906 0.385986 174.094 1.54395 171.006 2.70197C167.532 4.24597 178.726 17.7561 203.816 42.8462L242.03 81.0605H285.263H328.881V124.679V167.911L369.411 208.441L409.941 248.972Z" fill="#F3525A"/>
<path d="M182.972 84.1485L150.934 51.7243C133.178 33.9682 117.351 19.3001 116.193 19.3001C114.649 19.3001 103.069 26.2481 89.9452 35.1262C33.5888 72.5685 0.392571 135.101 0.0065683 204.967C-0.379434 262.868 16.2187 304.17 57.521 347.402C137.038 431.937 268.278 433.867 350.883 351.262C363.621 338.524 378.289 319.996 383.307 310.732L392.571 293.362L330.811 231.602L269.05 169.841H212.308C180.656 169.841 155.18 170.999 155.18 172.543C155.18 174.087 183.358 203.809 218.098 238.55L280.63 301.468L271.752 308.802C259.014 319.224 227.362 328.102 202.658 328.102C115.035 328.102 56.749 231.988 95.7353 151.699C108.087 125.837 138.196 98.8166 163.286 90.7106L182.972 84.1485Z" fill="#F3525A"/>
</svg>
