<svg width="17" height="16" viewBox="0 0 17 16" fill="none" xmlns="http://www.w3.org/2000/svg">
<path d="M16.8906 6.28222V14.5C16.8906 14.9163 16.7447 15.2704 16.4528 15.5622C16.161 15.8541 15.8069 16 15.3906 16H2.39062C1.97433 16 1.62025 15.8541 1.3284 15.5622C1.03655 15.2704 0.890625 14.9163 0.890625 14.5V6.28222C0.890625 5.78148 1.07803 5.38519 1.45285 5.09333C2.30766 4.42667 4.02618 3.1563 6.6084 1.28222C6.6084 1.28222 6.75433 1.17259 7.04618 0.953333C7.33803 0.734074 7.55729 0.577778 7.70396 0.484444C7.84914 0.391111 8.04174 0.286667 8.28174 0.171111C8.52174 0.057037 8.7247 0 8.89062 0C9.05803 0 9.261 0.057037 9.49951 0.171111C9.73951 0.286667 9.93211 0.391111 10.0773 0.484444C10.224 0.577778 10.4432 0.734074 10.7351 0.953333C11.0269 1.17259 11.1728 1.28222 11.1728 1.28222C13.7551 3.1563 15.4736 4.42667 16.3284 5.09333C16.7032 5.38519 16.8906 5.78148 16.8906 6.28222ZM15.1084 8.78222L14.8284 8.34444C14.7454 8.21852 14.6306 8.19778 14.484 8.28222C13.7551 8.8437 12.6514 9.65556 11.1728 10.7178C11.1728 10.7178 11.0269 10.8274 10.7351 11.0467C10.4432 11.2659 10.224 11.4222 10.0773 11.5156C9.93211 11.6089 9.73951 11.7133 9.49951 11.8289C9.261 11.943 9.05803 12 8.89062 12C8.74544 12 8.58914 11.9689 8.42174 11.9067C8.25581 11.8444 8.08396 11.7556 7.90618 11.64C7.72988 11.5259 7.57359 11.4222 7.43729 11.3289C7.30248 11.2341 7.141 11.1141 6.95285 10.9689C6.76618 10.8237 6.65137 10.74 6.6084 10.7178C5.12988 9.65556 4.02618 8.8437 3.29729 8.28222C3.15062 8.19778 3.03581 8.21852 2.95285 8.34444L2.67285 8.78222C2.62988 8.8237 2.6084 8.86519 2.6084 8.90667C2.6084 8.98963 2.64025 9.06222 2.70396 9.12444C3.45359 9.66667 4.55729 10.4585 6.01507 11.5C6.05655 11.5415 6.19211 11.6511 6.42174 11.8289C6.65137 12.0052 6.83877 12.1459 6.98396 12.2511C7.13063 12.3548 7.32322 12.4741 7.56174 12.6089C7.80174 12.7452 8.03137 12.8444 8.25062 12.9067C8.4684 12.9689 8.68174 13 8.89062 13C9.09951 13 9.31285 12.9689 9.53063 12.9067C9.74988 12.8444 9.97951 12.7452 10.2195 12.6089C10.458 12.4741 10.6506 12.3548 10.7973 12.2511C10.9425 12.1459 11.1299 12.0052 11.3595 11.8289C11.5891 11.6511 11.7247 11.5415 11.7662 11.5C13.224 10.4585 14.3277 9.66667 15.0773 9.12444C15.141 9.06222 15.1728 8.98963 15.1728 8.90667C15.1728 8.86519 15.1514 8.8237 15.1084 8.78222Z" fill="white"/>
</svg>
