<svg width="60" height="60" viewBox="0 0 61 61" fill="none" xmlns="http://www.w3.org/2000/svg">
<path d="M0.96875 30.9375C0.96875 14.369 14.4002 0.9375 30.9688 0.9375C47.5373 0.9375 60.9688 14.369 60.9688 30.9375C60.9688 47.506 47.5373 60.9375 30.9688 60.9375C14.4002 60.9375 0.96875 47.506 0.96875 30.9375Z" fill="#F3525A"/>
<path d="M22.7438 22.7108C25.0082 20.4464 27.7504 19.3141 30.9704 19.3141C34.1882 19.3141 36.9293 20.4464 39.1938 22.7108C41.4604 24.9775 42.5938 27.7197 42.5938 30.9375C42.5938 34.1553 41.4604 36.8975 39.1938 39.1641C36.9293 41.4308 34.1882 42.5641 30.9704 42.5641C27.7504 42.5641 25.0082 41.4308 22.7438 39.1641C20.4771 36.8975 19.3438 34.1553 19.3438 30.9375C19.3438 27.7197 20.4771 24.9775 22.7438 22.7108ZM24.3371 37.5708C26.1638 39.3997 28.3749 40.3141 30.9704 40.3141C33.5638 40.3141 35.7738 39.3997 37.6004 37.5708C39.4293 35.7419 40.3438 33.5308 40.3438 30.9375C40.3438 28.3441 39.4293 26.133 37.6004 24.3041C35.7738 22.4775 33.5638 21.5641 30.9704 21.5641C28.3749 21.5641 26.1638 22.4775 24.3371 24.3041C22.5082 26.133 21.5938 28.3441 21.5938 30.9375C21.5938 33.5308 22.5082 35.7419 24.3371 37.5708ZM34.9071 33.6108C35.0938 33.3597 35.3438 33.2186 35.6571 33.1875C35.9682 33.1564 36.2415 33.2419 36.4771 33.4441C36.7104 33.6486 36.8426 33.9064 36.8738 34.2175C36.9049 34.5308 36.8271 34.7964 36.6404 35.0141C35.1715 36.7964 33.2815 37.6875 30.9704 37.6875C28.6571 37.6875 26.766 36.7964 25.2971 35.0141C25.1104 34.7964 25.0326 34.5308 25.0638 34.2175C25.0949 33.9064 25.2271 33.6486 25.4604 33.4441C25.696 33.2419 25.9693 33.1564 26.2804 33.1875C26.5938 33.2186 26.8438 33.3597 27.0304 33.6108C28.0615 34.8286 29.3749 35.4375 30.9704 35.4375C32.5638 35.4375 33.876 34.8286 34.9071 33.6108ZM25.7204 28.8275L25.2971 29.6241C25.2038 29.813 25.0626 29.8764 24.8738 29.8141C24.656 29.7497 24.5626 29.6086 24.5938 29.3908C24.6249 29.0153 24.7026 28.6564 24.8271 28.3141C24.9538 27.9697 25.1026 27.6564 25.2738 27.3741C25.4449 27.0941 25.6404 26.8597 25.8604 26.6708C26.0782 26.4841 26.3049 26.3364 26.5404 26.2275C26.7738 26.1186 27.0004 26.0641 27.2204 26.0641C27.8138 26.0641 28.3837 26.3841 28.9304 27.0241C29.4771 27.6641 29.7815 28.453 29.8438 29.3908C29.8749 29.6086 29.7893 29.7497 29.5871 29.8141C29.3826 29.8764 29.2338 29.813 29.1404 29.6241L28.7204 28.8275C28.3138 28.1408 27.8138 27.7975 27.2204 27.7975C26.6249 27.7975 26.1249 28.1408 25.7204 28.8275ZM33.0071 27.0241C33.5538 26.3841 34.1249 26.0641 34.7204 26.0641C35.3138 26.0641 35.8837 26.3841 36.4304 27.0241C36.9771 27.6641 37.2815 28.453 37.3438 29.3908C37.3749 29.6086 37.2893 29.7497 37.0871 29.8141C36.8826 29.8764 36.7337 29.813 36.6404 29.6241L36.2204 28.8275C35.8138 28.1408 35.3138 27.7975 34.7204 27.7975C34.1249 27.7975 33.6249 28.1408 33.2204 28.8275L32.7971 29.6241C32.7038 29.813 32.5626 29.8764 32.3738 29.8141C32.156 29.7497 32.0626 29.6086 32.0938 29.3908C32.156 28.453 32.4604 27.6641 33.0071 27.0241Z" fill="white"/>
</svg>
