<svg width="47" height="47" viewBox="0 0 47 47" fill="none" xmlns="http://www.w3.org/2000/svg">
<path d="M1.25 23.2312C1.25 10.8048 11.3236 0.731201 23.75 0.731201C36.1764 0.731201 46.25 10.8048 46.25 23.2312C46.25 35.6576 36.1764 45.7312 23.75 45.7312C11.3236 45.7312 1.25 35.6576 1.25 23.2312Z" fill="#F3525A"/>
<path d="M1.25 23.2312C1.25 10.8048 11.3236 0.731201 23.75 0.731201C36.1764 0.731201 46.25 10.8048 46.25 23.2312C46.25 35.6576 36.1764 45.7312 23.75 45.7312C11.3236 45.7312 1.25 35.6576 1.25 23.2312Z" stroke="#F3525A"/>
<path d="M20.5667 21.3887C21.4389 20.4729 22.5 20.015 23.75 20.015C25 20.015 26.0611 20.4729 26.9333 21.3887C27.8056 22.3045 28.2417 23.4187 28.2417 24.7312C28.2417 26.0437 27.8056 27.1579 26.9333 28.0737C26.0611 28.9895 25 29.4475 23.75 29.4475C22.5 29.4475 21.4389 28.9895 20.5667 28.0737C19.6944 27.1579 19.2583 26.0437 19.2583 24.7312C19.2583 23.4187 19.6944 22.3045 20.5667 21.3887ZM21.6806 26.9041C22.2528 27.5069 22.9426 27.8083 23.75 27.8083C24.5574 27.8083 25.2472 27.5069 25.8194 26.9041C26.3935 26.3033 26.6806 25.579 26.6806 24.7312C26.6806 23.8834 26.3935 23.1591 25.8194 22.5583C25.2472 21.9555 24.5574 21.6541 23.75 21.6541C22.9426 21.6541 22.2528 21.9555 21.6806 22.5583C21.1065 23.1591 20.8194 23.8834 20.8194 24.7312C20.8194 25.579 21.1065 26.3033 21.6806 26.9041ZM29.1611 19.0495C29.3556 19.2556 29.4528 19.5094 29.4528 19.8108C29.4528 20.1102 29.3556 20.3698 29.1611 20.5895C28.9648 20.8073 28.7241 20.9162 28.4389 20.9162C28.1519 20.9162 27.9037 20.8073 27.6944 20.5895C27.487 20.3698 27.3833 20.1102 27.3833 19.8108C27.3833 19.5094 27.487 19.2556 27.6944 19.0495C27.9037 18.8454 28.1519 18.7433 28.4389 18.7433C28.7241 18.7433 28.9648 18.8454 29.1611 19.0495ZM32.4611 20.957C32.487 21.6959 32.5 22.954 32.5 24.7312C32.5 26.5084 32.487 27.7665 32.4611 28.5054C32.3833 30.1737 31.9083 31.4658 31.0361 32.3816C30.1639 33.2975 28.9333 33.7826 27.3444 33.837C26.6407 33.8915 25.4426 33.9187 23.75 33.9187C22.0574 33.9187 20.8593 33.8915 20.1556 33.837C18.5667 33.7554 17.3426 33.2634 16.4833 32.3612C16.1463 32.0326 15.8731 31.6495 15.6639 31.212C15.4565 30.7745 15.3065 30.3506 15.2139 29.9404C15.1231 29.5301 15.0778 29.0518 15.0778 28.5054C15.0259 27.7665 15 26.5084 15 24.7312C15 22.954 15.0259 21.6823 15.0778 20.9162C15.1556 19.2751 15.6241 18.0034 16.4833 17.1012C17.3426 16.1718 18.5667 15.6662 20.1556 15.5845C20.8593 15.5573 22.0574 15.5437 23.75 15.5437C25.4426 15.5437 26.6407 15.5573 27.3444 15.5845C28.9333 15.6662 30.1639 16.165 31.0361 17.0808C31.9083 17.9966 32.3833 19.2887 32.4611 20.957ZM30.5861 30.1445C30.6639 29.9268 30.7287 29.6468 30.7806 29.3045C30.8324 28.9623 30.8713 28.552 30.8972 28.0737C30.925 27.5954 30.9389 27.2055 30.9389 26.9041C30.9389 26.6047 30.9389 26.1808 30.9389 25.6325C30.9389 25.0861 30.9389 24.7788 30.9389 24.7108C30.9389 24.6427 30.9389 24.3423 30.9389 23.8095C30.9389 23.2748 30.9389 22.8577 30.9389 22.5583C30.9389 22.2569 30.925 21.867 30.8972 21.3887C30.8713 20.9104 30.8324 20.5001 30.7806 20.1579C30.7287 19.8156 30.6639 19.5356 30.5861 19.3179C30.2731 18.4701 29.713 17.8819 28.9056 17.5533C28.6981 17.4716 28.4315 17.4036 28.1056 17.3491C27.7796 17.2947 27.3889 17.2538 26.9333 17.2266C26.4778 17.1994 26.113 17.1858 25.8389 17.1858C25.5667 17.1858 25.163 17.1858 24.6278 17.1858C24.0944 17.1858 23.8019 17.1858 23.75 17.1858C23.6981 17.1858 23.412 17.1858 22.8917 17.1858C22.3694 17.1858 21.9657 17.1858 21.6806 17.1858C21.3935 17.1858 21.0222 17.1994 20.5667 17.2266C20.1111 17.2538 19.7204 17.2947 19.3944 17.3491C19.0685 17.4036 18.8019 17.4716 18.5944 17.5533C17.787 17.8819 17.2269 18.4701 16.9139 19.3179C16.8361 19.5356 16.7713 19.8156 16.7194 20.1579C16.6676 20.5001 16.6287 20.9104 16.6028 21.3887C16.5769 21.867 16.5639 22.2501 16.5639 22.5379C16.5639 22.8237 16.5639 23.2476 16.5639 23.8095C16.5639 24.3695 16.5639 24.6768 16.5639 24.7312C16.5639 24.8401 16.5639 25.0929 16.5639 25.4895C16.5639 25.8862 16.5639 26.2148 16.5639 26.4754C16.5639 26.734 16.5704 27.0684 16.5833 27.4787C16.5963 27.889 16.6157 28.238 16.6417 28.5258C16.6676 28.8116 16.7065 29.1052 16.7583 29.4066C16.8102 29.708 16.862 29.954 16.9139 30.1445C17.2528 30.9923 17.813 31.5805 18.5944 31.9091C18.8019 31.9908 19.0685 32.0588 19.3944 32.1133C19.7204 32.1677 20.1111 32.2086 20.5667 32.2358C21.0222 32.2649 21.387 32.2795 21.6611 32.2795C21.9333 32.2795 22.337 32.2795 22.8722 32.2795C23.4056 32.2795 23.6981 32.2795 23.75 32.2795C23.8278 32.2795 24.1204 32.2795 24.6278 32.2795C25.137 32.2795 25.5343 32.2795 25.8194 32.2795C26.1065 32.2795 26.4778 32.2649 26.9333 32.2358C27.3889 32.2086 27.7796 32.1677 28.1056 32.1133C28.4315 32.0588 28.6981 31.9908 28.9056 31.9091C29.713 31.5533 30.2731 30.9651 30.5861 30.1445Z" fill="white"/>
</svg>
