<svg width="91" height="91" viewBox="0 0 91 91" fill="none" xmlns="http://www.w3.org/2000/svg">
<path d="M0.453125 45.5469C0.453125 20.6941 20.6003 0.546875 45.4531 0.546875C70.3059 0.546875 90.4531 20.6941 90.4531 45.5469C90.4531 70.3997 70.3059 90.5469 45.4531 90.5469C20.6003 90.5469 0.453125 70.3997 0.453125 45.5469Z" fill="#F3525A"/>
<path d="M33.4531 53.5469H60.4531C60.7435 53.5469 60.9835 53.6402 61.1731 53.8269C61.3598 54.0165 61.4531 54.2565 61.4531 54.5469V56.5469C61.4531 56.8372 61.3598 57.0772 61.1731 57.2669C60.9835 57.4535 60.7435 57.5469 60.4531 57.5469H31.4531C30.9109 57.5469 30.4428 57.3484 30.0487 56.9513C29.6516 56.5572 29.4531 56.0891 29.4531 55.5469V34.5469C29.4531 34.2565 29.5465 34.0165 29.7331 33.8269C29.9228 33.6402 30.1628 33.5469 30.4531 33.5469H32.4531C32.7435 33.5469 32.9835 33.6402 33.1731 33.8269C33.3598 34.0165 33.4531 34.2565 33.4531 34.5469V53.5469ZM51.0798 35.5469H58.4531C58.7435 35.5469 58.9835 35.6402 59.1731 35.8269C59.3598 36.0165 59.4531 36.2565 59.4531 36.5469V43.9202C59.4531 44.5869 59.1405 45.0461 58.5153 45.298C57.8902 45.5469 57.3479 45.4417 56.8887 44.9824L54.8887 42.9824L48.8887 48.9824C48.4739 49.3587 47.9953 49.5469 47.4531 49.5469C46.9109 49.5469 46.4324 49.3587 46.0176 48.9824L41.4531 44.3602L38.5776 47.2358C38.1183 47.7335 37.6398 47.7335 37.142 47.2358L35.7642 45.858C35.2665 45.3602 35.2665 44.8817 35.7642 44.4224L40.0176 40.1113C40.4324 39.735 40.9109 39.5469 41.4531 39.5469C41.9953 39.5469 42.4739 39.735 42.8887 40.1113L47.4531 44.7335L52.0176 40.1113L50.0176 38.1113C49.5583 37.6521 49.4531 37.1098 49.702 36.4847C49.9539 35.8595 50.4131 35.5469 51.0798 35.5469Z" fill="white"/>
</svg>
