<svg width="43" height="43" viewBox="0 0 47 47" fill="none" xmlns="http://www.w3.org/2000/svg">
<path d="M1.25 23.2312C1.25 10.8048 11.3236 0.731201 23.75 0.731201C36.1764 0.731201 46.25 10.8048 46.25 23.2312C46.25 35.6576 36.1764 45.7312 23.75 45.7312C11.3236 45.7312 1.25 35.6576 1.25 23.2312Z" fill="#F3525A"/>
<path d="M1.25 23.2312C1.25 10.8048 11.3236 0.731201 23.75 0.731201C36.1764 0.731201 46.25 10.8048 46.25 23.2312C46.25 35.6576 36.1764 45.7312 23.75 45.7312C11.3236 45.7312 1.25 35.6576 1.25 23.2312Z" stroke="#F3525A"/>
<path d="M18.9056 20.3416V32.6062H15.2722V20.3416H18.9056ZM17.1083 18.6616C16.5361 18.6616 16.0417 18.4429 15.625 18.0054C15.2083 17.5679 15 17.0477 15 16.445C15 15.8441 15.2083 15.325 15.625 14.8875C16.0417 14.45 16.5361 14.2312 17.1083 14.2312C17.4731 14.2312 17.8185 14.3265 18.1444 14.517C18.4704 14.7095 18.7306 14.9769 18.925 15.3191C19.1213 15.6594 19.2194 16.0279 19.2194 16.4245C19.2194 16.8212 19.1213 17.1906 18.925 17.5329C18.7306 17.8751 18.4704 18.1483 18.1444 18.3525C17.8185 18.5586 17.4731 18.6616 17.1083 18.6616ZM32.5 25.8804V32.6062H28.8667V26.6183C28.8667 26.1536 28.8537 25.7773 28.8278 25.4895C28.8019 25.2037 28.737 24.8761 28.6333 24.5066C28.5296 24.1372 28.3407 23.8562 28.0667 23.6637C27.7926 23.4731 27.4343 23.3779 26.9917 23.3779C26.1324 23.3779 25.5528 23.6647 25.2528 24.2383C24.9546 24.8138 24.8056 25.58 24.8056 26.5366V32.6062H21.1722V20.3416H24.6889V22.0245H24.7278C24.987 21.4781 25.4167 21.0066 26.0167 20.61C26.6148 20.2133 27.3306 20.015 28.1639 20.015C29.0491 20.015 29.7852 20.1579 30.3722 20.4437C30.9574 20.7315 31.4 21.1554 31.7 21.7154C31.9981 22.2773 32.2065 22.8859 32.325 23.5412C32.4417 24.1984 32.5 24.9781 32.5 25.8804Z" fill="white"/>
</svg>
