<svg width="61" height="61" viewBox="0 0 61 61" fill="none" xmlns="http://www.w3.org/2000/svg">
<path d="M0.5 30.4873C0.5 13.9188 13.9315 0.487305 30.5 0.487305C47.0685 0.487305 60.5 13.9188 60.5 30.4873C60.5 47.0558 47.0685 60.4873 30.5 60.4873C13.9315 60.4873 0.5 47.0558 0.5 30.4873Z" fill="white"/>
<path d="M34.7433 28.7306C33.57 29.9017 32.1556 30.4873 30.5 30.4873C28.8444 30.4873 27.43 29.9017 26.2567 28.7306C25.0856 27.5573 24.5 26.1429 24.5 24.4873C24.5 22.8317 25.0856 21.4173 26.2567 20.244C27.43 19.0729 28.8444 18.4873 30.5 18.4873C32.1556 18.4873 33.57 19.0729 34.7433 20.244C35.9144 21.4173 36.5 22.8317 36.5 24.4873C36.5 26.1429 35.9144 27.5573 34.7433 28.7306ZM32.75 40.9873L35 32.034C36.6556 32.0962 38.07 32.7373 39.2433 33.9573C40.4144 35.1751 41 36.6117 41 38.2673V40.2373C41 40.8617 40.7811 41.3929 40.3433 41.8306C39.9056 42.2684 39.3744 42.4873 38.75 42.4873H22.25C21.6256 42.4873 21.0944 42.2684 20.6567 41.8306C20.2189 41.3929 20 40.8617 20 40.2373V38.2673C20 36.6117 20.5856 35.1751 21.7567 33.9573C22.93 32.7373 24.3444 32.0962 26 32.034L28.25 40.9873L29.75 34.614L28.25 31.9873H32.75L31.25 34.614L32.75 40.9873Z" fill="#F3525A"/>
</svg>
