<svg width="91" height="91" viewBox="0 0 91 91" fill="none" xmlns="http://www.w3.org/2000/svg">
<path d="M0.46875 45.5469C0.46875 20.6941 20.6159 0.546875 45.4688 0.546875C70.3216 0.546875 90.4688 20.6941 90.4688 45.5469C90.4688 70.3997 70.3216 90.5469 45.4688 90.5469C20.6159 90.5469 0.46875 70.3997 0.46875 45.5469Z" fill="#F3525A"/>
<path d="M41.4688 50.5469C41.4688 51.9217 40.688 53.0995 39.1265 54.0802C37.5621 55.058 35.6762 55.5469 33.4688 55.5469C31.2613 55.5469 29.3754 55.058 27.811 54.0802C26.2495 53.0995 25.4688 51.9217 25.4688 50.5469C25.4688 50.5469 25.4688 50.5261 25.4688 50.4847C25.4688 50.1498 25.5725 49.7439 25.7799 49.2669C25.9902 48.7869 26.7206 47.2965 27.971 44.7958C29.0525 42.6298 29.9887 40.7558 30.7799 39.1735C31.3221 38.0891 32.2184 37.5469 33.4688 37.5469C34.7191 37.5469 35.6154 38.0891 36.1576 39.1735C36.9902 40.8387 37.9488 42.775 39.0332 44.9824C40.2391 47.3587 40.9473 48.7765 41.1576 49.2358C41.365 49.6921 41.4688 50.1084 41.4688 50.4847C41.4688 50.5261 41.4688 50.5469 41.4688 50.5469ZM37.971 49.5469L33.4688 40.5469L28.971 49.5469H37.971ZM65.4688 50.5469C65.4688 51.4624 65.1147 52.3069 64.4065 53.0802C63.6984 53.8506 62.7295 54.4535 61.4999 54.8891C60.2702 55.3276 58.9265 55.5469 57.4688 55.5469C55.2613 55.5469 53.3754 55.058 51.811 54.0802C50.2495 53.0995 49.4688 51.9217 49.4688 50.5469C49.4688 50.5469 49.4688 50.5261 49.4688 50.4847C49.4688 50.1498 49.5725 49.7439 49.7799 49.2669C49.9902 48.7869 50.7206 47.2965 51.971 44.7958C52.1784 44.3809 52.3339 44.0684 52.4376 43.858C52.5413 43.6506 52.7073 43.3276 52.9354 42.8891C53.1665 42.4535 53.365 42.0684 53.531 41.7335C53.6969 41.4017 53.8954 41.0061 54.1265 40.5469C54.3547 40.0876 54.5725 39.6298 54.7799 39.1735C55.3221 38.0891 56.2184 37.5469 57.4688 37.5469C58.7191 37.5469 59.6154 38.0891 60.1576 39.1735C60.9902 40.8387 61.9487 42.775 63.0332 44.9824C64.2391 47.3587 64.9473 48.7765 65.1576 49.2358C65.365 49.6921 65.4688 50.1084 65.4688 50.4847C65.4688 50.5261 65.4688 50.5469 65.4688 50.5469ZM57.4688 40.5469L52.971 49.5469H61.971L57.4688 40.5469ZM47.4688 57.5469H58.4688C58.7591 57.5469 58.9991 57.6402 59.1888 57.8269C59.3754 58.0165 59.4688 58.2565 59.4688 58.5469V60.5469C59.4688 60.8372 59.3754 61.0772 59.1888 61.2669C58.9991 61.4535 58.7591 61.5469 58.4688 61.5469H32.4688C32.1784 61.5469 31.9384 61.4535 31.7488 61.2669C31.5621 61.0772 31.4688 60.8372 31.4688 60.5469V58.5469C31.4688 58.2565 31.5621 58.0165 31.7488 57.8269C31.9384 57.6402 32.1784 57.5469 32.4688 57.5469H43.4688V39.1113C41.8865 38.4447 40.928 37.2565 40.5932 35.5469H32.4688C32.1784 35.5469 31.9384 35.4535 31.7488 35.2669C31.5621 35.0772 31.4688 34.8372 31.4688 34.5469V32.5469C31.4688 32.2565 31.5621 32.0165 31.7488 31.8269C31.9384 31.6402 32.1784 31.5469 32.4688 31.5469H41.4688C42.5117 30.2135 43.845 29.5469 45.4688 29.5469C47.0925 29.5469 48.4258 30.2135 49.4688 31.5469H58.4688C58.7591 31.5469 58.9991 31.6402 59.1888 31.8269C59.3754 32.0165 59.4688 32.2565 59.4688 32.5469V34.5469C59.4688 34.8372 59.3754 35.0772 59.1888 35.2669C58.9991 35.4535 58.7591 35.5469 58.4688 35.5469H50.3443C50.0095 37.2565 49.051 38.4447 47.4688 39.1113V57.5469Z" fill="white"/>
</svg>
