<svg width="39" height="39" viewBox="0 0 39 39" fill="none" xmlns="http://www.w3.org/2000/svg">
<path d="M5.66667 5.7888C9.44074 2.01472 14.0111 0.127686 19.3778 0.127686C24.7407 0.127686 29.3093 2.01472 33.0833 5.7888C36.8611 9.56658 38.75 14.1369 38.75 19.4999C38.75 24.8629 36.8611 29.4332 33.0833 33.211C29.3093 36.9888 24.7407 38.8777 19.3778 38.8777C14.0111 38.8777 9.44074 36.9888 5.66667 33.211C1.88889 29.4332 0 24.8629 0 19.4999C0 14.1369 1.88889 9.56658 5.66667 5.7888ZM8.32222 30.5555C11.3667 33.6036 15.0519 35.1277 19.3778 35.1277C23.7 35.1277 27.3833 33.6036 30.4278 30.5555C33.4759 27.5073 35 23.8221 35 19.4999C35 15.1777 33.4759 11.4925 30.4278 8.44435C27.3833 5.39991 23.7 3.87769 19.3778 3.87769C15.0519 3.87769 11.3667 5.39991 8.32222 8.44435C5.27407 11.4925 3.75 15.1777 3.75 19.4999C3.75 23.8221 5.27407 27.5073 8.32222 30.5555ZM14.8833 17.5055C14.387 18.0018 13.8019 18.2499 13.1278 18.2499C12.45 18.2499 11.863 18.0018 11.3667 17.5055C10.8741 17.0129 10.6278 16.4277 10.6278 15.7499C10.6278 15.0721 10.8741 14.4869 11.3667 13.9944C11.863 13.4981 12.45 13.2499 13.1278 13.2499C13.8019 13.2499 14.387 13.4981 14.8833 13.9944C15.3796 14.4869 15.6278 15.0721 15.6278 15.7499C15.6278 16.4277 15.3796 17.0129 14.8833 17.5055ZM27.3833 17.5055C26.887 18.0018 26.3019 18.2499 25.6278 18.2499C24.95 18.2499 24.363 18.0018 23.8667 17.5055C23.3741 17.0129 23.1278 16.4277 23.1278 15.7499C23.1278 15.0721 23.3741 14.4869 23.8667 13.9944C24.363 13.4981 24.95 13.2499 25.6278 13.2499C26.3019 13.2499 26.887 13.4981 27.3833 13.9944C27.8796 14.4869 28.1278 15.0721 28.1278 15.7499C28.1278 16.4277 27.8796 17.0129 27.3833 17.5055ZM25.9389 23.9555C26.25 23.5369 26.6667 23.3018 27.1889 23.2499C27.7074 23.1981 28.163 23.3406 28.5556 23.6777C28.9444 24.0184 29.1648 24.4481 29.2167 24.9666C29.2685 25.4888 29.1389 25.9314 28.8278 26.2944C26.3796 29.2647 23.2296 30.7499 19.3778 30.7499C15.5222 30.7499 12.3704 29.2647 9.92222 26.2944C9.61111 25.9314 9.48148 25.4888 9.53333 24.9666C9.58519 24.4481 9.80556 24.0184 10.1944 23.6777C10.587 23.3406 11.0426 23.1981 11.5611 23.2499C12.0833 23.3018 12.5 23.5369 12.8111 23.9555C14.5296 25.9851 16.7185 26.9999 19.3778 26.9999C22.0333 26.9999 24.2204 25.9851 25.9389 23.9555Z" fill="#F3525A"/>
</svg>
