<svg width="17" height="16" viewBox="0 0 17 16" fill="none" xmlns="http://www.w3.org/2000/svg">
<path d="M12.3124 9.81333L15.8124 11.3133C16.125 11.4378 16.2812 11.6667 16.2812 12C16.2812 12.0622 16.2709 12.1141 16.2501 12.1556L15.499 15.4067C15.4783 15.5104 15.4316 15.6089 15.359 15.7022C15.2864 15.797 15.1983 15.8704 15.0946 15.9222C14.9894 15.9741 14.885 16 14.7812 16C10.7812 16 7.36495 14.5837 4.53236 11.7511C1.69829 8.91704 0.28125 5.5 0.28125 1.5C0.28125 1.3963 0.307176 1.29185 0.359028 1.18667C0.41088 1.08296 0.484213 0.994815 0.579028 0.922222C0.672361 0.84963 0.77088 0.802963 0.874583 0.782222L4.12569 0.0311111C4.16718 0.0103704 4.21903 0 4.28125 0C4.61458 0 4.84347 0.156296 4.96792 0.468889L6.46792 3.96889C6.51088 4.05185 6.53236 4.14593 6.53236 4.25111C6.53236 4.47926 6.43829 4.67704 6.25014 4.84444L4.37458 6.37556C4.85458 7.41704 5.63606 8.47926 6.71903 9.56222C7.80199 10.6452 8.86421 11.4267 9.90569 11.9067L11.4368 10.0311C11.6042 9.84444 11.8027 9.75111 12.0324 9.75111C12.1361 9.75111 12.2294 9.77185 12.3124 9.81333Z" fill="white"/>
</svg>
