<svg width="60" height="60" viewBox="0 0 91 91" fill="none" xmlns="http://www.w3.org/2000/svg">
<path d="M0.46875 45.5469C0.46875 20.6941 20.6159 0.546875 45.4688 0.546875C70.3216 0.546875 90.4688 20.6941 90.4688 45.5469C90.4688 70.3997 70.3216 90.5469 45.4688 90.5469C20.6159 90.5469 0.46875 70.3997 0.46875 45.5469Z" fill="#F3525A"/>
<path d="M46.5932 47.5469H61.4687C61.7591 47.5469 62.0095 47.6609 62.2199 47.8891C62.4273 48.1202 62.5102 48.3809 62.4687 48.6713C61.968 52.1291 60.4465 55.0669 57.9043 57.4847C57.448 57.9024 56.9902 57.8817 56.531 57.4224L46.5932 47.5469ZM60.4687 43.4847C60.4687 43.775 60.3754 44.0254 60.1887 44.2358C59.9991 44.4432 59.7591 44.5469 59.4687 44.5469H45.4687V30.5469C45.4687 30.2565 45.5724 30.0165 45.7799 29.8269C45.9902 29.6402 46.2406 29.5469 46.531 29.5469C50.2406 29.7958 53.4287 31.2535 56.0954 33.9202C58.7621 36.5869 60.2199 39.775 60.4687 43.4847ZM42.4687 32.7335V47.5469L52.2199 57.298C52.4273 57.5054 52.5206 57.7661 52.4999 58.0802C52.4791 58.3913 52.3443 58.6298 52.0954 58.7958C49.5947 60.5884 46.7813 61.5054 43.6554 61.5469C39.6554 61.5884 36.1562 60.1824 33.1576 57.3291C30.1562 54.4758 28.5932 51.0491 28.4687 47.0491C28.3443 43.215 29.5221 39.8284 32.0021 36.8891C34.4791 33.9528 37.5932 32.2343 41.3443 31.7335C41.6347 31.6921 41.8954 31.7647 42.1265 31.9513C42.3547 32.1409 42.4687 32.4017 42.4687 32.7335Z" fill="white"/>
</svg>
