<svg width="61" height="61" viewBox="0 0 61 61" fill="none" xmlns="http://www.w3.org/2000/svg">
<path d="M0.96875 30.5373C0.96875 13.9687 14.4002 0.537262 30.9688 0.537262C47.5373 0.537262 60.9688 13.9687 60.9688 30.5373C60.9688 47.1058 47.5373 60.5373 30.9688 60.5373C14.4002 60.5373 0.96875 47.1058 0.96875 30.5373Z" fill="#F3525A"/>
<path d="M35.2121 28.7806C34.0388 29.9517 32.6243 30.5373 30.9688 30.5373C29.3132 30.5373 27.8988 29.9517 26.7254 28.7806C25.5543 27.6073 24.9688 26.1928 24.9688 24.5373C24.9688 22.8817 25.5543 21.4673 26.7254 20.2939C27.8988 19.1228 29.3132 18.5373 30.9688 18.5373C32.6243 18.5373 34.0388 19.1228 35.2121 20.2939C36.3832 21.4673 36.9688 22.8817 36.9688 24.5373C36.9688 26.1928 36.3832 27.6073 35.2121 28.7806ZM33.2188 41.0373L35.4688 32.0839C37.1243 32.1462 38.5387 32.7873 39.7121 34.0073C40.8832 35.225 41.4688 36.6617 41.4688 38.3173V40.2873C41.4688 40.9117 41.2499 41.4428 40.8121 41.8806C40.3743 42.3184 39.8432 42.5373 39.2188 42.5373H22.7188C22.0943 42.5373 21.5632 42.3184 21.1254 41.8806C20.6876 41.4428 20.4688 40.9117 20.4688 40.2873V38.3173C20.4688 36.6617 21.0543 35.225 22.2254 34.0073C23.3988 32.7873 24.8132 32.1462 26.4688 32.0839L28.7188 41.0373L30.2188 34.6639L28.7188 32.0373H33.2188L31.7188 34.6639L33.2188 41.0373Z" fill="white"/>
</svg>
