<svg width="25" height="25" viewBox="0 0 25 25" fill="none" xmlns="http://www.w3.org/2000/svg">
<path d="M18.5 12.0719H22.25C22.8744 12.0719 23.4056 12.2908 23.8433 12.7286C24.2811 13.1663 24.5 13.6975 24.5 14.3219V20.3219C24.5 20.9463 24.2811 21.4775 23.8433 21.9152C23.4056 22.353 22.8744 22.5719 22.25 22.5719H16.25C15.6256 22.5719 15.0944 22.353 14.6567 21.9152C14.2189 21.4775 14 20.9463 14 20.3219V9.0719C14 7.00968 14.7344 5.24412 16.2033 3.77523C17.6722 2.30634 19.4378 1.5719 21.5 1.5719H21.8767C22.1878 1.5719 22.4533 1.68079 22.6733 1.89857C22.8911 2.11857 23 2.38523 23 2.69857V4.94857C23 5.25968 22.8911 5.52523 22.6733 5.74523C22.4533 5.96301 22.1878 6.0719 21.8767 6.0719H21.5C20.6867 6.0719 19.9833 6.36857 19.39 6.9619C18.7967 7.55523 18.5 8.25857 18.5 9.0719V12.0719ZM5 12.0719H8.75C9.37444 12.0719 9.90556 12.2908 10.3433 12.7286C10.7811 13.1663 11 13.6975 11 14.3219V20.3219C11 20.9463 10.7811 21.4775 10.3433 21.9152C9.90556 22.353 9.37444 22.5719 8.75 22.5719H2.75C2.12556 22.5719 1.59444 22.353 1.15667 21.9152C0.718889 21.4775 0.5 20.9463 0.5 20.3219V9.0719C0.5 7.00968 1.23444 5.24412 2.70333 3.77523C4.17222 2.30634 5.93778 1.5719 8 1.5719H8.37667C8.68778 1.5719 8.95333 1.68079 9.17333 1.89857C9.39111 2.11857 9.5 2.38523 9.5 2.69857V4.94857C9.5 5.25968 9.39111 5.52523 9.17333 5.74523C8.95333 5.96301 8.68778 6.0719 8.37667 6.0719H8C7.18667 6.0719 6.48333 6.36857 5.89 6.9619C5.29667 7.55523 5 8.25857 5 9.0719V12.0719Z" fill="#F3525A"/>
</svg>
