<svg width="47" height="47" viewBox="0 0 47 47" fill="none" xmlns="http://www.w3.org/2000/svg">
<path d="M1.25 23.2312C1.25 10.8048 11.3236 0.731201 23.75 0.731201C36.1764 0.731201 46.25 10.8048 46.25 23.2312C46.25 35.6576 36.1764 45.7312 23.75 45.7312C11.3236 45.7312 1.25 35.6576 1.25 23.2312Z" fill="#F3525A"/>
<path d="M1.25 23.2312C1.25 10.8048 11.3236 0.731201 23.75 0.731201C36.1764 0.731201 46.25 10.8048 46.25 23.2312C46.25 35.6576 36.1764 45.7312 23.75 45.7312C11.3236 45.7312 1.25 35.6576 1.25 23.2312Z" stroke="#F3525A"/>
<path d="M31.6806 19.467C31.7065 19.5759 31.7194 19.7529 31.7194 19.9979C31.7194 21.4484 31.4593 22.8912 30.9389 24.3262C30.4167 25.7612 29.6806 27.0737 28.7306 28.2637C27.7806 29.4537 26.55 30.4172 25.0389 31.1541C23.5278 31.893 21.8611 32.2625 20.0389 32.2625C17.7481 32.2625 15.6519 31.6198 13.75 30.3345C14.037 30.3618 14.363 30.3754 14.7278 30.3754C16.6278 30.3754 18.3333 29.76 19.8444 28.5291C18.9333 28.5291 18.1324 28.2491 17.4417 27.6891C16.7509 27.1291 16.2759 26.4252 16.0167 25.5775C16.2759 25.6047 16.5231 25.6183 16.7583 25.6183C17.1231 25.6183 17.488 25.5775 17.8528 25.4958C17.2269 25.3577 16.6667 25.0836 16.1722 24.6733C15.6778 24.265 15.287 23.7662 15 23.177C14.713 22.5898 14.5694 21.954 14.5694 21.2695V21.1879C15.1435 21.5437 15.7556 21.7352 16.4056 21.7625C15.1815 20.8875 14.5694 19.6848 14.5694 18.1545C14.5694 17.3884 14.7648 16.6631 15.1556 15.9787C16.1722 17.3184 17.4157 18.385 18.8861 19.1783C20.3583 19.9716 21.9278 20.4091 23.5944 20.4908C23.5426 20.1622 23.5167 19.8345 23.5167 19.5079C23.5167 18.3315 23.9139 17.3194 24.7083 16.4716C25.5009 15.6238 26.4574 15.2 27.5778 15.2C28.7759 15.2 29.7787 15.6511 30.5861 16.5533C31.5231 16.3627 32.3954 16.0215 33.2028 15.5295C32.8898 16.5406 32.2907 17.333 31.4056 17.9066C32.187 17.7977 32.9685 17.5654 33.75 17.2095C33.1778 18.0845 32.488 18.837 31.6806 19.467Z" fill="white"/>
</svg>
