<svg width="61" height="61" viewBox="0 0 61 61" fill="none" xmlns="http://www.w3.org/2000/svg">
<path d="M0.5 30.0872C0.5 13.5186 13.9315 0.0871582 30.5 0.0871582C47.0685 0.0871582 60.5 13.5186 60.5 30.0872C60.5 46.6557 47.0685 60.0872 30.5 60.0872C13.9315 60.0872 0.5 46.6557 0.5 30.0872Z" fill="white"/>
<path d="M21.5 36.0872H41.75C41.9678 36.0872 42.1478 36.1572 42.29 36.2972C42.43 36.4394 42.5 36.6194 42.5 36.8372V38.3372C42.5 38.5549 42.43 38.7349 42.29 38.8772C42.1478 39.0172 41.9678 39.0872 41.75 39.0872H20C19.5933 39.0872 19.2422 38.9383 18.9467 38.6405C18.6489 38.3449 18.5 37.9938 18.5 37.5872V21.8372C18.5 21.6194 18.57 21.4394 18.71 21.2972C18.8522 21.1572 19.0322 21.0872 19.25 21.0872H20.75C20.9678 21.0872 21.1478 21.1572 21.29 21.2972C21.43 21.4394 21.5 21.6194 21.5 21.8372V36.0872ZM34.72 22.5872H40.25C40.4678 22.5872 40.6478 22.6572 40.79 22.7972C40.93 22.9394 41 23.1194 41 23.3372V28.8672C41 29.3672 40.7656 29.7116 40.2967 29.9005C39.8278 30.0872 39.4211 30.0083 39.0767 29.6638L37.5767 28.1638L33.0767 32.6638C32.7656 32.946 32.4067 33.0872 32 33.0872C31.5933 33.0872 31.2344 32.946 30.9233 32.6638L27.5 29.1972L25.3433 31.3538C24.9989 31.7272 24.64 31.7272 24.2667 31.3538L23.2333 30.3205C22.86 29.9472 22.86 29.5883 23.2333 29.2438L26.4233 26.0105C26.7344 25.7283 27.0933 25.5872 27.5 25.5872C27.9067 25.5872 28.2656 25.7283 28.5767 26.0105L32 29.4772L35.4233 26.0105L33.9233 24.5105C33.5789 24.166 33.5 23.7594 33.6867 23.2905C33.8756 22.8216 34.22 22.5872 34.72 22.5872Z" fill="#F3525A"/>
</svg>
