<svg width="60" height="60" viewBox="0 0 91 91" fill="none" xmlns="http://www.w3.org/2000/svg">
<path d="M0.484375 45.5469C0.484375 20.6941 20.6316 0.546875 45.4844 0.546875C70.3372 0.546875 90.4844 20.6941 90.4844 45.5469C90.4844 70.3997 70.3372 90.5469 45.4844 90.5469C20.6316 90.5469 0.484375 70.3997 0.484375 45.5469Z" fill="#F3525A"/>
<path d="M33.4844 53.5469H60.7333C61.234 53.5469 61.4844 53.7972 61.4844 54.298V56.7958C61.4844 57.2965 61.234 57.5469 60.7333 57.5469H30.2355C29.7347 57.5469 29.4844 57.2965 29.4844 56.7958V34.298C29.4844 33.7972 29.7347 33.5469 30.2355 33.5469H32.7333C33.234 33.5469 33.4844 33.7972 33.4844 34.298V53.5469ZM47.4844 43.0491L52.7955 39.5469C52.9644 39.3809 53.1629 39.3291 53.391 39.3913C53.6192 39.4535 53.7747 39.5884 53.8577 39.7958L59.4844 51.5469H35.4844V45.0491L40.9199 35.9824C41.0473 35.775 41.2459 35.6609 41.5155 35.6402C41.7851 35.6195 42.0044 35.7128 42.1733 35.9202L47.4844 43.0491Z" fill="white"/>
</svg>
