<svg width="90" height="90" viewBox="0 0 257 207" fill="none" xmlns="http://www.w3.org/2000/svg">
<path d="M225.469 44.3273C222.049 40.711 218.628 37.225 216.119 34.7163C213.871 32.4683 213.871 32.4358 213.871 32.3706C216.999 34.977 219.996 37.7137 222.863 40.6133C227.848 45.598 232.442 50.941 236.612 56.6425C237.035 57.2289 237.491 57.8479 237.915 58.4344V58.4995C233.81 53.7754 229.803 48.9211 225.502 44.3273" fill="#1173FF"/>
<path d="M225.469 58.7923C215.565 49.4746 211.688 41.9486 214.881 41.4599C220.159 40.6128 237.198 59.0204 237.947 66.416C237.491 69.9672 226.707 59.9652 225.469 58.7923Z" fill="#1173FF"/>
<path d="M225.47 87.1668C214.36 79.9341 210.451 67.2606 216.901 65.6968C223.808 64.0026 237.394 77.7838 237.948 87.0365C237.492 93.4873 228.565 89.1867 225.47 87.1668Z" fill="#1173FF"/>
<path d="M225.469 125.414C213.773 122.546 210.124 106.68 217.748 101.826C224.98 97.2321 237.426 106.55 237.947 116.943C237.556 124.762 230.421 126.586 225.469 125.381" fill="#00214C"/>
<path d="M225.47 167.018C215.175 169.331 210.744 157.472 216.12 148.675C222.375 138.445 235.831 140.824 237.72 150.011C237.851 150.63 237.883 151.477 237.916 152.096C237.492 160.437 230.227 165.91 225.438 166.985" fill="#1173FF"/>
<path d="M248.927 80.8151C243.693 70.7371 241.032 65.4158 240.945 64.851C240.945 64.851 241.076 64.7533 241.141 64.7207C245.278 67.8158 255.737 91.1754 256.453 96.5185C256.258 96.2579 255.921 95.5954 255.443 94.5311C254.173 91.5989 252.413 87.5591 248.895 80.8151" fill="#F3525A"/>
<path d="M248.927 94.8241C239.218 80.261 240.521 76.9053 242.118 77.3288C246.94 78.632 256.029 97.9193 256.453 104.272C256.453 104.403 256.42 104.565 256.323 104.696C256.094 104.696 255.541 104.761 248.894 94.8241" fill="#F3525A"/>
<path d="M248.927 116.523C240.847 110.007 238.99 99.7445 243.128 99.1907C248.243 98.5065 256.127 111.701 256.453 117.956C256.192 122.322 248.992 116.588 248.927 116.523Z" fill="#F3525A"/>
<path d="M248.927 143.17C241.564 143.691 238.535 132.712 243.128 128.02C247.722 123.296 256.16 129.226 256.453 135.709C256.225 140.466 251.827 142.974 248.927 143.17Z" fill="#00214C"/>
<path d="M153.339 4.57685C149.039 3.63204 138.776 1.38403 136.789 0.797595C136.789 0.797595 136.789 0.765002 136.789 0.732422C140.535 1.02564 144.249 1.48177 147.898 2.0682C155.164 3.24107 162.233 5.00034 169.075 7.28092C170.281 7.67188 171.486 8.09546 172.691 8.55158H172.757C171.486 8.48642 161.484 6.33612 153.339 4.54424" fill="#00214C"/>
<path d="M153.338 25.2012C140.111 22.2365 132.585 14.8409 138.97 11.1268C147.278 6.27245 171.713 12.2997 172.756 21.5198C172.071 27.2538 160.473 26.8302 153.338 25.2012Z" fill="#00214C"/>
<path d="M153.338 65.6324C138.579 62.798 131.411 49.082 140.99 41.947C150.861 34.6166 171.875 41.3606 172.755 55.0766C172.103 64.7854 160.994 67.0985 153.338 65.5999" fill="#00214C"/>
<path d="M153.338 120.137C136.918 118.02 130.597 97.7226 143.532 88.6655C154.381 81.0744 171.974 87.8836 172.788 103.848C172.137 116.717 161.027 121.115 153.371 120.137" fill="#00214C"/>
<path d="M153.339 179.399C137.765 178.91 131.021 160.665 142.196 149.393C152.785 138.707 171.876 143.594 172.756 161.056C172.072 174.837 160.473 179.627 153.339 179.399Z" fill="#00214C"/>
<path d="M192.435 25.3296C182.009 19.5304 175.558 13.829 178.621 13.1448C183.931 11.9719 208.008 26.3722 208.952 31.2591C208.236 34.0935 192.597 25.4274 192.435 25.3296Z" fill="#F3525A"/>
<path d="M192.433 52.9223C180.183 47.2534 173.635 35.9157 180.705 32.7229C189.175 28.9111 208.169 41.3891 208.951 51.2282C208.397 57.7767 198.526 55.7242 192.433 52.9223Z" fill="#1173FF"/>
<path d="M192.434 95.7051C178.946 91.7629 172.789 74.8866 182.726 69.12C191.587 64.005 208.203 73.1599 208.952 86.4524C208.398 95.9982 198.95 97.5947 192.434 95.7051Z" fill="#F3525A"/>
<path d="M192.433 148.316C179.075 147.534 172.82 128.899 182.724 119.385C191.586 110.882 208.234 116.942 208.951 132.287C208.397 143.983 198.949 148.707 192.433 148.316Z" fill="#1173FF"/>
<path d="M68.5988 13.9904C63.8748 16.043 59.2484 18.3561 54.394 20.1806C54.394 20.1806 54.394 20.1806 54.394 20.148C57.0004 18.5842 59.672 17.0855 62.3761 15.652C68.6966 12.394 75.2777 9.59218 82.1194 7.3116C83.8461 6.72517 85.5728 6.20389 87.2996 5.68262H87.3648C86.2571 6.26905 83.9113 7.31161 68.5988 13.9904Z" fill="#1173FF"/>
<path d="M68.598 33.1792C59.5409 36.1439 51.9172 35.4271 55.0123 29.628C60.3228 19.7237 85.3766 10.7969 87.2988 18.1273C87.3639 18.3554 87.3639 18.6486 87.3965 18.8767C86.7123 25.0668 75.505 30.9312 68.6307 33.1792" fill="#F3525A"/>
<path d="M68.5985 70.7466C57.6517 72.5059 50.0281 65.208 56.9675 55.0757C65.536 42.5326 85.6702 40.4149 87.2992 51.9155C87.3644 52.3065 87.3644 52.8277 87.397 53.2512C86.7128 63.3835 75.9941 69.6063 68.6311 70.7791" fill="#1173FF"/>
<path d="M68.5989 121.372C55.6647 120.786 48.66 105.278 59.9978 94.2333C69.8694 84.5897 86.5828 87.7173 87.3973 103.062C86.7131 116.257 75.9945 121.698 68.6315 121.372" fill="#1173FF"/>
<path d="M68.5979 176.468C53.7089 172.95 49.1478 154.217 61.2023 146.104C71.3346 139.295 86.6145 146.169 87.3638 161.612C86.6796 174.774 75.9609 178.228 68.5979 176.501" fill="#1173FF"/>
<path d="M109.095 10.0473C98.1805 10.8943 90.9804 9.46085 93.0655 6.85447C96.3887 2.68427 128.643 -2.10498 130.076 3.92227C129.359 7.0825 117.37 9.39567 109.127 10.0473" fill="#F3525A"/>
<path d="M109.095 41.3951C95.2161 41.6231 88.1138 33.3479 95.77 25.8546C105.12 16.6997 129.001 17.058 130.076 29.0474C129.36 37.3552 117.37 41.2647 109.128 41.3951" fill="#1173FF"/>
<path d="M109.095 89.9979C93.6852 89.216 87.1368 73.8384 97.9532 63.869C108.77 53.9322 129.099 57.744 130.044 73.2845C129.295 85.5019 117.338 90.3889 109.095 89.9979Z" fill="#00214C"/>
<path d="M109.094 149.75C93.0652 147.958 86.9077 127.303 99.2554 116.779C110.365 107.299 129.164 113.326 130.043 130.886C129.294 145.449 117.337 150.695 109.094 149.75Z" fill="#1173FF"/>
<path d="M109.095 205.886C92.9027 203.573 86.8429 185.361 99.2558 176.369C110.365 168.322 129.131 174.479 130.044 190.281C129.294 203.019 117.337 207.092 109.095 205.919" fill="#F3525A"/>
<path d="M7.51118 68.0441C3.82967 74.0388 1.90747 77.8506 0.0830078 81.5321C1.12556 79.219 2.23323 76.9384 3.4061 74.6578C6.66407 68.3373 10.4107 62.3101 14.5809 56.6412C15.9493 54.7842 17.3502 52.9923 18.7837 51.2004L18.8489 51.1353C15.1023 56.7715 11.095 62.2449 7.54379 68.0441" fill="#00214C"/>
<path d="M7.51153 78.824C1.09333 87.425 0.604631 87.4902 0.181095 87.5554C-0.731137 86.6431 3.89518 76.5108 7.51153 70.8094C15.1678 58.6897 18.2954 58.9178 18.328 58.9178C18.719 58.9829 18.7841 59.4065 18.8167 59.7648C18.5235 62.8273 14.9071 68.8872 7.51153 78.824Z" fill="#1173FF"/>
<path d="M7.51146 100.007C5.62184 101.538 -0.47056 106.099 0.0832953 101.179C1.09327 92.0571 14.679 74.5618 18.3279 80.1981C18.7189 80.8171 18.784 81.6642 18.8166 82.3158C18.3605 89.4182 11.4862 96.7812 7.51146 100.007Z" fill="#F3525A"/>
<path d="M7.5121 128.572C-0.0463878 129.452 -3.01111 122.35 4.18901 113.651C10.8353 105.636 18.0028 107.005 18.7521 113.911C18.7847 114.237 18.7847 114.693 18.8173 115.019C18.4263 122.741 12.7574 127.953 7.5121 128.572Z" fill="#1173FF"/>
<path d="M7.51118 159.625C-0.014725 155.031 -3.6311 143.498 5.75185 141.25C11.5836 139.882 18.3928 144.769 18.8163 153.402C18.4254 161.254 12.6262 162.72 7.51118 159.592" fill="#F3525A"/>
<path d="M33.5097 42.2079C23.5077 50.2551 22.628 49.7664 22.3348 49.6035C21.2597 45.694 44.9452 24.5823 48.757 26.0484C48.9199 26.1136 49.0176 26.3416 49.0502 26.5045C48.3986 29.9906 36.9957 39.4061 33.5097 42.2079Z" fill="#1173FF"/>
<path d="M33.5104 65.6651C26.8967 69.4118 20.9998 70.1285 22.4984 64.3293C25.2677 53.6106 44.1314 39.6013 48.3667 45.1073C48.888 45.7915 48.9857 46.6712 49.0509 47.3879C48.4644 54.6858 39.4399 62.342 33.5104 65.6651Z" fill="#F3525A"/>
<path d="M33.5099 102.056C24.3876 104.043 18.5558 97.3973 25.0066 87.0695C32.337 75.3082 46.3137 72.1154 48.7572 81.6287C48.9527 82.378 49.0178 83.388 49.0504 84.1699C48.4965 94.2696 39.6349 100.688 33.5099 102.024" fill="#00214C"/>
<path d="M33.5101 146.755C22.2701 144.67 17.546 129.325 28.6556 121.213C37.1264 115.055 48.3989 118.9 49.018 132.062C48.4641 144.084 39.6025 147.896 33.4775 146.755" fill="#00214C"/>
<path d="M33.5105 188.781C22.2054 182.721 17.4812 167.343 28.6561 164.379C37.1268 162.098 48.3994 169.689 49.0184 181.45C48.4971 190.964 40.7106 192.658 33.4779 188.781" fill="#1173FF"/>
</svg>
