<svg width="90" height="90" viewBox="0 0 348 348" fill="none" xmlns="http://www.w3.org/2000/svg">
<g clip-path="url(#clip0_1308_320)">
<path d="M213.658 2.31069C211.784 4.94789 214.491 7.93209 217.336 6.33589C219.071 5.43369 219.21 3.42109 217.683 1.89429C216.226 0.367486 214.907 0.506286 213.658 2.31069Z" fill="#00214C"/>
<path d="M172.573 3.49075C169.728 5.22577 168.132 7.58536 168.132 9.94495C168.132 11.0554 168.062 11.8882 167.993 11.8882C167.854 11.8882 156.889 13.762 143.495 16.0522L119.274 20.1468L117.262 18.1342C116.151 16.9543 114.694 16.0522 114.069 15.9828C109.281 15.6357 106.643 17.3014 105.464 21.2571C104.7 24.1026 103.035 25.4906 72.1515 49.6418C54.2463 63.5912 39.4641 75.0421 39.3253 75.0421C39.1171 75.0421 38.3537 74.4176 37.5209 73.6542C36.4799 72.752 35.0225 72.2662 33.1487 72.2662C27.2497 72.2662 24.4737 78.7204 28.3601 83.3701L30.1645 85.5215L18.5747 127.994C8.9975 163.111 6.7073 170.675 5.3193 171.855C1.8493 174.839 1.8493 180.114 5.3193 182.959C6.7767 184.139 8.1647 188.858 15.7293 218.908L24.4043 253.4L22.7387 255.968C19.4075 260.757 21.0037 267.905 25.9311 270.403C27.3191 271.167 29.3317 271.514 31.6219 271.305L35.0919 271.097L56.3283 292.75L77.4953 314.403L77.5647 317.526C77.6341 320.857 79.0915 323.217 82.0063 324.258C84.0189 325.021 87.6277 323.98 89.2933 322.176C90.4037 320.996 91.4447 321.273 114.555 329.393L138.637 337.86L139.053 340.775C139.261 342.579 140.164 344.384 141.413 345.702C143.287 347.645 143.772 347.784 148.492 347.784C153.072 347.784 153.835 347.576 155.362 346.049C156.334 345.078 157.444 343.343 157.861 342.232C158.208 341.052 158.832 340.15 159.179 340.15C160.151 340.15 213.936 333.28 216.157 332.933C217.614 332.655 218.1 332.863 218.447 333.904C219.002 335.639 222.056 337.166 224.138 336.819C225.803 336.541 228.51 333.627 228.51 332.1C228.51 331.059 228.926 330.989 244.125 328.63C250.648 327.658 256.062 326.687 256.2 326.548C257.172 325.646 254.465 325.854 242.112 327.728C227.885 329.948 225.734 329.879 227.885 327.172C228.44 326.478 236.56 316.693 245.999 305.311C259.809 288.794 263.418 284.838 264.528 285.116C265.222 285.324 266.472 285.116 267.304 284.7C268.484 284.006 270.289 284.353 276.882 286.365C281.393 287.753 285.418 289.419 285.765 289.974C287.153 292.264 288.957 293.652 290.276 293.652C292.15 293.652 294.44 291.223 294.44 289.28C294.44 285.741 289.235 283.936 287.292 286.712C286.32 288.031 286.251 288.031 278.27 285.532C271.121 283.312 270.289 282.895 270.844 281.785C272.093 279.495 271.607 275.816 269.733 273.596C267.998 271.514 267.998 271.444 268.484 262.422C268.901 254.719 269.109 253.4 270.08 253.4C272.024 253.4 274.244 251.388 274.869 249.097C275.355 247.224 276.604 246.391 288.471 240.422C297.424 235.911 301.727 234.038 302.213 234.523C303.115 235.426 297.285 256.176 296.105 256.176C294.787 256.176 293.052 258.605 293.052 260.479C293.052 264.088 297.355 265.753 299.992 263.116C301.796 261.312 301.727 259.299 299.922 257.495L298.396 255.968L300.269 249.306C304.156 235.564 304.225 235.356 305.336 235.356C305.96 235.356 307.001 234.94 307.556 234.385C308.528 233.621 309.708 233.829 315.884 236.328C321.02 238.34 323.241 239.59 323.657 240.631C324.351 242.643 326.294 243.198 328.168 241.949C330.111 240.7 330.32 238.687 328.723 237.161C327.474 235.842 326.086 235.773 324.421 236.814C323.38 237.438 321.714 237.091 316.093 235.009C307.279 231.747 306.932 230.706 313.178 227.098C315.468 225.779 317.342 224.391 317.342 224.113C317.342 223.142 316.44 223.489 312.276 225.987C308.944 228 307.973 228.277 306.862 227.653C306.099 227.236 304.642 227.098 303.601 227.375C302.004 227.722 300.616 226.751 292.982 220.158C284.654 212.871 284.307 212.454 284.585 210.164C284.863 207.874 284.932 207.804 299.02 201.489C306.793 197.95 313.455 195.104 313.802 195.104C314.149 195.104 314.774 195.59 315.26 196.145C315.746 196.7 317.134 197.186 318.383 197.186C320.326 197.186 321.298 198.019 326.711 204.404C330.111 208.429 333.165 211.552 333.443 211.344C333.998 210.997 331.916 208.36 323.865 199.129C321.783 196.839 321.645 196.423 322.408 194.48C322.963 192.953 322.963 191.981 322.269 190.524C321.853 189.483 321.714 188.442 321.992 188.164C322.269 187.887 326.156 184.972 330.597 181.641C337.468 176.505 338.995 175.672 340.521 176.089C342.881 176.644 345.102 174.77 345.102 172.202C345.102 169.912 343.644 168.524 341.285 168.524C338.717 168.593 337.398 169.981 337.607 172.48C337.815 174.492 337.26 175.048 328.862 181.294C321.714 186.637 319.493 187.956 317.689 187.887C315.884 187.817 312.831 185.458 299.09 173.313C290.068 165.332 282.642 158.669 282.642 158.461C282.642 158.322 282.989 156.934 283.405 155.546C284.307 152.562 282.225 153.048 304.225 150.619L318.591 149.092L320.465 150.549C322.824 152.423 323.865 152.493 325.67 150.688C327.405 148.953 327.405 146.871 325.67 145.136C324.351 143.818 324.351 143.609 325.462 136.322C326.433 129.799 326.85 128.619 328.585 126.953C329.626 125.982 330.528 124.871 330.528 124.524C330.528 123.206 328.307 120.846 327.058 120.846C324.143 120.846 322.547 124.594 324.559 126.606C325.462 127.439 325.392 128.619 324.351 135.212C323.102 142.846 322.616 144.442 321.506 144.442C321.089 144.442 297.702 117.099 291.456 109.256C290.206 107.73 290.206 107.591 291.456 104.884L292.705 102.178L301.519 102.108C309.569 102.108 310.332 102.247 310.749 103.427C311.235 105.023 313.664 105.717 315.399 104.815C316.37 104.329 316.648 103.496 316.509 101.969C316.231 98.9158 314.427 97.9442 311.72 99.471C309.985 100.512 307.903 100.72 301.033 100.72C288.888 100.72 289.374 101.345 287.986 84.0641C286.945 70.8087 286.945 70.67 288.333 68.7962C289.998 66.506 289.582 64.424 287.083 62.8278C285.557 61.7868 285.279 61.7868 283.613 62.8278C282.642 63.5218 281.601 64.7016 281.323 65.5344C280.837 66.7836 278.547 67.7552 268.345 70.9476L255.923 74.834L255.09 73.3072C254.604 72.4744 253.355 71.364 252.245 70.9476C250.44 70.1842 249.954 69.0044 245.305 54.2222C241.21 41.3831 240.377 37.9825 241.002 36.8722C241.418 36.1088 241.835 35.4842 241.904 35.4842C241.973 35.4842 245.096 36.1088 248.775 36.8028C254.465 37.9131 255.784 38.399 257.172 40.0645C258.699 41.7996 259.115 41.9384 260.85 41.3831C263.071 40.6198 263.973 37.5662 262.446 35.7617C261.475 34.582 258.282 34.4431 257.103 35.623C256.478 36.2476 254.674 36.1088 249.33 35.1371C242.737 33.9574 242.32 33.7491 241.071 31.5977C239.406 28.7523 236.63 27.9196 234.062 29.377C232.327 30.3486 231.147 30.071 208.245 22.0206L184.233 13.6232L184.302 10.8472C184.302 7.30777 182.498 4.39294 179.444 3.14377C176.46 1.82516 175.141 1.89456 172.573 3.49075ZM170.283 15.7052C171.532 17.0932 173.337 18.2729 174.586 18.4812L176.807 18.8976L180.832 36.0394C183.539 47.8374 184.58 53.2505 184.024 53.4588C183.539 53.5976 182.081 54.7773 180.624 56.0266L178.125 58.3168L148.63 41.0362C132.46 31.5284 119.135 23.2697 118.997 22.7146C118.858 22.09 118.858 21.6042 118.997 21.5348C123.646 20.6326 166.05 13.4149 166.952 13.3456C167.646 13.2762 169.103 14.3866 170.283 15.7052ZM219.141 27.1562C223.374 28.6136 227.746 30.2097 228.996 30.6262C230.939 31.3202 231.216 31.6671 231.008 33.888C230.869 36.3864 230.8 36.4557 214.005 46.2411L197.072 56.1653L194.643 54.4998C193.324 53.5976 191.242 52.7648 190.062 52.7648C188.882 52.6953 187.494 52.6259 186.939 52.5565C186.245 52.4872 184.857 47.7679 182.289 36.5251C180.207 27.7114 178.542 20.008 178.542 19.3834C178.542 18.7588 179.097 18.0648 179.86 17.7872C180.554 17.5789 181.665 16.8156 182.359 16.0522C183.608 14.6642 181.665 14.0396 219.141 27.1562ZM107.06 27.4337C107.06 29.0994 66.9465 83.7172 65.9749 83.3701C65.4891 83.162 63.4765 83.0232 61.4639 83.0232C58.7573 83.0232 57.5081 83.3701 56.2589 84.4806L54.6627 85.938L47.3757 82.7456C41.1991 79.9696 40.0887 79.2756 40.0887 77.8876C40.0887 76.6384 46.5429 71.2946 72.7067 50.8216C104.492 25.9763 107.06 24.172 107.06 27.4337ZM130.031 42.2159C137.457 50.197 144.952 58.2473 146.757 60.1906C151.684 65.465 151.268 66.6447 141.343 76.0138L133.362 83.509L131.142 82.6068C129.892 82.121 128.782 81.6352 128.713 81.5658C128.574 81.4964 125.381 69.629 121.703 55.3326C115.596 31.6671 114.833 27.8502 116.498 27.8502C116.568 27.8502 122.675 34.3044 130.031 42.2159ZM120.454 55.4019L127.116 81.5658L125.52 83.0232C124.618 83.856 123.785 84.897 123.646 85.3828C123.438 85.938 119.899 85.5215 110.322 83.5784C98.2459 81.1494 97.1355 80.8024 96.1639 79.1367C95.1229 77.4018 95.3311 76.4301 102.965 54.2222C110.183 33.0551 111.71 29.2382 113.236 29.2382C113.514 29.2382 116.776 41.0362 120.454 55.4019ZM178.264 68.7962C178.889 70.323 180.346 72.3356 181.526 73.3072L183.677 74.9727L177.57 90.102C174.17 98.43 171.047 106.064 170.63 107.105C168.895 111.685 167.854 109.812 160.984 89.755C155.57 74.0012 154.529 70.323 155.293 69.4902C155.709 68.935 156.334 67.894 156.542 67.2C156.958 66.159 158.069 66.0202 167.091 66.0202H177.154L178.264 68.7962ZM223.999 71.7804C242.182 75.1116 244.194 75.5974 244.888 76.9854C245.305 77.8181 246.207 79.0674 246.831 79.8307C248.011 81.08 247.803 82.0516 242.043 101.553C234.339 127.717 234.756 126.398 233.784 126.398C233.16 126.398 199.292 79.5532 196.378 74.6258C196.031 74.0012 196.447 72.8214 197.557 71.364C198.598 70.0453 199.362 68.6573 199.362 68.1716C199.362 67.6164 200.125 67.4776 201.652 67.7552C202.832 67.9633 212.895 69.8372 223.999 71.7804ZM282.642 69.1432C283.128 69.6984 283.891 70.1842 284.446 70.1842C285.557 70.1842 285.834 71.8498 286.806 84.0641C287.777 96.7644 287.777 97.2502 286.251 97.2502C285.557 97.2502 284.307 97.736 283.475 98.3606C282.642 98.9158 281.531 99.1934 281.046 98.9158C279.866 98.1524 258.352 81.3576 256.478 79.692C255.368 78.7204 255.09 78.0264 255.576 77.1936C255.923 76.569 261.197 74.487 268.554 72.1967C275.355 69.976 281.115 68.241 281.323 68.1716C281.601 68.1022 282.156 68.588 282.642 69.1432ZM152.309 70.323C153.488 71.2946 166.258 108.007 165.911 109.603C165.772 110.228 160.22 107.036 149.949 100.373C134.473 90.3795 134.195 90.1714 133.987 87.673C133.779 85.244 134.056 84.7581 141.76 77.3324C146.132 73.0296 150.088 69.5596 150.504 69.4902C150.851 69.4902 151.684 69.9066 152.309 70.323ZM190.201 76.0832C190.27 76.1526 192.422 85.6604 194.99 97.2502C199.154 116.405 199.431 118.278 198.46 119.319C197.419 120.291 196.308 120.083 185.482 117.029C174.586 113.906 173.545 113.42 172.365 111.477L171.185 109.395L178.125 92.184L185.065 75.0421L187.494 75.4586C188.882 75.7361 190.062 76.0138 190.201 76.0832ZM268.068 90.5878C280.421 100.234 281.323 101.067 281.115 102.941C280.907 104.884 279.588 105.786 260.434 116.474C249.191 122.789 239.683 128.064 239.267 128.203C238.92 128.341 238.018 127.994 237.324 127.509C236.074 126.537 236.283 125.704 241.002 109.603C249.885 79.2756 249.052 81.7046 251.551 80.8718C252.8 80.4554 254.049 80.1084 254.327 80.1778C254.674 80.2472 260.85 84.897 268.068 90.5878ZM53.4135 89.3386C52.8583 91.143 52.9971 92.3228 53.8993 94.7518L55.0791 97.8748L45.5019 111.963L35.9247 125.982L35.5083 122.581C35.3001 120.638 34.8837 111.616 34.6061 102.386L34.0509 85.7298L35.8553 84.897C36.8269 84.4806 38.0761 83.3701 38.7007 82.468L39.8111 80.733L46.9593 83.9254L54.1075 87.0484L53.4135 89.3386ZM90.4731 84.203C91.6529 85.6604 91.7223 87.1178 91.7917 99.818C91.7917 107.521 91.5141 113.976 91.2365 114.184C90.9589 114.323 87.0725 111.477 82.7003 107.799C78.3281 104.121 73.6089 100.096 72.1515 98.9158L69.5837 96.7644L70.3471 93.3638L71.1105 89.9632L79.9243 86.3544C84.7129 84.4112 88.8075 82.7456 88.8769 82.7456C89.0157 82.6761 89.7097 83.3701 90.4731 84.203ZM109.558 84.7581C115.249 85.8686 120.593 86.979 121.426 87.1872C122.189 87.3954 123.161 88.367 123.508 89.408C124.132 91.2818 123.785 91.6288 110.113 102.663C99.0093 111.616 95.6781 113.906 94.5677 113.559C93.2491 113.143 93.1797 112.588 93.1797 99.4016V85.6604L94.9147 84.897C95.8863 84.4806 96.6497 83.7866 96.6497 83.3701C96.6497 82.3292 98.2459 82.468 109.558 84.7581ZM150.157 102.039C162.857 110.159 164.523 111.477 164.939 113.351C165.148 114.531 165.286 115.572 165.217 115.641C165.078 115.711 143.634 133.685 136.902 139.307C136 140.07 135.167 139.862 131.905 138.335L127.949 136.461V115.641C127.88 104.19 128.157 94.4742 128.435 94.1272C128.713 93.7108 129.892 92.9474 131.003 92.3228C132.668 91.4206 133.362 91.3512 134.473 92.0452C135.236 92.4616 142.315 96.9726 150.157 102.039ZM126.839 97.1114C126.769 99.471 126.7 109.326 126.631 119.042L126.492 136.6L124.618 137.016C123.508 137.225 121.564 138.196 120.176 139.098L117.609 140.833L106.713 129.868C99.9809 123.136 96.0945 118.764 96.5803 118.487C96.9967 118.209 97.2743 117.168 97.2049 116.196C96.9967 114.6 98.6623 113.073 110.877 103.427C118.511 97.389 125.243 92.531 125.798 92.6004C126.631 92.7392 126.839 93.7802 126.839 97.1114ZM60.0759 99.818C61.8803 100.165 61.9497 100.373 61.6027 103.427C61.4639 105.162 60.7699 115.988 60.2147 127.439C58.7573 154.852 58.9655 153.672 56.1895 154.575C55.0097 154.991 53.4829 155.546 52.9277 155.754C52.1643 156.101 50.0823 153.187 44.7385 144.095C38.7701 133.963 37.7291 131.742 38.3537 130.632C38.8395 129.66 38.8395 128.758 38.2843 127.578C37.5903 126.051 38.3537 124.663 46.8205 112.31C53.4135 102.525 56.3283 98.777 57.0917 99.0546C57.6469 99.2628 58.9655 99.6098 60.0759 99.818ZM303.531 125.774C311.72 135.49 318.799 143.956 319.216 144.512C319.91 145.344 319.91 145.83 319.216 146.732C318.591 147.565 314.566 148.259 301.172 149.647L284.03 151.521L282.017 149.37C280.907 148.19 279.38 147.218 278.547 147.218C277.714 147.218 277.09 146.802 277.09 146.247C277.09 145.483 283.544 116.474 285.071 110.297C285.487 108.701 286.875 107.66 288.263 107.938C288.541 107.938 295.411 115.988 303.531 125.774ZM189.507 119.597C196.516 121.54 197.28 121.957 197.28 123.345C197.28 124.247 197.974 125.427 198.737 125.982L200.195 127.023L197.974 145.275C196.794 155.338 195.475 163.805 195.128 164.152C194.712 164.568 194.296 164.568 193.879 164.152C193.463 163.805 188.327 153.117 182.359 140.417C175.419 125.565 171.671 116.821 171.949 115.988C172.365 114.739 172.504 114.739 177.015 116.058C179.583 116.821 185.204 118.348 189.507 119.597ZM105.88 131.117C116.429 141.666 116.845 142.152 116.082 144.026C115.735 145.067 115.388 147.01 115.388 148.329C115.388 149.647 115.11 150.688 114.763 150.688C114.416 150.688 103.59 152.215 90.7507 154.158C77.8423 156.032 67.0853 157.42 66.7383 157.212C66.3913 157.004 66.1137 156.518 66.1137 156.171C66.1137 155.754 71.8045 147.496 78.7445 137.78C89.6403 122.512 91.5835 120.152 93.1103 120.152C94.4983 120.152 97.4131 122.581 105.88 131.117ZM217.059 127.509C223.166 129.244 228.371 130.909 228.579 131.117C228.857 131.395 229.273 132.505 229.481 133.685C229.898 135.628 229.065 136.739 217.683 149.3C201.236 167.552 202.415 166.442 200.75 165.401C199.986 164.985 198.876 164.568 198.321 164.568C196.933 164.568 196.933 164.499 199.362 144.581C200.611 134.587 201.791 127.3 202.277 127.162C202.693 127.023 203.526 126.329 204.15 125.704C204.775 125.01 205.4 124.386 205.608 124.386C205.816 124.316 210.952 125.774 217.059 127.509ZM43.9751 145.275C51.0539 157.212 51.3315 157.906 50.4293 159.641C49.8741 160.612 49.4577 162.139 49.4577 162.972C49.4577 164.152 48.8331 164.707 46.8899 165.262C45.4325 165.609 37.8679 167.969 30.0257 170.328L15.7987 174.77L14.6189 173.313C13.5085 171.925 13.5779 171.578 16.8397 165.609C18.6441 162.139 23.1551 153.325 26.8333 145.969C32.5241 134.587 33.7039 132.644 35.0919 132.644C36.3411 132.644 37.9373 134.934 43.9751 145.275ZM255.298 141.597C263.904 145.414 271.121 148.676 271.33 148.884C271.468 149.023 271.26 149.855 270.844 150.688C270.427 151.521 270.15 153.256 270.289 154.644L270.497 157.073L260.92 162.278C253.286 166.442 251.204 167.344 250.371 166.65C249.885 166.234 248.566 165.609 247.456 165.332C245.652 164.846 245.305 164.082 241.21 150.688C237.185 137.572 236.977 136.531 238.087 135.698C238.712 135.212 239.336 134.726 239.406 134.726C239.475 134.726 246.623 137.849 255.298 141.597ZM235.866 137.71C235.936 137.78 237.809 143.956 240.1 151.382C244.055 164.291 244.194 164.985 243.014 165.956C242.32 166.511 241.488 167.83 241.071 168.802L240.447 170.537L226.983 171.439C219.627 171.925 212.062 172.48 210.119 172.619L206.649 173.035L205.122 170.12C203.248 166.581 201.721 168.802 218.377 150.411L230.869 136.669L233.298 137.155C234.686 137.433 235.797 137.71 235.866 137.71ZM116.984 154.228C117.609 155.407 117.956 156.726 117.678 157.142C117.4 157.628 112.959 162.556 107.823 168.246C99.9115 176.991 98.3153 178.379 97.0661 177.962C94.2207 176.921 90.5425 177.407 88.7381 179.073C87.6277 180.114 86.7255 180.461 86.1009 180.114C85.6151 179.767 81.5205 176.921 77.0789 173.729L68.8897 167.899L68.8203 164.152C68.7509 162.07 68.6815 160.057 68.6121 159.571C68.5427 159.016 75.4133 157.698 90.0567 155.477C101.924 153.672 112.542 152.215 113.653 152.146C115.318 152.076 116.012 152.562 116.984 154.228ZM161.4 162.278L185.482 170.467L185.065 173.243C184.857 174.77 184.996 176.852 185.412 177.824C186.106 179.628 186.037 179.697 174.17 184.972C163.204 189.83 161.955 190.246 159.04 189.83L155.779 189.413L145.091 174.701C139.192 166.65 134.126 159.641 133.848 159.155C133.432 158.392 135.93 154.297 136.902 154.158C137.11 154.158 148.075 157.836 161.4 162.278ZM272.579 159.016C272.926 159.641 240.308 214.744 239.822 214.328C239.753 214.259 240.932 205.861 242.39 195.798C243.917 185.666 245.166 176.991 245.166 176.505C245.166 176.089 245.86 175.672 246.762 175.672C249.052 175.672 251.412 173.243 251.412 170.884C251.412 169.149 252.245 168.524 260.989 163.666C270.774 158.253 271.815 157.836 272.579 159.016ZM143.425 174.701C149.81 183.306 154.738 190.663 154.529 191.079C154.252 191.495 154.044 192.675 154.113 193.716C154.113 195.312 152.031 197.811 142.523 207.666C131.142 219.464 130.864 219.672 129.06 218.908L127.186 218.006V206.694C127.186 200.448 126.978 187.331 126.7 177.546L126.284 159.849L128.643 159.502C129.962 159.363 131.211 159.155 131.489 159.155C131.697 159.086 137.11 166.095 143.425 174.701ZM298.118 174.215L314.427 188.789L313.525 191.357C312.692 193.855 312.276 194.063 298.326 200.379C285.695 206.069 283.822 206.763 282.295 206.069C280.143 205.098 280.143 204.89 279.172 185.041C278.755 176.227 278.27 167.136 278.061 164.776C277.645 160.404 277.784 160.127 280.976 159.78C281.462 159.78 289.165 166.234 298.118 174.215ZM276.673 163.319C276.882 164.985 277.367 173.313 277.784 181.918C278.2 190.524 278.686 199.268 278.894 201.42C279.241 205.028 279.172 205.306 277.506 206.069C276.535 206.486 275.563 207.596 275.285 208.568C274.938 210.095 273.55 210.58 259.809 214.467C251.481 216.826 244.472 218.7 244.194 218.7C243.917 218.7 242.945 218.145 242.043 217.451L240.447 216.202L257.241 188.303C268.623 169.357 274.314 160.404 275.147 160.404C275.979 160.404 276.396 161.168 276.673 163.319ZM50.7069 168.246L52.0255 170.606L43.3505 187.262C36.5493 200.379 34.3285 204.057 33.1487 204.265C31.8995 204.543 30.3033 202.808 23.3633 193.786C18.8523 187.817 15.2435 182.473 15.3129 181.918C15.3823 181.363 15.5905 179.767 15.8681 178.379L16.2845 175.95L32.3159 171.022C41.1991 168.246 48.6249 166.026 48.9025 166.026C49.1107 165.956 49.9435 166.997 50.7069 168.246ZM78.2587 176.227C85.7539 181.71 86.5867 182.543 87.0031 184.833C87.2113 186.221 87.7665 187.887 88.2523 188.442C88.9463 189.275 87.8359 191.565 82.0063 201.35C75.1357 212.871 73.6783 214.744 72.3597 213.426C71.6657 212.732 61.2557 175.742 61.2557 174.007C61.2557 173.382 61.7415 172.896 62.2967 172.896C62.8519 172.896 64.3093 171.994 65.5585 170.884C68.1957 168.524 67.1547 168.108 78.2587 176.227ZM192.144 185.111C193.602 185.458 193.602 185.805 193.949 205.375C194.157 216.341 194.296 225.363 194.226 225.432C194.157 225.501 193.324 225.64 192.283 225.779C190.687 225.987 188.535 223.975 175.974 210.927C162.857 197.325 161.469 195.659 161.747 193.855C162.025 191.981 162.857 191.426 174.239 186.29L186.523 180.738L188.605 182.751C189.715 183.861 191.311 184.902 192.144 185.111ZM22.2529 194.271C28.3601 202.322 30.4421 205.514 29.9563 206.278C28.9847 207.874 29.2623 208.915 31.1361 210.858L32.9405 212.662L31.7607 232.164C31.1361 242.921 30.5115 251.735 30.5115 251.804C30.4421 251.804 29.2623 252.012 27.9437 252.151L25.5147 252.359L17.0479 219.047C12.3981 200.726 8.5811 185.527 8.5117 185.319C8.5117 184.972 11.8429 183.653 13.4391 183.376C13.6473 183.306 17.6031 188.234 22.2529 194.271ZM219.002 200.587C234.409 217.382 234.548 217.59 233.576 219.394C232.535 221.476 233.507 221.268 209.633 225.363C200.819 226.889 198.39 227.098 196.933 226.473L195.198 225.64V205.861C195.198 187.47 195.267 186.082 196.447 186.082C197.072 186.013 198.737 185.458 200.056 184.764C201.374 184.07 202.693 183.514 202.971 183.584C203.248 183.584 210.466 191.287 219.002 200.587ZM109.419 204.126L120.801 218.631L118.094 221.337C116.637 222.864 115.388 224.738 115.388 225.571C115.388 226.334 115.318 227.028 115.249 227.028C115.11 227.028 107.268 225.918 97.8295 224.599C88.3217 223.281 80.2713 222.17 79.9243 222.17C79.5773 222.17 79.2997 221.268 79.2997 220.158C79.2997 218.978 78.5363 217.243 77.4953 215.994L75.6909 213.842L82.8391 202.114C89.8485 190.593 90.0567 190.385 92.1387 190.732C93.2491 190.871 94.9841 190.732 95.9557 190.316C96.9273 189.969 97.7601 189.622 97.8295 189.622C97.8989 189.552 103.104 196.076 109.419 204.126ZM51.4703 214.744L65.0033 219.047L65.6279 221.476C65.9749 222.795 66.5301 224.322 66.9465 224.738C67.4323 225.363 67.0159 226.334 65.4197 228.208C60.9087 233.413 39.1171 255.482 38.4925 255.482C38.1455 255.482 37.3127 254.858 36.6881 254.164C35.9941 253.4 34.7449 252.637 33.8427 252.429C32.3159 252.012 32.1771 251.735 32.4547 248.681C32.6629 246.877 33.1487 237.924 33.5651 228.833C34.1897 214.675 34.4673 212.038 35.4389 211.274C36.0635 210.789 36.9657 210.442 37.3127 210.372C37.7291 210.372 44.0445 212.315 51.4703 214.744ZM292.288 221.268C304.017 231.539 304.225 230.706 287.153 239.59C278.894 243.823 273.759 246.183 273.342 245.766C272.787 245.211 277.02 222.934 278.894 216.479C279.172 215.508 281.601 214.12 283.405 213.912C283.613 213.842 287.639 217.173 292.288 221.268ZM234.131 224.391C234.825 225.293 235.38 226.265 235.45 226.681C235.45 227.028 231.702 237.23 227.122 249.236L218.863 271.097L215.879 270.889C214.213 270.75 212.825 270.542 212.756 270.542C212.756 270.473 209.494 263.255 205.608 254.511L198.598 238.618L199.778 236.397C200.611 234.87 200.819 233.274 200.542 231.262C200.333 229.735 200.264 228.416 200.264 228.347C200.958 228.139 230.592 223.003 231.494 222.934C232.257 222.934 233.368 223.558 234.131 224.391ZM97.4825 226.126L115.249 228.624L115.665 230.498C116.082 232.788 119.274 236.744 120.662 236.744C121.217 236.744 121.634 236.814 121.634 236.952C121.634 237.022 118.441 244.933 114.486 254.441C107.476 271.305 107.268 271.722 105.047 272.346C103.798 272.624 102.688 272.832 102.549 272.693C102.479 272.555 96.8579 262.63 90.0567 250.624C83.2555 238.618 77.3565 228.277 77.0095 227.653C76.5237 226.889 76.7319 226.126 77.6341 225.085C78.3281 224.252 79.0915 223.558 79.2997 223.558C79.5079 223.558 87.6277 224.669 97.4825 226.126ZM255.229 236.397C265.569 244.795 267.027 246.183 266.819 247.779C266.68 248.75 266.402 249.791 266.125 250.069C265.292 250.832 220.806 273.526 220.043 273.526C219.627 273.526 219.557 273.04 219.835 272.277C220.251 271.305 230.314 244.656 235.589 230.637C236.63 227.792 237.254 227.028 238.434 227.028C239.267 227.028 240.447 226.751 241.002 226.334C241.557 225.987 242.32 225.987 242.737 226.265C243.084 226.542 248.775 231.123 255.229 236.397ZM163.482 231.678L187.009 232.858L187.911 235.079C188.397 236.328 189.299 237.577 189.923 237.924C190.895 238.479 189.576 241.325 180.693 258.258L170.353 278.037L167.924 277.829C166.536 277.69 164.801 277.898 164.107 278.315C162.857 279.009 161.122 276.927 146.687 257.634L130.586 236.189L132.391 234.385C133.362 233.413 134.126 232.164 134.126 231.539C134.126 230.151 134.612 230.151 163.482 231.678ZM146.132 259.23L161.608 279.911L160.567 282.271C159.665 284.283 159.179 284.63 157.722 284.353C156.75 284.214 146.201 282.687 134.334 281.091C118.997 278.939 112.612 277.829 112.612 277.204C112.612 276.719 111.71 275.331 110.599 274.081L108.656 271.791L115.735 254.788L122.814 237.785L125.451 237.577C126.978 237.508 128.296 237.23 128.504 237.022C129.06 236.467 129.892 237.577 146.132 259.23ZM267.79 258.189C266.749 271.583 266.888 271.236 263.904 271.722C261.475 272.069 258.976 274.151 258.213 276.441C257.935 277.135 231.563 276.163 223.652 275.192L220.529 274.775L243.778 263.116C256.547 256.731 267.304 251.665 267.651 251.804C267.929 252.012 267.998 254.858 267.79 258.189ZM69.2367 270.75C102.965 277.482 100.12 276.788 100.12 278.245C100.12 278.87 100.536 280.258 101.091 281.23C101.924 282.895 101.577 283.728 93.9431 296.983C87.2113 308.712 85.6151 310.933 84.2965 311.002C83.3943 311.002 81.7287 311.488 80.5489 312.113C77.9811 313.431 80.5489 315.721 54.9403 289.349L36.2023 270.195L38.0067 268.252C38.9783 267.211 39.7417 266.1 39.7417 265.823C39.7417 265.476 40.1581 265.198 40.6439 265.198C41.1297 265.198 54.0381 267.697 69.2367 270.75ZM212.409 280.952C213.45 281.577 214.352 282.132 214.422 282.201C214.491 282.201 216.157 292.195 218.1 304.34C221.292 323.98 221.57 326.548 220.668 327.45C219.765 328.422 217.059 326.34 196.794 309.267C184.302 298.649 173.961 289.905 173.961 289.905C173.892 289.835 174.17 288.378 174.586 286.504C175.141 284.422 175.766 283.242 176.46 283.173C177.015 283.173 183.608 282.409 191.034 281.577C207.967 279.564 210.049 279.495 212.409 280.952ZM107.546 285.532C107.962 286.018 115.874 296.636 124.965 309.128L141.621 331.892L140.164 334.182L138.637 336.472L127.88 332.724C121.981 330.642 111.293 326.895 104.214 324.396L91.2365 319.885L90.8895 316.971C90.6119 315.166 89.9179 313.639 88.8075 312.668L87.0725 311.21L95.0535 297.539C102.757 284.422 103.173 283.867 104.908 284.283C105.88 284.491 107.06 285.116 107.546 285.532ZM197.835 311.627C210.813 322.661 218.516 329.671 218.308 330.226C218.1 330.712 217.267 331.267 216.434 331.475C214.283 331.961 161.4 338.762 159.804 338.762C159.04 338.762 158.416 338.346 158.416 337.86C158.416 337.374 157.791 335.709 157.028 334.251L155.57 331.475L160.637 312.46C165.286 294.971 165.842 293.444 167.438 292.819C168.409 292.472 169.936 291.778 170.908 291.293C172.435 290.529 172.92 290.668 174.794 292.195C176.043 293.166 186.384 301.911 197.835 311.627Z" fill="#00214C"/>
<path d="M158.902 31.8751C157.375 33.5407 157.445 34.9981 158.971 36.3861C160.637 37.9129 162.094 37.8435 163.482 36.3167C165.009 34.6511 164.94 33.1937 163.413 31.8057C161.747 30.2789 160.29 30.3483 158.902 31.8751Z" fill="#00214C"/>
<path d="M196.447 31.3896C194.643 32.4306 194.851 35.9006 196.655 36.9416C199.015 38.1908 201.444 36.7334 201.444 34.1656C201.444 31.2508 198.945 29.8628 196.447 31.3896Z" fill="#00214C"/>
<path d="M224.762 89.3383C223.235 90.7957 223.374 92.6001 225.039 94.1269C228.093 96.9029 232.465 92.3919 229.828 89.1995C228.787 87.8809 226.08 87.9503 224.762 89.3383Z" fill="#00214C"/>
<path d="M256.616 98.6383C255.575 99.8181 255.506 100.304 256.131 101.761C257.172 103.982 258.698 104.607 260.711 103.635C262.724 102.733 263.348 100.512 262.03 98.7077C260.78 96.8339 258.213 96.8339 256.616 98.6383Z" fill="#00214C"/>
<path d="M291.109 131.395C289.721 132.783 290.137 135.975 291.734 136.878C294.093 138.127 296.522 136.669 296.522 134.102C296.522 131.117 293.052 129.452 291.109 131.395Z" fill="#00214C"/>
<path d="M250.995 150.272C250.371 151.937 251.273 153.603 252.592 153.325C253.424 153.187 253.841 152.493 253.841 151.382C253.841 149.37 251.62 148.537 250.995 150.272Z" fill="#00214C"/>
<path d="M291.525 184.694C290.206 185.735 290.067 186.221 290.623 187.887C291.525 190.454 294.301 190.94 296.175 188.858C298.881 185.874 294.648 182.126 291.525 184.694Z" fill="#00214C"/>
<path d="M260.989 194.549C259.324 195.937 259.046 197.602 260.156 199.198C261.614 201.211 264.32 201.072 265.708 198.921C266.749 197.325 266.749 197.047 265.708 195.451C264.459 193.577 262.724 193.23 260.989 194.549Z" fill="#00214C"/>
<path d="M218.447 238.687C215.671 239.242 214.214 243.684 216.157 245.627C217.684 247.154 221.431 246.668 222.68 244.725C224.624 241.741 221.986 237.924 218.447 238.687Z" fill="#00214C"/>
<path d="M239.406 247.64C238.504 248.473 238.92 250.485 240.1 250.902C241.557 251.526 243.292 249.791 242.668 248.334C242.251 247.154 240.239 246.738 239.406 247.64Z" fill="#00214C"/>
<path d="M204.497 295.387C203.942 296.845 204.636 298.51 205.816 298.51C206.371 298.51 207.204 298.024 207.69 297.469C208.384 296.636 208.384 296.22 207.69 295.387C207.204 294.832 206.371 294.346 205.816 294.346C205.33 294.346 204.705 294.832 204.497 295.387Z" fill="#00214C"/>
<path d="M183.261 319.399C181.179 320.579 181.804 324.188 184.163 325.021C187.217 326.201 189.785 320.857 186.939 319.33C185.274 318.497 184.788 318.497 183.261 319.399Z" fill="#00214C"/>
<path d="M304.156 49.7111C303.115 50.9603 303.601 52.4871 305.475 53.5281C307.487 54.5691 310.055 52.0707 309.014 50.0581C308.112 48.3925 305.405 48.2537 304.156 49.7111Z" fill="#00214C"/>
<path d="M259.74 53.8753C257.936 56.0267 260.989 58.8027 263.002 56.8595C263.835 56.0267 263.904 55.4715 263.28 54.2917C262.308 52.5567 260.92 52.4179 259.74 53.8753Z" fill="#00214C"/>
<path d="M308.112 78.0957C307.348 80.0389 308.389 81.3575 310.333 81.1493C311.721 81.0105 312.137 80.5941 312.137 79.2061C312.137 77.8181 311.721 77.4017 310.333 77.2629C309.153 77.1241 308.32 77.4711 308.112 78.0957Z" fill="#00214C"/>
<path d="M334.831 97.3892C333.582 98.6384 333.86 100.582 335.317 101.414C337.052 102.317 338.648 101.692 339.203 99.957C340.036 97.3198 336.774 95.446 334.831 97.3892Z" fill="#00214C"/>
<path d="M342.465 136.947C341.979 137.433 341.632 138.405 341.632 139.237C341.632 140.07 341.979 141.042 342.465 141.528C342.95 142.013 343.922 142.36 344.755 142.36C345.588 142.36 346.559 142.013 347.045 141.528C347.531 141.042 347.878 140.07 347.878 139.237C347.878 138.405 347.531 137.433 347.045 136.947C346.559 136.461 345.588 136.114 344.755 136.114C343.922 136.114 342.95 136.461 342.465 136.947Z" fill="#00214C"/>
<path d="M314.496 167.414C313.247 169.773 314.704 172.202 317.342 172.202C318.868 172.202 319.632 171.786 320.187 170.537C321.297 168.108 319.979 165.956 317.342 165.956C315.954 165.956 315.051 166.442 314.496 167.414Z" fill="#00214C"/>
<path d="M342.465 193.161C341.215 194.41 341.424 195.59 343.159 196.77C345.241 198.227 347.323 197.047 347.045 194.549C346.906 193.161 346.42 192.606 345.102 192.467C344.13 192.328 342.95 192.675 342.465 193.161Z" fill="#00214C"/>
<path d="M311.79 210.095C311.027 210.927 311.096 211.344 311.999 212.246C312.554 212.871 313.595 213.148 314.15 212.94C315.607 212.385 315.607 209.956 314.15 209.401C312.693 208.845 312.762 208.845 311.79 210.095Z" fill="#00214C"/>
<path d="M314.566 270.056C312.97 271.652 312.9 272.346 313.872 274.29C315.329 276.996 320.118 275.4 320.118 272.208C320.118 271.236 317.55 268.668 316.648 268.668C316.301 268.668 315.329 269.293 314.566 270.056Z" fill="#00214C"/>
<path d="M271.33 310.169C268.693 313.084 271.122 317.734 274.8 316.832C276.813 316.276 277.992 313.431 277.021 311.488C275.494 308.642 273.204 308.087 271.33 310.169Z" fill="#00214C"/>
</g>
<defs>
<clipPath id="clip0_1308_320">
<rect width="347" height="347" fill="white" transform="translate(0.87793 0.78418)"/>
</clipPath>
</defs>
</svg>
